<svg id="Layer_1" data-name="Layer 1" xmlns="http://www.w3.org/2000/svg" viewBox="0 0 197.87 166.45"><defs><style>.cls-1{fill:#cf3339;}.cls-2{fill:#a8ad00;}.cls-3{fill:#f3c300;}.cls-4{fill:#6f7271;}</style></defs><path class="cls-1" d="M610.56,517,608,516.9a46.66,46.66,0,0,0-10.56,1.75,36.78,36.78,0,0,1-6.59.9,38.93,38.93,0,0,0-4.77.48l-3.36.66a33.5,33.5,0,0,1-5.62,1l-5.83.38c-6.61.37-13.43.76-19.94,2.63A106.48,106.48,0,0,0,539.78,529l-1.29.53v.5a6.76,6.76,0,0,0,1.45.6c3.5,1.2,7.47,2.9,11.14,3.47,7.37,1.18,13.57,4,20.48,6.07,4.21,1.3,3.42,1.77,7.61,2.75,4.88,1.11,3.83,1.27,8.67,2.37,3,.64,2.71,1.81,5.82,2.27,1.81.32,3.45.6,5.26,1.08.89.14,1.9.71,2.55.84a2.6,2.6,0,0,0,3.28-1.75c-.08-.44.62-1.1.84-1.51a15.21,15.21,0,0,0,1.5-4.4c.44-1.33,1.66-3.19,1.91-4.58,1.66-8.32,5.5-12.83,7.08-17.63a30.93,30.93,0,0,1,.85-3.28c-.23,0-1.82.49-1.82.49A16.47,16.47,0,0,1,610.56,517Z" transform="translate(-437.61 -438.67)"/><path class="cls-2" d="M527.61,539.93c-.55-1.57-1.34-3.67-1.8-4.88a37.08,37.08,0,0,0-9.79,4.51l-1.3.87c-3.26,2.31-6.34,4.58-9.9,6.66l-2.77,1.47c-.1.09-2.88,3-2.88,3l-4.63,5.19c-1.37,1.65-1.13.55-2.44,2.22l-7,5.82-6.17,4.44s-1.75,2-3.76,3.81a29,29,0,0,1-3.41,2.7,1.88,1.88,0,0,0-.63,1.25,1.26,1.26,0,0,0,.38.92l3.3,2.23c1.71.9,4.32,1.77,5.63,3.51l10.87,4.44,6.93,4.1s4,2.62,3.75,2.5l5.68,2.67,1.42.94,3.65,1.78a1.31,1.31,0,0,0,1.08.38c1-.44,1.85-3.54,2.06-5.4,0-3.06,1-5.61,1.91-8.09a21,21,0,0,0,2-7.32l1.68-5.42c1.48-4.1,3.42-9.67,3.42-13.38l.88-5.37s1.77-9.54,2.39-12.55a9.12,9.12,0,0,0-.22-1.19A16.19,16.19,0,0,0,527.61,539.93Z" transform="translate(-437.61 -438.67)"/><path class="cls-3" d="M559.11,450.27c-.45,7.39-3.48,13.21-6.43,18.86a59.26,59.26,0,0,0-5.12,11.71l-1.79,5.58-2,6.9-.68,2.89-.75,3.26-1,4.18-.68,2.72-.78,3.19-1.23,4.5a11.8,11.8,0,0,1-.54,1.87,15.74,15.74,0,0,1,2.14.69l.61-.09a34.51,34.51,0,0,1,4.48-.3,30.42,30.42,0,0,1,3.44-1.24c4.88-1.43,4.45-2.91,8.65-6.05,2.25-1.68,7.23-3.73,9.44-5.33,2.87-2.08,7.72-4.87,10.6-6.56l8.14-5.36c.62-.26,1.87-.78,3.11-1.37,0,0,2.61-1.14.34-4.83-2.38-3.12-5.69-7.1-6.91-8.79-3.43-4.67-2-3.64-4.64-6.48-1.56-1.74-2.83-5.45-4.61-7-1.57-1.4-6.16-11-7.81-12.37-3.13-2.56-4.54-7.38-7.73-9.51l-.06.06a11.49,11.49,0,0,1,1.91,7Z" transform="translate(-437.61 -438.67)"/><path class="cls-4" d="M635.38,510.49c-1.48-6.48-15.32-4.86-16.91-4.66h0a21.44,21.44,0,0,0-3.89.83,19,19,0,0,1-5.42.89c-2.45.24-5,.49-7.46.87l-5.52.72a55.93,55.93,0,0,0-9.42,1.62,55.83,55.83,0,0,1-11,2.37c-2.22.15-4.12.1-6,0a27.57,27.57,0,0,0-9.94,1,47.59,47.59,0,0,1-6.09,1.26l-2.78.42a45.93,45.93,0,0,1-5.72.4,34.51,34.51,0,0,0-4.48.3l-.61.09a15.74,15.74,0,0,0-2.14-.69,11.8,11.8,0,0,0,.54-1.87l1.23-4.5.78-3.19.68-2.72,1-4.18.75-3.26.68-2.89,2-6.9,1.79-5.58a59.26,59.26,0,0,1,5.12-11.71c3-5.65,6-11.47,6.43-18.86v-1.91c0-2.5-.45-5.1-2-6.93a5.38,5.38,0,0,0-3.21-2.14l-1.49-.62-1.38.14c-1.81.22-4,.42-5.31,2.26a11.11,11.11,0,0,0-1.38,3.83l-1.1,3.68-.86,2.83-.7,3.06a32.61,32.61,0,0,1-2.44,7.45c-.46,1.12-1.07,2.25-1.57,3.62a25.71,25.71,0,0,0-.78,3.34,20.46,20.46,0,0,1-1.18,4A23.52,23.52,0,0,0,534,480a31.31,31.31,0,0,1-1,5.26l-1.85,6.29L530,495.79a104,104,0,0,0-3.59,15,25.22,25.22,0,0,1-5.1-4s-8.75-8.79-10.78-11.49a44,44,0,0,0-6.69-6.62c-1.34-1.22-2.74-2.39-4-3.72a87.64,87.64,0,0,1-8-8.81s-4.31-5.52-5.72-7.56c-1.18-1.7-2.38-3.32-3.93-5.2a7.49,7.49,0,0,0-2.68-2.3l-1.44-.93-1.75-.37a6.73,6.73,0,0,0-2.35,1.53,4.48,4.48,0,0,0-.64,2.49,5.07,5.07,0,0,0,.15,1.52,6.94,6.94,0,0,0,2.49,3.85l1.1,1.05a24.49,24.49,0,0,1,3.48,6.37,30.66,30.66,0,0,0,3.19,6.06s5.63,8.65,7.36,10l2.38,2.56a39,39,0,0,1,2.51,4,22.78,22.78,0,0,0,4.19,6,44.24,44.24,0,0,1,3.29,3.95s6.31,8,8,10.82a38.45,38.45,0,0,0,2.35,3.44,67.26,67.26,0,0,0-8.4,3.31s-10.88,5.77-13.75,7a63,63,0,0,1-6.27,2.22,60,60,0,0,0-7,2.54,39.89,39.89,0,0,0-6.41,3.81l-3.6,2.38c-2.06,1.18-10,4.93-11.76,5.86L448.69,555c-5.84,3.21-10.07,5.53-10.89,11.62a14.56,14.56,0,0,0-.19,2.21c0,3.88,1.82,6.27,5.82,8.21,5.77,2.72,8,1.79,14-.75l2.41-1.44a35.8,35.8,0,0,1,5.46-3.95l2.3-1.38s6.74-4.68,8.44-5.63l5-2.51c2-1,4.05-1.95,6-3a36.32,36.32,0,0,0,5.09-3.7l1.41-1.15a37.52,37.52,0,0,1,7-4.17l1.51-.81,2.77-1.47c3.56-2.08,6.64-4.35,9.9-6.66l1.3-.87a37.08,37.08,0,0,1,9.79-4.51c.46,1.21,1.25,3.31,1.8,4.88a16.19,16.19,0,0,1,.27,1.8,9.12,9.12,0,0,1,.22,1.19,27.44,27.44,0,0,0,.85,3.27l.63,2.51a32.46,32.46,0,0,0,2.43,6.19,23.15,23.15,0,0,1,2.49,6.86c1.08,6.77,4.55,13.65,7.79,20.33,3,6.12,4.49,9.72,4.49,9.72,1.71,4,4.74,11.48,8.21,13,1.73.66,2.62.28,3.08-.17a2.83,2.83,0,0,0,.73-2.06,6.9,6.9,0,0,0-.57-2.58l-1.11-2.83a29.4,29.4,0,0,1-1.72-4.24l-1.92-5.94a116.09,116.09,0,0,1-3.6-12.42,28.39,28.39,0,0,0-1.12-3.68,19.18,19.18,0,0,1-1.2-4.5,52.53,52.53,0,0,0-1.82-7.17l-2.48-9.3c-.61-2.65-1.26-5.36-2.1-8.14l-.4-1.2c-1.11-3.44-2.21-7-2.27-10.37v-.63l1.29-.53a106.48,106.48,0,0,1,11.52-4.31c6.51-1.87,13.33-2.26,19.94-2.63l5.83-.38a33.5,33.5,0,0,0,5.62-1l3.36-.66a38.93,38.93,0,0,1,4.77-.48,36.78,36.78,0,0,0,6.59-.9A46.66,46.66,0,0,1,608,516.9l2.59.06a16.14,16.14,0,0,0,4.51-.14,27,27,0,0,1,4.9-1.07,34.49,34.49,0,0,0,5-.22l1.5-.09c2.7-.1,6.92-.36,8.43-2.36A2.94,2.94,0,0,0,635.38,510.49Z" transform="translate(-437.61 -438.67)"/></svg>