<svg id="Layer_1" data-name="Layer 1" xmlns="http://www.w3.org/2000/svg" viewBox="0 0 182.69 95.47"><defs><style>.cls-1{fill:#cb007b;}.cls-2{fill:#a8ad00;}.cls-3{fill:#6f7271;}</style></defs><path class="cls-1" d="M885.55,256.7a24.91,24.91,0,0,0,5.1-3.34c3.38-3.16,7.17-6.48,10.59-9.62,2.28-2,3.9-4.14,6-6.25,2.49-2.61,5.42-5.22,7.81-8.07,2.68-3.24,4-7.93,4.84-12,.56-2.71,1.3-7.55-.3-10-1.25-1.87-8.29-3.48-8.95-.62-4.88-.1-10.21,2.29-14.19,4.86-2.5,1.67-4.24,3.86-6.33,6.1a33,33,0,0,0-2.72,3.16c-.61.9-1.67,1.64-2.18,2.51s-.47,1.85-1,2.7c-.42.7-1.09,1.19-1.44,1.91a28.58,28.58,0,0,1-2.36,4.6c-1.82,2.62-4.52,4.18-6.69,6.47a18.69,18.69,0,0,0-2.73,4c-1.55,2.58-3.36,4.7-5.09,7.12-.72,1-.62,1.83-1,2.87-1.29,3.86-3.33,6.2-5.38,9.66-.09.58-1.43,2.61-1.49,3.38,0,1,2.11,3.79,2.44,4.26l0,0,4.2-1.32,7.28-2.79,10.45-6.38,1.32-.72C883.54,259,883.51,258.5,885.55,256.7Z" transform="translate(-743.05 -201.46)"/><path class="cls-2" d="M844.09,255.83c-.47-.58-1.11-.76-1.6-1.23-1.15-1-1.3-1.74-2-3.22-1.28-3.17-3.25-5.06-5.58-7.42-1.52-1.55-2.53-3.55-4-5.14-2.37-2.64-6.23-3.74-9.1-5.73a20,20,0,0,1-2.59-2.39c-2.3-2.14-5.8-3.5-8.41-5.1s-5.22-3.82-8.23-4.56c-2.14-.6-4.48-.31-6.68-.73-3.67-.67-7.23-1.91-10.81-2.54-4.4-.74-8.86-1.62-13.26-2-4.21-.34-8.58-1.73-12.89-1.63-2.07,0-4.75-.27-6.44,1s-2.42,4.49-2.7,6.39a42.41,42.41,0,0,0,.94,16.53,15.23,15.23,0,0,0,1.26,3c1.75,2.49,3,5.67,5,7.95a55.94,55.94,0,0,1,5.51,7.27,34.12,34.12,0,0,0,6.52,7.35c1.87,1.26,5.67,2.23,7.55,3.62.78.6.9.3,1.71,1a17.06,17.06,0,0,0,5.78,3.25c6.24,2.52,12.52,5.08,18.69,7.94a29.34,29.34,0,0,0,19.35,2.16c4.2-1,8.42-1.81,12.47-2.86,3.22-.86,6.17-2.84,9-4.75a15.59,15.59,0,0,0,5-5.41,11.46,11.46,0,0,0,1.12-2.81l-.22-.19C847.58,262.52,846.59,258.46,844.09,255.83Z" transform="translate(-743.05 -201.46)"/><path class="cls-3" d="M923.45,205.05c-2.45-2.38-3.56-3-6.85-3-2.26,0-3.21-.73-5.32-.47-1.6.14-5.72,1.14-7.26,1.51-3.56.9-5.32,3.09-8.56,4.49s-5.62,4-8.22,6.22c-3.11,2.5-5.21,6.3-7.94,9.17-3,3.05-4.16,6.37-7.06,9.07a39.34,39.34,0,0,0-7.24,9.37,57.72,57.72,0,0,1-3.93,5.74c-.89,1.21-1.31,2.7-2.34,4.08-1.69,2.47-2.6,4.78-4.6,6.91-.62.71-3.38-5.23-3.38-5.23a71.93,71.93,0,0,0-4.39-6,22,22,0,0,0-2.94-3.91c-4.76-4-7.79-8.08-13.24-11.47-2.36-1.45-3.42-2.78-7.75-6,.19-.12-6.11-4.79-8.47-6.17s-5.29-2-7.11-3.61a10.07,10.07,0,0,0-3.36-2.46c-10.31-4.37-18.38-8.64-29.4-10.29-3.4-.48-6.94-1.72-10.53-1.51-1.27.07-5.6.28-6.73.46a26.1,26.1,0,0,0-6.83,2.33c-3.94,2.41-5.5,6.23-6.66,11.32-.54,2.38-.16,5.28-.16,7.76a44.66,44.66,0,0,0,0,6.53c.18-.11.36,4.29.48,4.16a9.55,9.55,0,0,0,.7,3.38c.39,1.42,1,2.65,1.38,4.17.5,2.06,1.82,3,2.59,5,.63,1.75,1.27,1.53,1.84,3.23,1.37,3.76,4,6.07,6.22,9.23a49.08,49.08,0,0,0,5.27,5.7,30,30,0,0,0,3.81,3.48c1.22.93,2.6,1.39,3.88,2.5,1.56,1.46,8.53,7.42,10.76,8.69s11.42,3.77,13.39,4.27c3.59,1,7.13,1.73,10.91,2.42,4.15.7,7.44.67,11.5,1.14a40,40,0,0,0,6.9-.17c1.65-.09,3.22-.39,4.81-.6a23.23,23.23,0,0,0,7-1.74c2-.93,4-2,6-3a28.86,28.86,0,0,0,5.39-3.45c1.19-1.06,1.94-2.44,3.13-3.45s1.82-1.37,2.54-2.92c2.74,1,2.53,4.41,3.17,5.84a8.25,8.25,0,0,1,1.05,3.83c.06,1.38.55,2.59.56,3.84a27.38,27.38,0,0,1-.63,7.38c-.17.8-1,2.54-.48,3.44.93,1.85,2.82-.5,3.33-1.25,1.82-2.65,3.33-3.77,3.73-7.08.11-1,1-2.7.77-3.88.08-1-.11-3.11.08-4.28l-.31-2.13c-.73-3.31-.16-2.39-1.06-5.08a5.32,5.32,0,0,0-1.46-2.17c-.33-.47-2.44-3.29-2.44-4.26.06-.77,1.4-2.8,1.49-3.38,2.05-3.46,4.09-5.8,5.38-9.66.33-1,.23-1.88,1-2.87,1.73-2.42,3.54-4.54,5.09-7.12a18.69,18.69,0,0,1,2.73-4c2.17-2.29,4.87-3.85,6.69-6.47a28.58,28.58,0,0,0,2.36-4.6c.35-.72,1-1.21,1.44-1.91.53-.85.53-1.93,1-2.7s1.57-1.61,2.18-2.51a33,33,0,0,1,2.72-3.16c2.09-2.24,3.83-4.43,6.33-6.1,4-2.57,9.31-5,14.19-4.86.66-2.86,7.7-1.25,8.95.62,1.6,2.44.86,7.28.3,10-.86,4.12-2.16,8.81-4.84,12-2.39,2.85-5.32,5.46-7.81,8.07-2.05,2.11-3.67,4.21-6,6.25-3.42,3.14-7.21,6.46-10.59,9.62a24.91,24.91,0,0,1-5.1,3.34c-2,1.8-2,2.25-1.77,2.44.08.07.19.1.19.17a16.63,16.63,0,0,0,4.2-1.95c1.23-.78,3.8-2.16,5-3.08,3.26-2.43,6.5-5.38,9.72-7.8,1.53-1.17,3.2-2.85,4.66-4.07,1.7-1.57,4-2.76,5.64-4.33a58.39,58.39,0,0,0,7.62-8.19c1.18-1.63,2.09-4.77,3.57-8,1.13-2.51,1.24-5.87,1.35-8.71C925.86,210.15,925.61,207.16,923.45,205.05Zm-74.81,63.51a15.59,15.59,0,0,1-5,5.41c-2.82,1.91-5.77,3.89-9,4.75-4,1-8.27,1.82-12.47,2.86a29.34,29.34,0,0,1-19.35-2.16c-6.17-2.86-12.45-5.42-18.69-7.94a17.06,17.06,0,0,1-5.78-3.25c-.81-.68-.93-.38-1.71-1-1.88-1.39-5.68-2.36-7.55-3.62a34.12,34.12,0,0,1-6.52-7.35,55.94,55.94,0,0,0-5.51-7.27c-1.91-2.28-3.21-5.46-5-7.95a15.23,15.23,0,0,1-1.26-3,42.41,42.41,0,0,1-.94-16.53c.28-1.9,1.06-5.28,2.7-6.39s4.37-1,6.44-1c4.31-.1,8.68,1.29,12.89,1.63,4.4.36,8.86,1.24,13.26,2,3.58.63,7.14,1.87,10.81,2.54,2.2.42,4.54.13,6.68.73,3,.74,5.55,3,8.23,4.56s6.11,3,8.41,5.1a20,20,0,0,0,2.59,2.39c2.87,2,6.73,3.09,9.1,5.73,1.42,1.59,2.43,3.59,4,5.14,2.33,2.36,4.3,4.25,5.58,7.42.66,1.48.81,2.19,2,3.22.49.47,1.13.65,1.6,1.23,2.5,2.63,3.49,6.69,5.45,9.73l.22.19A11.46,11.46,0,0,1,848.64,268.56Z" transform="translate(-743.05 -201.46)"/></svg>