<svg id="Layer_1" data-name="Layer 1" xmlns="http://www.w3.org/2000/svg" viewBox="0 0 137.16 159.22"><defs><style>.cls-1{fill:#f3c300;}.cls-2{fill:#6f7271;}</style></defs><path class="cls-1" d="M1111.91,246.39l-1.74-.13c-.33-.09-2-.73-2-.73l-.46-.43a1.47,1.47,0,0,1-.48-2.49l2.11-2.1a6.19,6.19,0,0,1,1.79-1.44c.57-.31,1.07-.59,1.82-.95,1.09-.6,2.27-1.09,3.56-1.7s.4-.13,1.92-.85a2.16,2.16,0,0,0,.58-.32c-.1-.19-.17-.43-.28-.65-2.71-5.29-5.5-11.19-8.49-16.41-.53-.84-1-1.75-1.53-2.63l-.75.47-5.57,3.53-3.16,2.23-.91.37h-1.81a6.12,6.12,0,0,1-2.25-.45c-1.17-.14-1.55-1.68-1.55-1.68l-.22-.71.22-.73.62-.88,1.08-1.6,2.36-2.3c2.46-1.58,4.77-4,7.19-5.64.11-.13.24-.2.35-.31-4.2-7.19-8.76-14.25-14.81-19.85-.38.47-.76.9-1.13,1.41-2.33,3.5-5.93,6.37-8.23,9.93l-2.59,1.48c-1.4.73-2.14,0-2.14,0-.85-.14-1.44-1.2-1.44-1.2l-.43-.74a2.07,2.07,0,0,1-.49-2l.21-1.69,1.18-2.36c1.41-1.48,1.38-2,2.47-3.7l1.6-2c1.21-1.55,2.5-3.12,3.69-4.64-4.47-2.41-11.19-5.11-14.88-5.52a11.92,11.92,0,0,0-7.52,1.44,62.23,62.23,0,0,0-2.15,7.06,58.94,58.94,0,0,0-1.38,7.22,13.07,13.07,0,0,1-.68,2.51c-.34,2.48-.61,4.72-1.18,7.29-.37,1.95-.93,4.09-1.3,5.77-.5,1.84-.77,3.57-1.24,5.4a90.92,90.92,0,0,0-2.24,12.52c-.21,1.78-.31,4.28-.42,6a54.5,54.5,0,0,0-.71,6.12c.22,3.88-.77,7.23-.53,11,.2,3.44,1,7.76,3.86,10.19a29.81,29.81,0,0,0,4.9,3.26c2.22,1.17,5.12,1.57,7.55,2.43a20.21,20.21,0,0,0,7,1.08c3.1-.14,6.76-2,9.77-2.88,7.66-2.23,15.46,1.19,22.58,2.36,1.39.23,2.82.56,4.2.9,2.19-.76,4.26-1.59,5.35-2.66,2.84-2.69,7.54-7.71,8.11-11.27a32.69,32.69,0,0,0-.19-10.62c-2.26,1.19-4.26,2.41-6.76,3.86A7.82,7.82,0,0,1,1111.91,246.39Z" transform="translate(-1038.31 -137.71)"/><path class="cls-2" d="M1174.49,168.39a5.92,5.92,0,0,0-1-3.18A19,19,0,0,0,1170,163a7.61,7.61,0,0,0-7.32,1.5L1161,165.7c-.25.16-.4.4-.68.56-.58.41-1.1.62-1.71,1-.79.48-1.47,1.41-2.3,2.05-2,1.59-4.77,3.53-6.66,5.35-2.73,2.6-4.25,4.06-7.17,5.65a17,17,0,0,0-3,2.4,19,19,0,0,1-2.64,1.59,63,63,0,0,0-8.38,5.06c-1.88,1.44-5.15,3.6-7.28,5.58a26.81,26.81,0,0,1-2.91,2.56c-.93.68-2.1,1.51-3,2.23a35.22,35.22,0,0,0-3,2.19c-.89.78-2,1.27-3,2.1a40,40,0,0,1-5.07,3.82c-.11.11-.24.18-.35.31-2.42,1.65-4.73,4.06-7.19,5.64l-2.36,2.3-1.08,1.6-.62.88-.22.73.22.71s.38,1.54,1.55,1.68a6.12,6.12,0,0,0,2.25.45h1.81l.91-.37,3.16-2.23,5.57-3.53.75-.47,7.31-4.46c4.42-2.49,7.15-5.25,11.14-7.39l.78-.55c.73-.32,2.2-.94,2.94-1.3a61.92,61.92,0,0,0,9.42-5.57c3-2,6.31-4.37,9.48-6.33,1.81-1.11,3.51-1.76,5-3.06a3.92,3.92,0,0,1,.72-.62l11.12-6.76,5.25-4.36c.53-.36,1-.79,1.51-1.1C1175.08,172.49,1174.79,170.67,1174.49,168.39Z" transform="translate(-1038.31 -137.71)"/><path class="cls-2" d="M1121.25,139.49a5.85,5.85,0,0,0-2.41-1.66c-2-.53-3.59.85-5,1.73-1.28.72-3,1.55-3.82,2.69-.56.79-.88,1.79-1.52,2.61s-1,1.43-1.56,2.16-.94,1.56-1.51,2.34a25.47,25.47,0,0,1-1.59,2.44,13.47,13.47,0,0,0-2.51,3.49,12.1,12.1,0,0,1-2.06,2.7c-2.28,2.69-3.6,5.42-5.8,8.34a21.52,21.52,0,0,0-2.66,3.77,28.1,28.1,0,0,1-1.67,2.81,15.11,15.11,0,0,1-2.42,3.14,17.93,17.93,0,0,0-2.34,3.33c-.81,1.25-1.26,1.88-2,2.88,0,.08-.15.2-.17.24-1.19,1.52-2.48,3.09-3.69,4.64l-1.6,2c-1.09,1.68-1.06,2.22-2.47,3.7l-1.18,2.36-.21,1.69a2.07,2.07,0,0,0,.49,2l.43.74s.59,1.06,1.44,1.2c0,0,.74.73,2.14,0l2.59-1.48c2.3-3.56,5.9-6.43,8.23-9.93.37-.51.75-.94,1.13-1.41,1.93-2.52,4.21-4.88,5.8-7.59a45.51,45.51,0,0,1,3-4.35c2.39-3.12,4.76-6.06,7.39-8.9a61.5,61.5,0,0,0,6.85-8.64c1.51-2.23,4-3.87,5.61-6a13.66,13.66,0,0,0,2.64-4.56c.62-2,1.48-3.94,1.26-6.17A3.29,3.29,0,0,0,1121.25,139.49Z" transform="translate(-1038.31 -137.71)"/><path class="cls-2" d="M1174.89,210.29a2.94,2.94,0,0,0-3.15-1.88,18.79,18.79,0,0,0-3.76.92,22.15,22.15,0,0,0-3.58,1.55c-1,.44-1.83,1.13-2.83,1.6a44.74,44.74,0,0,0-6.28,3.53c-3.42,2.53-7.13,4-11,5.89a87,87,0,0,0-9.34,5.55,20.69,20.69,0,0,1-3.21,1.86c-5.77,2.46-6.34,3.22-9.51,4.53-1.36.6-2.17.9-3.28,1.41a2.16,2.16,0,0,1-.58.32c-1.52.72-.54.26-1.92.85s-2.47,1.1-3.56,1.7c-.75.36-1.25.64-1.82.95a6.19,6.19,0,0,0-1.79,1.44l-2.11,2.1a1.47,1.47,0,0,0,.48,2.49l.46.43s1.71.64,2,.73l1.74.13a7.82,7.82,0,0,0,2.39-.47c2.5-1.45,4.5-2.67,6.76-3.86a52.38,52.38,0,0,1,5.58-2.48c3-1.15,6.38-2.23,9.39-3.63,5-2.43,10.2-5.42,15.45-7.22a56.46,56.46,0,0,0,9.5-4.16,50.08,50.08,0,0,1,8.32-3.62,8.57,8.57,0,0,0,3.18-1.89,13.55,13.55,0,0,0,2.54-2.94C1175.78,214.7,1175.48,211.84,1174.89,210.29Z" transform="translate(-1038.31 -137.71)"/><path class="cls-2" d="M1138.14,277.56c-4.35-2.11-10.05-3.51-14.42-5.44a110.34,110.34,0,0,0-15.93-5.51c-1.38-.34-2.81-.67-4.2-.9-7.12-1.17-14.92-4.59-22.58-2.36-3,.85-6.67,2.74-9.77,2.88a20.21,20.21,0,0,1-7-1.08c-2.43-.86-5.33-1.26-7.55-2.43a29.81,29.81,0,0,1-4.9-3.26c-2.85-2.43-3.66-6.75-3.86-10.19-.24-3.75.75-7.1.53-11a54.5,54.5,0,0,1,.71-6.12c.11-1.7.21-4.2.42-6a90.92,90.92,0,0,1,2.24-12.52c.47-1.83.74-3.56,1.24-5.4.37-1.68.93-3.82,1.3-5.77.57-2.57.84-4.81,1.18-7.29a13.07,13.07,0,0,0,.68-2.51,58.94,58.94,0,0,1,1.38-7.22,62.23,62.23,0,0,1,2.15-7.06c.42-1,.87-2,1.32-3,2-4.1,3.36-9.06,5.62-13.31a27.32,27.32,0,0,0,1.59-2.9c.34-.6.78-1.46.78-1.46s.83-1.19,1.76-2.61c1.26-2.05,1.07-1.3,1.82-2.7a2.7,2.7,0,0,0,.8-1.17,4.52,4.52,0,0,0,.82-1.69,6.58,6.58,0,0,0-.69-4.27c-.92-1.45-2.26-3.5-4.39-3.64-1.8-.08-3.91,1.07-5.34,2a7.76,7.76,0,0,0-2,2,22.41,22.41,0,0,0-4.63,8.18c-1,3.71-2.54,7.32-3.42,11.11s-2.72,6.27-3.84,10a63.24,63.24,0,0,0-1.83,6.08,43.24,43.24,0,0,0-.61,6.16c-.41,2.36-1.46,7.74-1.79,9.53-.74,4.73-1.22,9.09-2.65,13.76-2.22,7.26-5,15.38-4.71,23.32.3,7.43-.37,16.17,1.87,23.14a17.78,17.78,0,0,0,2,4.3c.33.6.69,1.16,1.08,1.73a14.75,14.75,0,0,0,2.09,2.47c.7.65,1.24,1.13,1.83,1.77,1.09,1.27,3,2.15,4.42,3,1.68,1.06,2.44,2,4.35,2.69a20.49,20.49,0,0,0,4.65,1.35,21.26,21.26,0,0,0,5.8,0c2.42-.31,5.08-.94,7.56-.79,2,.08,3.68.17,5.73.08,4.18-.36,8.22-2.41,12.37-2,4.68.43,8.6,2.65,13.33,4.34,3.29,1.17,5.84,1.76,7.91,3s4,2.63,5.83,3.86a77.77,77.77,0,0,0,11.44,6.51c2.36,1.08,3.89,2.26,5.54,3.08,2.81,1.39,6.66,2.32,9.74,3.39,1.87.6,4.12,1.72,5.72.6a5.16,5.16,0,0,0,1.75-4C1155,283.82,1144.87,280.81,1138.14,277.56Z" transform="translate(-1038.31 -137.71)"/></svg>