<svg id="Layer_1" data-name="Layer 1" xmlns="http://www.w3.org/2000/svg" viewBox="0 0 105.31 180.64"><defs><style>.cls-1{fill:#cf3339;}.cls-2{fill:#00a0df;}.cls-3{fill:#6f7271;}</style></defs><path class="cls-1" d="M1064,525c3.7.44,6.08,1.53,9.88,2.17,1.9.29,3.81,1.22,5.75,1.22a14.61,14.61,0,0,1,5.19.92h.11a1.78,1.78,0,0,0,.33.27c1.26.21,2.46.33,3.77.6,3.26.69,6.78,2.14,10.06,3.11,2.39.69,4.1,1.1,6.41,1.87,4.22,1.34,6.76,1.12,10.78,1.64,1.22.18,2.74.74,3.85.77,0,0,2.66.47,1.13-1.74-2.57-2.84-4.35-3.81-6.65-6.87-1.41-1.82-3.34-3.9-4.63-5.82a120.14,120.14,0,0,1-6.4-10.17c-1.44-2.5-.39-3-1.71-5.57-1.6-3.35-4.16-9.06-5.41-12.59-1-3.25-1.83-7.25-2.65-9.73-1.23-3.87-1.43-9.72-2.25-13.62-.6-2.81-1.49-13.28-2.13-19.17a71.47,71.47,0,0,1-.18-8.5,3,3,0,0,0-.29-.44c-.44-.48-1.12-1.86-3.7,0a46.41,46.41,0,0,0-4.71,4.75c-.23.35-2.45,4.22-2.64,4.63a55.3,55.3,0,0,0-6.13,8.77c-6.66,11.22-12.12,20-15.42,25.1-5.57,8.39-10.66,15.39-15.74,24.07-1.88,3.2-3.61,6.19-1,8.44,2,1.86,6.8,2.91,10,4,2.18.88,4.39,1.58,6.55,2.26a3.54,3.54,0,0,1,.94-.56C1059,524.35,1062.1,524.7,1064,525Z" transform="translate(-1038.31 -369.11)"/><path class="cls-2" d="M1116.3,394c4.71-8.24-1.54-14.55-5.74-21.08-12.06-5.86-25.61-5.86-31.58,6.49-1.27,7.37-4.84,14.84,2.24,20.68C1094.15,404.49,1105.84,404.05,1116.3,394Z" transform="translate(-1038.31 -369.11)"/><path class="cls-3" d="M1143.29,543.06a7.37,7.37,0,0,0-3-3.76c-.79-.53-2.75-2.18-2.94-2.37a75.61,75.61,0,0,1-7.25-7c-1.53-1.68-3.18-2.91-4.6-4.71s-2.54-4.18-3.87-6.11a81.56,81.56,0,0,1-5.23-8.25c-.81-1.58-2.59-5.2-3.34-6.81-1.43-3.06-2.77-6.62-4-9.72-.66-1.64-.68-3.57-1.21-5.19-1-2.66-1.12-4-2.07-7.42-.68-2.34-1.66-8.22-2.1-10.57-.83-3.52-1.07-12-1.44-14.88a90.9,90.9,0,0,1-.86-13.16l-.24-8.29-1-6.12-.89-10.75c-2.29-5.53-5.11-4.14-7.08.2a27.69,27.69,0,0,0-1.28,3.64c-.23.9-.41,1.85-.59,2.9-.42,2.18-.67,4.16-.9,5.94-.39,4.11,0,12.92,0,13.1a71.47,71.47,0,0,0,.18,8.5c.64,5.89,1.53,16.36,2.13,19.17.82,3.9,1,9.75,2.25,13.62.82,2.48,1.6,6.48,2.65,9.73,1.25,3.53,3.81,9.24,5.41,12.59,1.32,2.57.27,3.07,1.71,5.57a120.14,120.14,0,0,0,6.4,10.17c1.29,1.92,3.22,4,4.63,5.82,2.3,3.06,4.08,4,6.65,6.87,1.53,2.21-1.13,1.74-1.13,1.74-1.11,0-2.63-.59-3.85-.77-4-.52-6.56-.3-10.78-1.64-2.31-.77-4-1.18-6.41-1.87-3.28-1-6.8-2.42-10.06-3.11-1.31-.27-2.51-.39-3.77-.6a1.78,1.78,0,0,1-.33-.27h-.11a14.61,14.61,0,0,0-5.19-.92c-1.94,0-3.85-.93-5.75-1.22-3.8-.64-6.18-1.73-9.88-2.17-1.92-.25-5-.6-7-.13a3.54,3.54,0,0,0-.94.56c-1.19.86-1.86,2.53-.45,3.68,1.22,1,3,1.27,4.54,1.68a60.51,60.51,0,0,1,6.53,2.06,51.33,51.33,0,0,0,6.13,1.91,18.05,18.05,0,0,1,3.15.64c.69.23,1.49.59,2.22.83.12.05,3.38,1,5,1.57,1.11.43,3,1.6,4.17,2,3.34,1.1,6.84,2.22,10.48,3.28,2.7.75,5.53,1.53,8.23,2.37l5.66,1.51c1.75.47,3.39.91,5.18,1.36a29.67,29.67,0,0,0,6,1.05c3.93.14,8,.55,12,.36S1145.11,547.77,1143.29,543.06Z" transform="translate(-1038.31 -369.11)"/></svg>