<svg id="Layer_1" data-name="Layer 1" xmlns="http://www.w3.org/2000/svg" viewBox="0 0 221.06 468.73"><defs><style>.cls-1{fill:#4d525a;}</style></defs><path class="cls-1" d="M882.41,535.09V502.15a109.76,109.76,0,0,0,80-106c0-62.54-49.2-111.79-112.16-111.79-59.09,0-108.31,50.56-108.31,111.46,0,50.73,34.73,93.94,81.15,106.79v32.07c-46,12.88-80.47,56.52-80.47,107.56,0,60.8,49.47,110.85,109.48,110.85,61.78,0,110.91-49.16,110.91-110.48C963,590.87,929.57,548.52,882.41,535.09Zm-80-139.31c0-27.77,22.4-50.59,48.75-50.59,29.51,0,51.9,21.88,51.9,50.92a50.14,50.14,0,0,1-50.61,50.12C824.76,446.23,802.36,423.37,802.36,395.78Zm50.86,296.88a50.47,50.47,0,0,1-50.45-50.46c0-27.84,22.44-50.58,48.9-50.58,29.54,0,52,21.83,52,51A50.1,50.1,0,0,1,853.22,692.66Z" transform="translate(-741.94 -284.32)"/></svg>