<svg id="Layer_1" data-name="Layer 1" xmlns="http://www.w3.org/2000/svg" viewBox="0 0 139.8 145.68"><defs><style>.cls-1{fill:#f18a00;}.cls-2{fill:#6f7271;}</style></defs><path class="cls-1" d="M943.57,60.56c4.14-.81,8,0,12.32,1.1l9,3.39c3.78,1.08,6.33,1.83,9,4.14l5.11,4.2a88,88,0,0,1,10,8.75A20.76,20.76,0,0,1,992,87l1.27,2.53c3.09,5.39,3.8,14,3.8,14.08.66,4,.05,5.61-1.13,9l-1.53,4.48a45,45,0,0,1-3.83,9.33c-2.36,4-6.2,7.82-8.82,10.32a24.08,24.08,0,0,1-6.39,3.84l-4.77,2.51-1.85,1.31-3.87,2.42c-.22.09-.38.12-.55.19l5.07.29,2.62.42a21.57,21.57,0,0,0,6.67.49,25.79,25.79,0,0,0,6.47-2l5.58-1.81,6.79-1.4c5.36-1.63,8.83-3.95,11.18-7.62l1.55-2.36c2.73-4.15,5.33-8,6.33-12.94l2-9.59.25-6.93V97.2c.05-3.36.23-6.56-.64-10l-.43-1.72c-1.11-5-2.46-10.69-5.38-14.74a92,92,0,0,0-11.79-13.6,84.75,84.75,0,0,0-11.35-4.3c-33.5-4.47-53.53,3.78-64,18.55C930.47,65.86,937.15,61.73,943.57,60.56Z" transform="translate(-898.54 -28.42)"/><path class="cls-1" d="M1029.85,95.14l.48,2.83.43,2.36s-.32,6.5-.36,6.72c-.45,2.84-1.94,5.8-3.38,8.58l-1.81,3.71a27.46,27.46,0,0,1-4.88,6.92l-3,3.55-3.72,3.65-1.91,1.62-2.6,2.6-3.73,3.6-2.22,1.33-3.85,2.54c-2.84,2.54-5.22,3.38-8.79,4.66l-.94.36a86.45,86.45,0,0,1-22.55,5c-9.43.79-20-.05-33.08-2.65a24.42,24.42,0,0,1-4-1.27c6.7,11,16.54,19.3,31.87,22.71,45.07,2.63,75.48-34.32,76.6-69.29a52.77,52.77,0,0,0-10.67-26.81,29.52,29.52,0,0,1,2,8.19Z" transform="translate(-898.54 -28.42)"/><path class="cls-1" d="M965.52,135.62c5.67-2.37,11.54-4.84,15.43-10l2.73-3.08c2-2,3.92-4.09,4.83-6.44.67-1.75.3-4.34,0-6.4l-.2-1.72a59.66,59.66,0,0,0-3.95-17.87c-1.68-4.18-3.79-6.72-6.55-9.92-.06,0-4.94-5.59-4.94-5.59-.13-.17-.86-.79-.86-.79-3.52-2.94-7.87-6.65-12.56-6.46l-9.5.8c-4.29.64-7.93,3.57-11.53,6.45l-3.25,2.53a30.71,30.71,0,0,0-8,8.12L923,92.23c-3.14,4.59-4,10.51-4.62,15.74-.5,5.49.87,10.72,3.9,14.43l1.79,2.28c1.67,2.2,3.58,4.76,5.83,6.22l5.26,2.17,6.68,3.81c7.57,4.06,14.71,2.54,23-1Z" transform="translate(-898.54 -28.42)"/><path class="cls-2" d="M949.44,29.49l-11.08,3.4-7,3.53c-3.68,1.81-7.78,4.07-11,7.73L917,49.73S914,54,913.69,54.31l-1.75,3.3L909.61,60C905,66,902.74,72.67,900.67,80.9l-1.56,7.53-.15,7a49.56,49.56,0,0,0,0,13.24l.57,3.88,1.14,6.6,3.45,9.7c1.19,3,2,5.27,4.43,7.55l2.28,2.82c1.08,1.57,2.11,3.05,3.82,3.82l7.08,3.93a60.66,60.66,0,0,0,8.11,4.31,24.42,24.42,0,0,0,4,1.27c13.1,2.6,23.65,3.44,33.08,2.65a86.45,86.45,0,0,0,22.55-5l.94-.36c3.57-1.28,6-2.12,8.79-4.66l3.85-2.54,2.22-1.33,3.73-3.6,2.6-2.6,1.91-1.62,3.72-3.65,3-3.55a27.46,27.46,0,0,0,4.88-6.92l1.81-3.71c1.44-2.78,2.93-5.74,3.38-8.58,0-.22.37-6.7.37-6.7l-.44-2.38-.48-2.83-.17-9.08a29.52,29.52,0,0,0-2-8.19c-1.2-3.17-4.62-10.23-4.62-10.23a49.54,49.54,0,0,0-5.12-7.73l-4.34-5.74A116,116,0,0,0,1001.9,40c-1.95-1.92-5.06-2.76-7.84-3.52L980.34,32c-5.6-1.9-12.83-4-19.37-3.56Zm-7.57,107.39-6.68-3.81-5.26-2.17c-2.25-1.46-4.16-4-5.83-6.22l-1.79-2.28c-3-3.71-4.4-8.94-3.9-14.43.57-5.23,1.48-11.15,4.62-15.74l4.12-6.94a30.71,30.71,0,0,1,8-8.12l3.25-2.53c3.6-2.88,7.24-5.81,11.53-6.45l9.5-.8c4.69-.19,9,3.52,12.56,6.46,0,0,.73.62.86.79,0,0,4.88,5.55,4.94,5.59,2.76,3.2,4.87,5.74,6.55,9.92A59.66,59.66,0,0,1,988.31,108l.2,1.72c.3,2.06.67,4.65,0,6.4-.91,2.35-2.86,4.45-4.83,6.44L981,125.66c-3.89,5.12-9.76,7.59-15.43,10l-.62.27C956.58,139.42,949.44,140.94,941.87,136.88Zm76.94-39.68v6.4l-.25,6.93-2,9.59c-1,4.9-3.6,8.79-6.33,12.94l-1.55,2.36c-2.35,3.67-5.82,6-11.18,7.62l-6.79,1.4-5.58,1.81a25.79,25.79,0,0,1-6.47,2,21.57,21.57,0,0,1-6.67-.49l-2.62-.42-5.07-.29c.17-.07.33-.1.55-.19l3.87-2.42,1.85-1.31,4.77-2.51a24.08,24.08,0,0,0,6.39-3.84c2.62-2.5,6.46-6.32,8.82-10.32a45,45,0,0,0,3.83-9.33l1.53-4.48c1.18-3.41,1.79-5.06,1.13-9,0-.09-.71-8.69-3.8-14.08L992,87a20.76,20.76,0,0,0-3-4.85,88,88,0,0,0-10-8.75l-5.11-4.2c-2.71-2.31-5.26-3.06-9-4.14l-9-3.39c-4.28-1.1-8.18-1.91-12.32-1.1-6.42,1.17-13.1,5.3-18.33,10.81a36.62,36.62,0,0,0-6.85,9.82c-3.11,6.62-6.35,14.42-5.31,22.53l.2,2.25c.23,3.12.49,6,1.91,8.86a24.34,24.34,0,0,1,1.84,6.35,31.23,31.23,0,0,0,4.2,10.77L918,129.07l-5.34-5c-2.63-2.7-3.69-5.4-5.14-9.29l-3-5.33-.82-1.18c-1.12-1.7-1.08-4.29-1.07-6.61l0-7.29c.68-4.71,2.69-9,4.59-13.21l1.62-3.73a30.61,30.61,0,0,1,4.64-7.33l5.76-6.86,1.93-3.13,2.49-3.75a37.33,37.33,0,0,1,6-5l2.54-1.86L940.09,44c5-2.75,10.07-5.21,16.27-5.55l9,.07c.47.07,11.1,2.25,15.35,4.38l4.1,2.52,2.6,1.71a75.82,75.82,0,0,1,13.16,10,92,92,0,0,1,11.79,13.6c2.92,4,4.27,9.75,5.38,14.74l.43,1.72C1019,90.64,1018.86,93.84,1018.81,97.2Z" transform="translate(-898.54 -28.42)"/></svg>