<svg id="Layer_1" data-name="Layer 1" xmlns="http://www.w3.org/2000/svg" viewBox="0 0 155.43 225.13"><defs><style>.cls-1{fill:#00a0df;}.cls-2{fill:#cf3339;}.cls-3{fill:#6f7271;}</style></defs><path class="cls-1" d="M164.68,277c-2.88-2.29-4.79-3.9-4.79-3.9-5-3.92-9.28-6.82-14.19-10.75-.82-.7-2.43-2.42-3.23-3.07l-4.38-3.52c-1.46-1.17-3-2-4.44-3.19-1-.87-2.05-2-3-2.89-2.3-1.86-4.54-3.66-6.68-5.42-2.44-2-4.76-3.56-7-5.41-2.33-2-4.57-4.34-6.71-6.2l-1.78-1.49-.7,2c-1,2.9-1,6.18-1,9.37l-.52,7.42c-2.85,18.06-9,40.26-15,61.67,13.51-3.25,20.61-6.82,35.18-11.05,8.4-2.47,14.85-6.32,22.82-9.57,8.61-3.51,14.4-4.16,22.53-8.32-1.29-1.05-2.51-1.87-3.75-2.86C166.85,278.87,165.62,277.73,164.68,277Z" transform="translate(-41.61 -115.07)"/><path class="cls-2" d="M98.32,169.58c5.66-5.51,2.35-12.77.57-18.07-10.61-13.06-19.6-9.85-27.8-3.65-3.27,5-8.32,11.84-3.67,18.73C77.15,174.59,87.32,174.26,98.32,169.58Z" transform="translate(-41.61 -115.07)"/><path class="cls-3" d="M97.74,220.21c1.22,4.23,2,8.53,2.16,8.87,0,2.93.13,5.88-.07,8.79-.06,1.24,0,2.1-.13,3.37-.1,1-.42,2.41-.53,3.4a129.66,129.66,0,0,1-2.8,13.85c-.71,2.79-1.52,5.64-2.3,8.45-1,3.56-1.59,6.11-2.31,8.52-.66,2.07-1.72,4.52-2.43,6.67-1.26,4.1-2.58,8.31-3.86,12.65-1.57,5.27-2.24,10.94-3.46,16.48-1,4.35-3.16,9.17-4,13.19-.54,2.85-1.45,5.39-1.75,7.71-.18,1.38.21,2.51,0,3.75.27.09,1.59,3.89,2.6,4.22,1.59.59,5-2.38,5.27-2.32.09-.56.75-1.33,1.25-3,.33-1.26.44-3.32.89-4.93.82-3.21,2.38-5.58,3.25-8.77l1.65-9.55c6-21.41,12.19-43.61,15-61.67l.52-7.42c0-3.19,0-6.47,1-9.37l.7-2,1.78,1.49c2.14,1.86,4.38,4.18,6.71,6.2,2.27,1.85,4.59,3.39,7,5.41,2.14,1.76,4.38,3.56,6.68,5.42,1,.86,2,2,3,2.89,1.45,1.14,3,2,4.44,3.19l4.38,3.52c.8.65,2.41,2.37,3.23,3.07,4.91,3.93,9.22,6.83,14.19,10.75,0,0,1.91,1.61,4.79,3.9.94.76,2.17,1.9,3.26,2.78,1.24,1,2.46,1.81,3.75,2.86.32.27.67.49,1.05.79.68.53,1.3,1.35,1.94,1.92.81.59,1.66,1,2.43,1.6,2.17,1.72,4.34,4,6.18,5.51,1.23,1,2.26,1.24,3.21,2,1.76,1.43,2.95,2.32,3,2.46a16.65,16.65,0,0,0,3,0,4.87,4.87,0,0,0,2.18-.88c1-.56,2-2.95,2.36-4.58.16-.86-1.1-2.15-.94-2.33-1.1-1-1.93-2.15-3.19-3.29s-3.54-2.61-5-3.93c-3.43-2.87-6.88-6-10.81-9.07-1.42-1.12-3.57-2.31-5.06-3.44-3.63-2.76-6.82-5.53-10.54-8.27s-7.47-5.78-11-8.41c-5.33-3.78-10.26-7-14.5-10-1.43-1-2.53-2-3.87-2.86-2.2-1.46-4.72-2.78-6.85-4.25a11.73,11.73,0,0,1-1.42-1.16,15.43,15.43,0,0,1-1.57-.93,69.48,69.48,0,0,1-5.88-4.7c-.79-.7-1.6-1.26-2.45-2.12-1.11-1.11-2.24-2.56-3.38-3.88L108,217.94l-2.48-4.64c1.31-.51,2.61-1.07,4-1.56a67.36,67.36,0,0,0,6.83-3c2.68-1.3,5.93-2.24,8.55-3.65s4.72-3.26,7.33-4.95c3.34-2.13,6.79-4.45,10.22-7,2.37-1.82,5.06-3.31,8.31-6.16,2.6-2.31,5.63-5.76,8.23-8.43a108.35,108.35,0,0,0,7.57-8.74c.81-.94,2.28-2,3.11-3A146.64,146.64,0,0,0,184,147a73,73,0,0,0,6.18-13.23,31.61,31.61,0,0,0,1.5-13.51,30.91,30.91,0,0,0-1.75-5.15c-3.53,0-5.85.2-8.2,1.19-6.59,2.88-9.73,10.2-12.15,17.17-.72,2.19-2,4.61-2.83,6.91-1.18,3.43-2.1,6.63-4.19,9.69-1.22,1.8-3.65,3.7-5.18,5.46a95.14,95.14,0,0,1-11.62,12.11c-1.84,1.56-3.29,3.55-5.24,5-2.35,1.91-5.16,3.3-7.53,5.17-3.69,2.79-7.23,5.55-10.48,8.11-4.88,3.87-9.92,6.56-13.92,9-2.77,1.66-5.3,3.1-8,4.53-.15-.91-.39-2.14-.35-2.05a52.32,52.32,0,0,0-2.9-8.23c-.6-1.34-1-2.74-1.56-3.85-.77-1.61-1.63-2.88-1.92-3.84a3.48,3.48,0,0,0-2.8-2.38,6.44,6.44,0,0,0-2.2.78c-.39.26-.57.74-.89,1a16.09,16.09,0,0,0,.5,3c.24,1.2.39,2.29.61,3.26.35,1.41.37,3.53,1,5.36l1,5.44s1.56,4.89,1.76,5.36c-1.81.81-3.7,1.65-5.81,2.51-1.64.68-4.68,1.62-6.49,2.36-2.82,1.21-6.77,3.14-11.84,5.05-2.43.9-5.57,1.62-8.11,2.62-3.16,1.28-6.28,2.14-9,3.5-1.53.73-3,1.87-4.19,2.58-2,1.16-3.94,2.15-4.9,3.18-1.55,1.73-.89,3.47,1.74,4.76,1.74.84,6.2-.56,6.2-.56,3.32-.91,6.6-1.75,9.82-2.62s6.72-1.44,10-2.26c2.83-.72,5.5-1.74,8.24-2.51,6.3-1.72,12.37-3.48,18.36-5.46Z" transform="translate(-41.61 -115.07)"/></svg>