<svg id="Layer_1" data-name="Layer 1" xmlns="http://www.w3.org/2000/svg" viewBox="0 0 216.56 108.87"><defs><style>.cls-1{fill:#4d525a;}</style></defs><path class="cls-1" d="M458.5,384.19c6,22.86,25.35,39.24,48.45,39.24,28.6,0,51.17-24.13,51.17-55.15,0-29.1-23.12-53.35-50.94-53.35-23.25,0-43,17.12-48.88,39.93H441.36c-5.86-22.64-25.81-39.63-49.11-39.63-27.79,0-50.69,24.43-50.69,54,0,30.35,22.42,54.6,50.46,54.6,23.61,0,43-16.48,49.11-39.61Zm48.68-39.54c12.68,0,23.11,11.06,23.11,24,0,14.51-10,25.55-23.34,25.55-12.66,0-22.84-11-22.84-24.89C484.11,355.71,494.5,344.65,507.18,344.65ZM392,394.53c-12.63,0-22.86-11-22.86-24.88,0-13.69,10.4-24.73,23.09-24.73s23.11,11,23.11,24.08C415.36,383.49,405.31,394.53,392,394.53Z" transform="translate(-341.56 -314.93)"/></svg>