<svg id="Layer_1" data-name="Layer 1" xmlns="http://www.w3.org/2000/svg" viewBox="0 0 148.26 107.89"><defs><style>.cls-1{fill:#4d525a;}</style></defs><path class="cls-1" d="M316.17,314.93c-8.16,0-13.51,6.43-13.74,16.26v43.38c0,10.6-7.09,19-16.49,19a16.62,16.62,0,0,1-15-10.11c-1.48-3.79-1.85-6.39-1.85-15.17V331.19c0-9.65-5.49-16.26-13.46-16.26h-.21c-8,0-13.3,6.43-13.48,16.26v43.38c0,10.6-7.16,19-16.6,19a16.69,16.69,0,0,1-15-10.11c-1.42-3.79-1.8-6.39-1.8-15.17V331.19c0-9.65-5.51-16.26-13.75-16.26-8,0-13.21,6.43-13.47,16.26v39.66c0,11.71,2.06,21.78,5.92,28.66,8.23,14.32,23.1,23.31,38.25,23.31a42.18,42.18,0,0,0,30.11-13.21c8.32,8.33,19.34,13.21,30.42,13.21,13.07,0,25.78-6.58,33.92-17.64,6.83-9.25,9.64-19.12,9.64-33.44V331.19C329.65,321.54,324.1,314.93,316.17,314.93Z" transform="translate(-181.39 -314.93)"/></svg>