<svg id="Layer_1" data-name="Layer 1" xmlns="http://www.w3.org/2000/svg" viewBox="0 0 838.96 214.28"><defs><style>.cls-1{fill:#4d525a;}</style></defs><path class="cls-1" d="M788.13,286.51c-8.2,0-13.51,6.43-13.72,16.29v74.69c0,11-2.07,17.83-6.55,20.84l-5.28,3.77c-4.46,3.06-6.61,7-6.61,12.16,0,8.57,6.61,14.68,16,14.68,12.25,0,24.7-11.38,28.29-25.73,1.35-5.06,1.35-6.85,1.35-19.11V302.8C801.61,293.14,796.29,286.51,788.13,286.51Z" transform="translate(-139.77 -286.51)"/><path class="cls-1" d="M840.89,286.51c-8,0-13.34,6.43-13.53,16.29v75.3c0,9.71,5.55,16.27,13.71,16.27,8,0,13.28-6.38,13.51-16.27V302.8C854.58,293.14,849,286.51,840.89,286.51Z" transform="translate(-139.77 -286.51)"/><path class="cls-1" d="M580.2,286.51c-28.65,0-51.09,24.2-51.09,55.26v35.89c0,10,5.68,16.73,14,16.73,8.19,0,13.57-6.56,13.79-16.73V340.94c.22-14.31,10.07-25.17,23.25-25.17,12.51,0,22.55,10.82,22.8,24.48v37.41c0,10,5.57,16.73,13.94,16.73,8.2,0,13.59-6.56,13.82-16.73V341.09C630.75,310.7,608.16,286.51,580.2,286.51Z" transform="translate(-139.77 -286.51)"/><path class="cls-1" d="M928.23,286.51c-28.69,0-51.18,24.2-51.18,55.26v35.89c0,10,5.71,16.73,14.11,16.73,8.24,0,13.57-6.56,13.82-16.73V340.94c.13-14.31,10-25.17,23.25-25.17,12.44,0,22.52,10.82,22.84,24.48v37.41c0,10,5.49,16.73,13.86,16.73s13.57-6.56,13.81-16.73V341.09C978.71,310.7,956.2,286.51,928.23,286.51Z" transform="translate(-139.77 -286.51)"/><path class="cls-1" d="M274.56,286.51c-8.17,0-13.52,6.43-13.74,16.26v43.38c0,10.6-7.09,19-16.49,19a16.61,16.61,0,0,1-15-10.1c-1.48-3.79-1.85-6.4-1.85-15.17V302.77c0-9.65-5.49-16.26-13.46-16.26h-.21c-8,0-13.3,6.43-13.48,16.26v43.38c0,10.6-7.17,19-16.6,19a16.71,16.71,0,0,1-15-10.1c-1.41-3.79-1.8-6.4-1.8-15.17V302.77c0-9.65-5.51-16.26-13.74-16.26-8,0-13.21,6.43-13.48,16.26v39.66c0,11.71,2.06,21.78,5.93,28.65,8.23,14.33,23.09,23.31,38.25,23.31a42.19,42.19,0,0,0,30.11-13.2c8.32,8.33,19.33,13.2,30.42,13.2,13.07,0,25.77-6.58,33.92-17.63,6.82-9.25,9.64-19.12,9.64-33.44V302.77C288,293.12,282.49,286.51,274.56,286.51Z" transform="translate(-139.77 -286.51)"/><path class="cls-1" d="M416.89,355.76c6,22.86,25.35,39.25,48.44,39.25,28.61,0,51.18-24.13,51.18-55.15,0-29.1-23.12-53.35-50.94-53.35-23.25,0-43,17.12-48.88,39.92H399.74c-5.85-22.64-25.8-39.62-49.1-39.62-27.8,0-50.69,24.42-50.69,54,0,30.35,22.42,54.59,50.46,54.59,23.61,0,43-16.48,49.1-39.61Zm48.68-39.54c12.68,0,23.11,11.07,23.11,24,0,14.51-10,25.54-23.35,25.54-12.65,0-22.83-11-22.83-24.88C442.5,327.29,452.89,316.22,465.57,316.22ZM350.41,366.11c-12.64,0-22.87-11-22.87-24.88s10.4-24.73,23.1-24.73,23.1,11,23.1,24.08C373.74,355.07,363.7,366.11,350.41,366.11Z" transform="translate(-139.77 -286.51)"/><path class="cls-1" d="M711.15,401.15V386.09a50.19,50.19,0,0,0,36.57-48.48c0-28.59-22.49-51.1-51.27-51.1-27,0-49.51,23.11-49.51,50.95A50.91,50.91,0,0,0,684,386.28v14.66c-21,5.89-36.79,25.84-36.79,49.17,0,27.79,22.62,50.67,50,50.67a50.79,50.79,0,0,0,13.86-99.63Zm-36.6-63.69c0-12.7,10.25-23.13,22.29-23.13,13.49,0,23.73,10,23.73,23.28a23,23,0,0,1-46-.15ZM697.8,473.18a23.08,23.08,0,0,1-23.06-23.07c0-12.73,10.26-23.13,22.35-23.13,13.51,0,23.76,10,23.76,23.3A22.91,22.91,0,0,1,697.8,473.18Z" transform="translate(-139.77 -286.51)"/></svg>