<svg id="Layer_1" data-name="Layer 1" xmlns="http://www.w3.org/2000/svg" viewBox="0 0 34.98 60"><defs><style>.cls-1{fill:#cf3339;}.cls-2{fill:#00a0df;}.cls-3{fill:#6f7271;}</style></defs><path class="cls-1" d="M23.41,54c1.22.14,2,.51,3.28.72a13.79,13.79,0,0,0,1.91.4,5,5,0,0,1,1.72.31h0l.11.09c.42.07.81.11,1.25.2,1.08.23,2.25.71,3.34,1,.79.23,1.36.37,2.13.62a16.38,16.38,0,0,0,3.58.55c.4.06.91.24,1.28.25,0,0,.88.16.37-.57a29.66,29.66,0,0,1-2.2-2.29c-.47-.6-1.11-1.29-1.54-1.93A39.23,39.23,0,0,1,36.55,50c-.48-.83-.13-1-.57-1.85-.53-1.11-1.38-3-1.79-4.18s-.61-2.41-.88-3.23c-.41-1.29-.48-3.23-.75-4.53-.2-.93-.49-4.41-.71-6.36A24.49,24.49,0,0,1,31.79,27a.67.67,0,0,0-.09-.14c-.15-.16-.38-.62-1.23,0a16.56,16.56,0,0,0-1.57,1.58c-.07.11-.81,1.4-.87,1.54a18.55,18.55,0,0,0-2,2.91c-2.21,3.73-4,6.64-5.12,8.33-1.85,2.79-3.54,5.12-5.23,8-.62,1.06-1.2,2.06-.34,2.81a11.85,11.85,0,0,0,3.31,1.34c.72.29,1.46.53,2.17.75A1.14,1.14,0,0,1,21.1,54,7.45,7.45,0,0,1,23.41,54Z" transform="translate(-14.86 -2.24)"/><path class="cls-2" d="M40.77,10.5c1.56-2.73-.51-4.83-1.91-7-4-1.94-8.5-1.94-10.48,2.16-.43,2.45-1.61,4.93.74,6.87C33.41,14,37.29,13.84,40.77,10.5Z" transform="translate(-14.86 -2.24)"/><path class="cls-3" d="M49.73,60a2.45,2.45,0,0,0-1-1.25c-.26-.17-.91-.72-1-.78a25.15,25.15,0,0,1-2.41-2.33c-.51-.55-1.06-1-1.53-1.56s-.84-1.39-1.28-2a27.61,27.61,0,0,1-1.74-2.74c-.27-.52-.86-1.72-1.11-2.26-.47-1-.92-2.2-1.34-3.23-.22-.55-.23-1.18-.4-1.72a23.37,23.37,0,0,1-.69-2.47c-.23-.78-.55-2.73-.7-3.51-.28-1.17-.35-4-.48-4.94a30,30,0,0,1-.28-4.37l-.08-2.75-.34-2-.3-3.57c-.76-1.83-1.69-1.37-2.35.07a9.36,9.36,0,0,0-.42,1.21c-.08.29-.14.61-.2,1-.14.72-.22,1.38-.3,2-.13,1.37,0,4.29,0,4.35a24.49,24.49,0,0,0,.06,2.83c.22,1.95.51,5.43.71,6.36.27,1.3.34,3.24.75,4.53.27.82.53,2.15.88,3.23S35.45,47,36,48.15c.44.86.09,1,.57,1.85a39.23,39.23,0,0,0,2.13,3.38c.43.64,1.07,1.33,1.54,1.93a29.66,29.66,0,0,0,2.2,2.29c.51.73-.37.57-.37.57-.37,0-.88-.19-1.28-.25a16.38,16.38,0,0,1-3.58-.55c-.77-.25-1.34-.39-2.13-.62-1.09-.32-2.26-.8-3.34-1-.44-.09-.83-.13-1.25-.2l-.11-.09h0a5,5,0,0,0-1.72-.31,13.79,13.79,0,0,1-1.91-.4c-1.26-.21-2.06-.58-3.28-.72a7.45,7.45,0,0,0-2.31,0,1.14,1.14,0,0,0-.32.18c-.39.29-.61.84-.14,1.22a3.77,3.77,0,0,0,1.5.56,18.93,18.93,0,0,1,2.17.69,18.31,18.31,0,0,0,2,.63,6,6,0,0,1,1,.21c.23.08.5.2.74.28,0,0,1.12.32,1.67.52.36.14,1,.53,1.38.67,1.11.37,2.27.74,3.48,1.09.9.25,1.84.51,2.73.79l1.89.5,1.72.45a9.75,9.75,0,0,0,2,.35c1.3,0,2.65.18,4,.12S50.34,61.58,49.73,60Z" transform="translate(-14.86 -2.24)"/></svg>