<svg id="Layer_1" data-name="Layer 1" xmlns="http://www.w3.org/2000/svg" viewBox="0 0 41.42 60"><defs><style>.cls-1{fill:#00a0df;}.cls-2{fill:#cf3339;}.cls-3{fill:#6f7271;}</style></defs><path class="cls-1" d="M42.8,45.15c-.76-.61-1.27-1-1.27-1-1.33-1-2.48-1.82-3.78-2.87-.22-.18-.65-.64-.87-.82l-1.16-.93c-.39-.32-.8-.55-1.18-.85s-.55-.54-.82-.77l-1.78-1.45c-.65-.54-1.26-1-1.87-1.44s-1.22-1.16-1.79-1.65l-.47-.4-.19.52a7.42,7.42,0,0,0-.26,2.5l-.14,2a154.86,154.86,0,0,1-4,16.43c3.6-.86,5.49-1.82,9.38-2.94a65,65,0,0,0,6.08-2.55c2.29-.94,3.83-1.11,6-2.22-.34-.28-.67-.5-1-.76S43.05,45.35,42.8,45.15Z" transform="translate(-10.01 -2)"/><path class="cls-2" d="M25.12,16.53c1.51-1.47.62-3.41.15-4.82-2.83-3.48-5.22-2.62-7.41-1-.87,1.34-2.21,3.15-1,5C19.48,17.86,22.19,17.77,25.12,16.53Z" transform="translate(-10.01 -2)"/><path class="cls-3" d="M25,30c.33,1.13.54,2.27.58,2.37,0,.78,0,1.56,0,2.34,0,.33,0,.56,0,.89s-.11.65-.14.91a36.55,36.55,0,0,1-.75,3.69c-.19.75-.41,1.5-.61,2.25-.28,1-.43,1.63-.62,2.27s-.46,1.21-.65,1.78c-.33,1.1-.68,2.22-1,3.37-.42,1.41-.59,2.92-.92,4.4-.26,1.15-.84,2.44-1.07,3.51-.14.76-.38,1.44-.46,2.06,0,.36.05.66,0,1,.07,0,.42,1,.69,1.13.42.16,1.34-.64,1.4-.62,0-.15.2-.35.34-.8s.11-.89.24-1.31c.21-.86.63-1.49.86-2.34l.44-2.55a154.86,154.86,0,0,0,4-16.43l.14-2a7.42,7.42,0,0,1,.26-2.5l.19-.52.47.4c.57.49,1.17,1.11,1.79,1.65s1.22.9,1.87,1.44l1.78,1.45c.27.23.54.54.82.77s.79.53,1.18.85l1.16.93c.22.18.65.64.87.82,1.3,1,2.45,1.82,3.78,2.87,0,0,.51.43,1.27,1,.25.2.58.5.87.74s.66.48,1,.76l.28.21c.18.14.35.36.52.51s.44.26.65.43c.58.46,1.15,1.07,1.64,1.47.33.27.6.33.86.53.47.38.78.62.81.66a5,5,0,0,0,.78,0,1.34,1.34,0,0,0,.59-.24A2.28,2.28,0,0,0,51.42,49c0-.23-.29-.57-.25-.62-.29-.28-.51-.57-.84-.88s-.95-.69-1.35-1c-.91-.77-1.83-1.6-2.88-2.42-.37-.3-1-.62-1.34-.92-1-.73-1.82-1.47-2.81-2.2S40,39.38,39,38.68c-1.42-1-2.74-1.87-3.87-2.68-.38-.27-.67-.53-1-.76-.59-.39-1.26-.74-1.83-1.13-.16-.1-.23-.21-.37-.31a4.23,4.23,0,0,1-.42-.25,19.07,19.07,0,0,1-1.57-1.25c-.21-.19-.43-.34-.65-.57s-.6-.68-.9-1l-.67-1.28L27,28.18c.35-.14.7-.29,1.07-.42A17.66,17.66,0,0,0,29.92,27c.72-.35,1.58-.6,2.28-1s1.26-.87,1.95-1.32c.89-.56,1.81-1.18,2.73-1.86.63-.49,1.35-.88,2.21-1.64.69-.62,1.5-1.54,2.19-2.25a28.36,28.36,0,0,0,2-2.33c.22-.25.61-.54.83-.8a37.85,37.85,0,0,0,3.81-5.29A18.86,18.86,0,0,0,49.59,7a8.32,8.32,0,0,0,.4-3.6A8.82,8.82,0,0,0,49.53,2a5.39,5.39,0,0,0-2.19.32C45.58,3.08,44.75,5,44.1,6.89c-.19.59-.53,1.23-.75,1.85a10.35,10.35,0,0,1-1.12,2.58,18.53,18.53,0,0,1-1.38,1.45A25.25,25.25,0,0,1,37.75,16c-.49.42-.87.94-1.39,1.34s-1.38.88-2,1.38c-1,.74-1.93,1.48-2.79,2.16a32.68,32.68,0,0,1-3.71,2.39c-.74.44-1.41.82-2.14,1.21,0-.25-.1-.58-.09-.55a14.85,14.85,0,0,0-.77-2.2c-.16-.35-.28-.73-.42-1s-.43-.77-.51-1a.93.93,0,0,0-.75-.64,1.79,1.79,0,0,0-.58.21c-.11.07-.16.2-.24.27a4.37,4.37,0,0,0,.13.8c.07.32.11.61.17.87a11.76,11.76,0,0,0,.26,1.42l.26,1.45s.42,1.31.47,1.43c-.48.22-1,.44-1.55.67s-1.24.43-1.73.63c-.75.32-1.8.84-3.15,1.35-.65.24-1.49.43-2.16.69-.85.35-1.68.58-2.4.94-.41.19-.79.5-1.12.69a6.51,6.51,0,0,0-1.3.84c-.42.46-.24.93.46,1.27.46.23,1.65-.15,1.65-.15l2.62-.7c.88-.23,1.79-.38,2.65-.6s1.47-.46,2.2-.67C21.49,30,23.1,29.54,24.7,29Z" transform="translate(-10.01 -2)"/></svg>