<svg id="Layer_1" data-name="Layer 1" xmlns="http://www.w3.org/2000/svg" viewBox="0 0 60 31.35"><defs><style>.cls-1{fill:#cb007b;}.cls-2{fill:#a8ad00;}.cls-3{fill:#6f7271;}</style></defs><path class="cls-1" d="M49.18,34.46a8.11,8.11,0,0,0,1.68-1.1c1.11-1,2.35-2.13,3.48-3.16.74-.67,1.28-1.36,1.95-2.05.82-.86,1.78-1.72,2.57-2.65a9.33,9.33,0,0,0,1.59-4c.18-.89.42-2.48-.1-3.28-.41-.62-2.73-1.14-2.94-.2a8.87,8.87,0,0,0-4.66,1.59,12,12,0,0,0-2.08,2,9.91,9.91,0,0,0-.9,1c-.2.3-.54.54-.71.83s-.15.61-.33.88-.36.39-.47.63a9.4,9.4,0,0,1-.78,1.51,18.48,18.48,0,0,1-2.2,2.13A6.06,6.06,0,0,0,44.39,30c-.51.85-1.11,1.55-1.67,2.34a2.59,2.59,0,0,0-.31,1,16.44,16.44,0,0,1-1.77,3.17c0,.19-.47.86-.49,1.11A5,5,0,0,0,41,39h0l1.38-.43,2.39-.92,3.43-2.09.43-.24C48.52,35.2,48.51,35.05,49.18,34.46Z" transform="translate(-2.38 -16.32)"/><path class="cls-2" d="M35.57,34.17c-.16-.19-.37-.25-.53-.4a2.42,2.42,0,0,1-.64-1.06,7.22,7.22,0,0,0-1.84-2.44c-.49-.5-.82-1.16-1.29-1.68-.78-.87-2.05-1.23-3-1.89a6.24,6.24,0,0,1-.85-.78,18.16,18.16,0,0,0-2.76-1.68,11.23,11.23,0,0,0-2.7-1.5c-.71-.19-1.48-.1-2.2-.23-1.21-.22-2.37-.63-3.55-.84-1.45-.24-2.91-.53-4.35-.65a39.92,39.92,0,0,0-4.24-.53,3.73,3.73,0,0,0-2.11.31,3.48,3.48,0,0,0-.89,2.1,13.92,13.92,0,0,0,.31,5.43,5.67,5.67,0,0,0,.41,1c.58.82,1,1.86,1.63,2.61a18.06,18.06,0,0,1,1.81,2.39,11.17,11.17,0,0,0,2.14,2.41c.62.42,1.86.74,2.48,1.19.26.2.3.1.56.33a5.65,5.65,0,0,0,1.9,1.06C17.92,40.14,20,41,22,41.92a9.66,9.66,0,0,0,6.36.71c1.37-.34,2.76-.6,4.09-.94a10,10,0,0,0,2.95-1.56,5,5,0,0,0,1.65-1.78,3.69,3.69,0,0,0,.37-.92l-.07-.06C36.71,36.37,36.39,35,35.57,34.17Z" transform="translate(-2.38 -16.32)"/><path class="cls-3" d="M61.63,17.49a2.58,2.58,0,0,0-2.25-1,10.7,10.7,0,0,0-1.75-.15c-.52.05-1.87.37-2.38.49-1.17.3-1.75,1-2.81,1.48a10.73,10.73,0,0,0-2.7,2,31.29,31.29,0,0,0-2.61,3c-1,1-1.36,2.1-2.32,3a13.25,13.25,0,0,0-2.38,3.08,17.91,17.91,0,0,1-1.29,1.88c-.29.4-.43.89-.77,1.34a15.17,15.17,0,0,1-1.51,2.27c-.2.24-1.1-1.71-1.1-1.71a23.43,23.43,0,0,0-1.45-2,7,7,0,0,0-1-1.28c-1.57-1.3-2.56-2.66-4.35-3.77-.78-.47-1.13-.91-2.55-2a22.51,22.51,0,0,0-2.78-2A15.39,15.39,0,0,1,23.34,21a3.32,3.32,0,0,0-1.11-.81c-3.38-1.43-6-2.84-9.65-3.38a18,18,0,0,0-3.46-.5c-.42,0-1.84.1-2.21.16a8.58,8.58,0,0,0-2.24.76C3.37,18,2.86,19.29,2.48,21a12,12,0,0,0-.06,2.55,14,14,0,0,0,0,2.14c.06,0,.12,1.41.16,1.37a3,3,0,0,0,.23,1.11c.13.47.34.87.45,1.37.16.67.6,1,.85,1.64s.42.5.61,1.06a13.54,13.54,0,0,0,2,3A16.1,16.1,0,0,0,8.51,37.1a10.52,10.52,0,0,0,1.25,1.15c.4.3.85.45,1.27.82a40.36,40.36,0,0,0,3.54,2.85,34.35,34.35,0,0,0,4.4,1.4c1.18.32,2.34.57,3.58.8s2.44.22,3.78.37a12.29,12.29,0,0,0,2.26-.06c.54,0,1.06-.12,1.58-.19a7.82,7.82,0,0,0,2.31-.57c.65-.31,1.3-.65,2-1a9.49,9.49,0,0,0,1.78-1.14c.38-.34.63-.8,1-1.13a2.43,2.43,0,0,0,.84-1c.9.33.83,1.45,1,1.92a2.73,2.73,0,0,1,.34,1.26c0,.45.18.85.19,1.26a9.05,9.05,0,0,1-.21,2.43c-.06.26-.32.83-.16,1.12.31.61.93-.16,1.09-.41.6-.87,1.1-1.23,1.23-2.32,0-.34.34-.89.25-1.28s0-1,0-1.4l-.1-.7a10.49,10.49,0,0,0-.35-1.67A1.76,1.76,0,0,0,41,39a5,5,0,0,1-.8-1.4c0-.25.46-.92.49-1.11a16.44,16.44,0,0,0,1.77-3.17,2.59,2.59,0,0,1,.31-1c.56-.79,1.16-1.49,1.67-2.34a6.06,6.06,0,0,1,.89-1.31,18.48,18.48,0,0,0,2.2-2.13A9.4,9.4,0,0,0,48.26,25c.11-.24.33-.39.47-.63s.18-.63.33-.88.51-.53.71-.83a9.91,9.91,0,0,1,.9-1,12,12,0,0,1,2.08-2,8.87,8.87,0,0,1,4.66-1.59c.21-.94,2.53-.42,2.94.2.52.8.28,2.39.1,3.28a9.33,9.33,0,0,1-1.59,4c-.79.93-1.75,1.79-2.57,2.65-.67.69-1.21,1.38-1.95,2.05-1.13,1-2.37,2.12-3.48,3.16a8.11,8.11,0,0,1-1.68,1.1c-.67.59-.66.74-.58.8s.07,0,.07.05A5.17,5.17,0,0,0,50,34.67c.41-.25,1.25-.7,1.64-1,1.07-.79,2.13-1.77,3.19-2.56.5-.38,1.05-.93,1.53-1.33s1.3-.91,1.85-1.43a19.33,19.33,0,0,0,2.51-2.69A23.85,23.85,0,0,0,61.93,23a8.24,8.24,0,0,0,.44-2.86A3.33,3.33,0,0,0,61.63,17.49ZM37.06,38.35a5,5,0,0,1-1.65,1.78,10,10,0,0,1-2.95,1.56c-1.33.34-2.72.6-4.09.94A9.66,9.66,0,0,1,22,41.92c-2-.94-4.09-1.78-6.14-2.61A5.65,5.65,0,0,1,14,38.25c-.26-.23-.3-.13-.56-.33-.62-.45-1.86-.77-2.48-1.19a11.17,11.17,0,0,1-2.14-2.41A18.06,18.06,0,0,0,7,31.93c-.62-.75-1.05-1.79-1.63-2.61a5.67,5.67,0,0,1-.41-1,13.92,13.92,0,0,1-.31-5.43,3.48,3.48,0,0,1,.89-2.1,3.73,3.73,0,0,1,2.11-.31,39.92,39.92,0,0,1,4.24.53c1.44.12,2.9.41,4.35.65,1.18.21,2.34.62,3.55.84.72.13,1.49,0,2.2.23a11.23,11.23,0,0,1,2.7,1.5,18.16,18.16,0,0,1,2.76,1.68,6.24,6.24,0,0,0,.85.78c.94.66,2.21,1,3,1.89.47.52.8,1.18,1.29,1.68a7.22,7.22,0,0,1,1.84,2.44A2.42,2.42,0,0,0,35,33.77c.16.15.37.21.53.4.82.87,1.14,2.2,1.79,3.2l.07.06A3.69,3.69,0,0,1,37.06,38.35Z" transform="translate(-2.38 -16.32)"/></svg>