<svg id="Layer_1" data-name="Layer 1" xmlns="http://www.w3.org/2000/svg" viewBox="0 0 51.69 60"><defs><style>.cls-1{fill:#f3c300;}.cls-2{fill:#6f7271;}</style></defs><path class="cls-1" d="M34.27,43l-.66,0c-.12,0-.77-.27-.77-.27l-.17-.17a.56.56,0,0,1-.18-.94l.79-.79a2.51,2.51,0,0,1,.68-.54l.68-.36c.41-.22.86-.41,1.34-.64a7.11,7.11,0,0,0,.73-.32.59.59,0,0,0,.22-.12c0-.07-.06-.16-.11-.24-1-2-2.07-4.22-3.2-6.19-.2-.31-.37-.65-.57-1l-.29.18-2.1,1.33-1.18.84-.35.14h-.68a2.38,2.38,0,0,1-.85-.16c-.44-.06-.58-.64-.58-.64l-.09-.27.09-.27.23-.33.41-.61.89-.86c.93-.6,1.79-1.51,2.7-2.13l.14-.12A32.43,32.43,0,0,0,25.81,21c-.15.18-.29.34-.43.53-.88,1.33-2.23,2.41-3.1,3.75l-1,.55c-.52.28-.8,0-.8,0a1,1,0,0,1-.55-.46l-.16-.28a.77.77,0,0,1-.18-.75l.08-.64.44-.89a6.49,6.49,0,0,0,.93-1.39l.6-.76c.46-.58.95-1.17,1.4-1.75a20.26,20.26,0,0,0-5.61-2.08,4.5,4.5,0,0,0-2.83.55,20.89,20.89,0,0,0-.81,2.66,22.83,22.83,0,0,0-.53,2.72,4.27,4.27,0,0,1-.25.94c-.13.94-.23,1.78-.44,2.75-.15.73-.36,1.54-.5,2.18s-.29,1.34-.46,2a34.06,34.06,0,0,0-.85,4.72c-.08.67-.11,1.61-.16,2.25A22,22,0,0,0,10.36,40c.08,1.46-.29,2.72-.2,4.14a5.47,5.47,0,0,0,1.45,3.84,11.16,11.16,0,0,0,1.85,1.22,23,23,0,0,0,2.84.92,7.91,7.91,0,0,0,2.64.41,18.89,18.89,0,0,0,3.68-1.09c2.89-.84,5.83.45,8.51.89.52.09,1.06.21,1.58.34a5.93,5.93,0,0,0,2-1c1.07-1,2.84-2.91,3.06-4.25a12.23,12.23,0,0,0-.08-4c-.84.45-1.6.91-2.54,1.45A3,3,0,0,1,34.27,43Z" transform="translate(-6.53 -2.06)"/><path class="cls-2" d="M57.85,13.62a2.22,2.22,0,0,0-.38-1.2,6.91,6.91,0,0,0-1.33-.83,2.85,2.85,0,0,0-2.76.57l-.61.44c-.1.06-.15.15-.26.21s-.41.24-.64.39-.55.53-.87.77c-.75.6-1.8,1.34-2.51,2a11.58,11.58,0,0,1-2.7,2.13,5.69,5.69,0,0,0-1.11.91,6.93,6.93,0,0,1-1,.59,25,25,0,0,0-3.16,1.91c-.7.54-1.93,1.36-2.74,2.1a9.29,9.29,0,0,1-1.09,1c-.36.25-.8.57-1.15.84s-.76.48-1.13.82-.77.48-1.11.8a15.09,15.09,0,0,1-1.91,1.43l-.14.12c-.91.62-1.77,1.53-2.7,2.13l-.89.86-.41.61-.23.33-.09.27.09.27s.14.58.58.64a2.38,2.38,0,0,0,.85.16h.68l.35-.14,1.18-.84,2.1-1.33.29-.18,2.75-1.68c1.67-.94,2.7-2,4.2-2.78l.29-.21,1.11-.49A22.77,22.77,0,0,0,45,24.13c1.11-.77,2.38-1.65,3.57-2.38a12.74,12.74,0,0,0,1.88-1.16,1,1,0,0,1,.28-.23l4.18-2.55,2-1.64.57-.42C58.07,15.16,58,14.48,57.85,13.62Z" transform="translate(-6.53 -2.06)"/><path class="cls-2" d="M37.79,2.73a2.17,2.17,0,0,0-.91-.63c-.74-.2-1.36.32-1.9.65a4.74,4.74,0,0,0-1.44,1c-.21.3-.33.67-.57,1s-.37.54-.59.82-.36.58-.57.88a8.93,8.93,0,0,1-.6.91,5.05,5.05,0,0,0-.94,1.32,4.94,4.94,0,0,1-.78,1c-.86,1-1.36,2-2.19,3.14a8.32,8.32,0,0,0-1,1.42,8.7,8.7,0,0,1-.63,1.06,5.49,5.49,0,0,1-.91,1.18,6.61,6.61,0,0,0-.88,1.26c-.31.47-.48.71-.76,1.08,0,0-.06.08-.06.09-.45.58-.94,1.17-1.4,1.75l-.6.76a6.49,6.49,0,0,1-.93,1.39l-.44.89-.08.64a.77.77,0,0,0,.18.75l.16.28a1,1,0,0,0,.55.46s.28.27.8,0l1-.55c.87-1.34,2.22-2.42,3.1-3.75.14-.19.28-.35.43-.53A32.59,32.59,0,0,0,28,18.16a15.94,15.94,0,0,1,1.14-1.64c.9-1.18,1.79-2.29,2.78-3.36A23.5,23.5,0,0,0,34.5,9.91c.57-.85,1.51-1.46,2.11-2.27a5.19,5.19,0,0,0,1-1.72,5.9,5.9,0,0,0,.47-2.32A1.27,1.27,0,0,0,37.79,2.73Z" transform="translate(-6.53 -2.06)"/><path class="cls-2" d="M58,29.4a1.12,1.12,0,0,0-1.19-.7A6.92,6.92,0,0,0,55.4,29a8.79,8.79,0,0,0-1.35.59c-.39.16-.69.42-1.07.6a17.48,17.48,0,0,0-2.37,1.33,24.82,24.82,0,0,1-4.13,2.22A33.62,33.62,0,0,0,43,35.87a7.7,7.7,0,0,1-1.21.7c-2.18.93-2.39,1.22-3.59,1.71-.51.23-.81.34-1.23.53a.59.59,0,0,1-.22.12,7.11,7.11,0,0,1-.73.32c-.48.23-.93.42-1.34.64l-.68.36a2.51,2.51,0,0,0-.68.54l-.79.79a.56.56,0,0,0,.18.94l.17.17s.65.24.77.27l.66,0a3,3,0,0,0,.9-.18c.94-.54,1.7-1,2.54-1.45a20.75,20.75,0,0,1,2.11-.94c1.15-.43,2.4-.84,3.54-1.36a54.87,54.87,0,0,1,5.82-2.73,21.36,21.36,0,0,0,3.58-1.56,18.56,18.56,0,0,1,3.13-1.37,3.11,3.11,0,0,0,1.2-.71,4.89,4.89,0,0,0,1-1.11A3.33,3.33,0,0,0,58,29.4Z" transform="translate(-6.53 -2.06)"/><path class="cls-2" d="M44.15,54.75c-1.64-.79-3.79-1.32-5.43-2a41.74,41.74,0,0,0-6-2.08c-.52-.13-1.06-.25-1.58-.34-2.68-.44-5.62-1.73-8.51-.89a18.89,18.89,0,0,1-3.68,1.09,7.91,7.91,0,0,1-2.64-.41,23,23,0,0,1-2.84-.92,11.16,11.16,0,0,1-1.85-1.22,5.47,5.47,0,0,1-1.45-3.84c-.09-1.42.28-2.68.2-4.14a22,22,0,0,1,.26-2.31c.05-.64.08-1.58.16-2.25a34.06,34.06,0,0,1,.85-4.72c.17-.69.28-1.34.46-2s.35-1.45.5-2.18c.21-1,.31-1.81.44-2.75a4.27,4.27,0,0,0,.25-.94,22.83,22.83,0,0,1,.53-2.72,20.89,20.89,0,0,1,.81-2.66c.15-.39.32-.77.49-1.14.77-1.55,1.27-3.42,2.12-5a10.8,10.8,0,0,0,.6-1.09c.13-.23.29-.55.29-.55l.67-1c.47-.77.4-.49.68-1a.85.85,0,0,0,.3-.44,1.55,1.55,0,0,0,.31-.63,2.41,2.41,0,0,0-.26-1.61c-.34-.55-.85-1.32-1.65-1.37a3.76,3.76,0,0,0-2,.76,2.66,2.66,0,0,0-.77.76,8.57,8.57,0,0,0-1.75,3.08c-.39,1.41-1,2.76-1.29,4.19s-1,2.36-1.44,3.78a22.38,22.38,0,0,0-.69,2.29A15.71,15.71,0,0,0,10,20.72c-.16.88-.55,2.91-.68,3.59a35.86,35.86,0,0,1-1,5.18c-.83,2.74-1.87,5.8-1.77,8.79.11,2.8-.14,6.09.7,8.72A7.28,7.28,0,0,0,8,48.62a7.06,7.06,0,0,0,.4.65,5.54,5.54,0,0,0,.79.93c.27.25.47.43.69.67A6.76,6.76,0,0,0,11.56,52a7.5,7.5,0,0,0,1.64,1,7.75,7.75,0,0,0,1.75.5,8,8,0,0,0,2.19,0,16.89,16.89,0,0,1,2.84-.3c.74,0,1.39.07,2.16,0,1.58-.13,3.1-.9,4.66-.74,1.77.16,3.25,1,5,1.64a16.7,16.7,0,0,1,3,1.14c.78.48,1.51,1,2.2,1.45a29.33,29.33,0,0,0,4.31,2.46c.89.4,1.46.84,2.08,1.16a35.4,35.4,0,0,0,3.68,1.27c.7.23,1.55.65,2.15.23a2,2,0,0,0,.66-1.51C50.49,57.12,46.69,56,44.15,54.75Z" transform="translate(-6.53 -2.06)"/></svg>