<svg id="Layer_1" data-name="Layer 1" xmlns="http://www.w3.org/2000/svg" viewBox="0 0 60 62.52"><defs><style>.cls-1{fill:#f18a00;}.cls-2{fill:#6f7271;}</style></defs><path class="cls-1" d="M21.71,14.43A11.73,11.73,0,0,1,27,14.9l3.87,1.46a9.08,9.08,0,0,1,3.87,1.77l2.2,1.81a37.68,37.68,0,0,1,4.28,3.75,8.52,8.52,0,0,1,1.27,2.09L43,26.86a17.54,17.54,0,0,1,1.63,6,6.38,6.38,0,0,1-.49,3.87l-.65,1.93a19.06,19.06,0,0,1-1.65,4,22.39,22.39,0,0,1-3.78,4.43,10.68,10.68,0,0,1-2.74,1.65l-2,1.08-.8.56-1.66,1-.23.08,2.17.12,1.13.18a9,9,0,0,0,2.86.21,11.24,11.24,0,0,0,2.78-.84L42,50.43l2.92-.6a8,8,0,0,0,4.8-3.27l.66-1A15.6,15.6,0,0,0,53,40l.85-4.12.11-3V30.15a16,16,0,0,0-.27-4.29l-.19-.74a17.31,17.31,0,0,0-2.31-6.33,39,39,0,0,0-5-5.83,35.82,35.82,0,0,0-4.88-1.85c-14.38-1.92-23,1.62-27.45,8A15.25,15.25,0,0,1,21.71,14.43Z" transform="translate(-2.38 -0.64)"/><path class="cls-1" d="M58.74,29.27,59,30.49l.18,1S59,34.29,59,34.38a12.44,12.44,0,0,1-1.44,3.68l-.78,1.6a11.78,11.78,0,0,1-2.1,3l-1.29,1.52-1.6,1.57-.82.69-1.11,1.12-1.6,1.54-1,.57-1.65,1.09a9.74,9.74,0,0,1-3.77,2l-.41.16A37.19,37.19,0,0,1,31.77,55a50.73,50.73,0,0,1-14.2-1.14,10.33,10.33,0,0,1-1.74-.54A20.46,20.46,0,0,0,29.51,63.1C48.85,64.23,61.9,48.38,62.38,33.37a22.64,22.64,0,0,0-4.57-11.51,13,13,0,0,1,.86,3.51Z" transform="translate(-2.38 -0.64)"/><path class="cls-1" d="M31.13,46.64c2.44-1,4.95-2.07,6.62-4.27l1.18-1.32A8.89,8.89,0,0,0,41,38.29a6.22,6.22,0,0,0,0-2.75l-.09-.74a25.37,25.37,0,0,0-1.69-7.67,14.35,14.35,0,0,0-2.81-4.26s-2.12-2.4-2.12-2.4-.37-.34-.37-.34c-1.51-1.26-3.38-2.85-5.4-2.77l-4.07.34c-1.84.28-3.4,1.54-4.95,2.77l-1.4,1.09a13.16,13.16,0,0,0-3.44,3.49L12.9,28c-1.35,2-1.74,4.51-2,6.76A8.58,8.58,0,0,0,12.59,41l.76,1a11.42,11.42,0,0,0,2.51,2.67l2.26.93L21,47.19c3.25,1.74,6.31,1.09,9.89-.43Z" transform="translate(-2.38 -0.64)"/><path class="cls-2" d="M24.23,1.1,19.48,2.55l-3,1.52a14.27,14.27,0,0,0-4.7,3.32L10.32,9.78s-1.31,1.83-1.43,2l-.75,1.41-1,1a23.78,23.78,0,0,0-3.83,9l-.67,3.23-.06,3a21,21,0,0,0,0,5.68l.24,1.66.49,2.84,1.48,4.16A7.67,7.67,0,0,0,6.7,47l1,1.21a4.24,4.24,0,0,0,1.64,1.64l3,1.69a26.39,26.39,0,0,0,3.48,1.85,10.33,10.33,0,0,0,1.74.54A50.73,50.73,0,0,0,31.77,55a37.19,37.19,0,0,0,9.67-2.15l.41-.16a9.74,9.74,0,0,0,3.77-2l1.65-1.09,1-.57,1.6-1.54,1.11-1.12.82-.69,1.6-1.57,1.29-1.52a11.78,11.78,0,0,0,2.1-3l.78-1.6A12.44,12.44,0,0,0,59,34.38c0-.09.16-2.87.16-2.87l-.18-1-.21-1.22-.07-3.9a13,13,0,0,0-.86-3.51c-.52-1.36-2-4.39-2-4.39a20.77,20.77,0,0,0-2.2-3.32l-1.86-2.46a48.61,48.61,0,0,0-5-6.1,7.49,7.49,0,0,0-3.36-1.51L37.49,2.19A22.49,22.49,0,0,0,29.18.66ZM21,47.19l-2.86-1.64-2.26-.93A11.42,11.42,0,0,1,13.35,42l-.76-1a8.58,8.58,0,0,1-1.68-6.19c.25-2.25.64-4.79,2-6.76l1.76-3a13.16,13.16,0,0,1,3.44-3.49l1.4-1.09c1.55-1.23,3.11-2.49,4.95-2.77l4.07-.34c2-.08,3.89,1.51,5.4,2.77,0,0,.31.27.37.34s2.09,2.39,2.12,2.4a14.35,14.35,0,0,1,2.81,4.26,25.37,25.37,0,0,1,1.69,7.67l.09.74a6.22,6.22,0,0,1,0,2.75,8.89,8.89,0,0,1-2.07,2.76l-1.18,1.32c-1.67,2.2-4.18,3.26-6.62,4.27l-.26.12C27.29,48.28,24.23,48.93,21,47.19Zm33-17V32.9l-.11,3L53,40a15.6,15.6,0,0,1-2.71,5.55l-.66,1a8,8,0,0,1-4.8,3.27l-2.92.6-2.39.78a11.24,11.24,0,0,1-2.78.84,9,9,0,0,1-2.86-.21l-1.13-.18-2.17-.12.23-.08,1.66-1,.8-.56,2-1.08a10.68,10.68,0,0,0,2.74-1.65,22.39,22.39,0,0,0,3.78-4.43,19.06,19.06,0,0,0,1.65-4l.65-1.93a6.38,6.38,0,0,0,.49-3.87,17.54,17.54,0,0,0-1.63-6l-.55-1.08a8.52,8.52,0,0,0-1.27-2.09,37.68,37.68,0,0,0-4.28-3.75l-2.2-1.81a9.08,9.08,0,0,0-3.87-1.77L27,14.9a11.73,11.73,0,0,0-5.29-.47,15.25,15.25,0,0,0-7.86,4.64,15.85,15.85,0,0,0-2.95,4.22C9.57,26.12,8.18,29.47,8.63,33l.08,1a9.68,9.68,0,0,0,.82,3.8,10.37,10.37,0,0,1,.79,2.73,13.65,13.65,0,0,0,1.8,4.62l-1.38-1.24-2.3-2.15a10.23,10.23,0,0,1-2.2-4L4.93,35.4l-.35-.5a5.32,5.32,0,0,1-.46-2.84V28.93a21,21,0,0,1,2-5.67l.69-1.6a13.5,13.5,0,0,1,2-3.14l2.48-2.95.83-1.34,1.06-1.61a16.57,16.57,0,0,1,2.57-2.14l1.09-.8,3.41-2.35A16,16,0,0,1,27.2,5l3.86,0a37.29,37.29,0,0,1,6.59,1.88l1.76,1.09,1.12.73A32.64,32.64,0,0,1,46.18,13a39,39,0,0,1,5,5.83,17.31,17.31,0,0,1,2.31,6.33l.19.74A16,16,0,0,1,54,30.15Z" transform="translate(-2.38 -0.64)"/></svg>