<svg id="Layer_1" data-name="Layer 1" xmlns="http://www.w3.org/2000/svg" viewBox="0 0 60 50.47"><defs><style>.cls-1{fill:#cf3339;}.cls-2{fill:#a8ad00;}.cls-3{fill:#f3c300;}.cls-4{fill:#6f7271;}</style></defs><path class="cls-1" d="M54.8,30.55H54a14.2,14.2,0,0,0-3.21.53,11.2,11.2,0,0,1-2,.27,12.09,12.09,0,0,0-1.45.15l-1,.2a10.53,10.53,0,0,1-1.7.3l-1.77.11a27.08,27.08,0,0,0-6.05.8,29.78,29.78,0,0,0-3.49,1.31l-.39.16v.15a1.64,1.64,0,0,0,.44.18,21,21,0,0,0,3.38,1A47.33,47.33,0,0,1,43,37.59a21.29,21.29,0,0,0,2.3.84c1.48.33,1.16.38,2.63.72.92.19.82.55,1.77.68.55.1,1,.19,1.59.33.27,0,.58.22.78.25a.78.78,0,0,0,1-.52c0-.14.19-.34.26-.46a4.67,4.67,0,0,0,.45-1.34,14.05,14.05,0,0,0,.58-1.39c.5-2.52,1.67-3.89,2.15-5.34,0-.06.16-.83.25-1l-.55.15A4.55,4.55,0,0,1,54.8,30.55Z" transform="translate(-2.36 -6.82)"/><path class="cls-2" d="M29.65,37.52c-.17-.48-.41-1.11-.54-1.48a10.87,10.87,0,0,0-3,1.37l-.4.26c-1,.7-1.92,1.39-3,2l-.84.45S21,41,21,41l-1.41,1.58c-.41.5-.34.16-.74.67l-2.13,1.76L14.88,46.4s-.53.6-1.14,1.16a8.68,8.68,0,0,1-1,.81.6.6,0,0,0-.19.39.36.36,0,0,0,.12.27l1,.68a4.94,4.94,0,0,1,1.71,1.06l3.29,1.35,2.1,1.24,1.14.76,1.72.81.43.29,1.11.54a.41.41,0,0,0,.33.11c.31-.13.56-1.07.62-1.64a6.63,6.63,0,0,1,.58-2.45,6.27,6.27,0,0,0,.6-2.22l.51-1.64a14.55,14.55,0,0,0,1-4.06l.26-1.63s.54-2.89.73-3.8a2.53,2.53,0,0,0-.07-.36A3,3,0,0,0,29.65,37.52Z" transform="translate(-2.36 -6.82)"/><path class="cls-3" d="M39.2,10.33a13.83,13.83,0,0,1-2,5.72A18.06,18.06,0,0,0,35.7,19.6l-.54,1.69-.62,2.1-.21.87-.23,1-.32,1.27-.2.82-.24,1L33,29.68a3.62,3.62,0,0,1-.17.56,4.76,4.76,0,0,1,.65.21l.19,0A12.57,12.57,0,0,1,35,30.33,8.46,8.46,0,0,1,36,30c1.48-.44,1.35-.88,2.62-1.84.68-.51,2.19-1.13,2.86-1.61.87-.63,2.35-1.48,3.22-2l2.47-1.63c.19-.07.56-.24.94-.41,0,0,.79-.35.1-1.47-.72-.94-1.72-2.15-2.09-2.66a15.42,15.42,0,0,0-1.41-2c-.47-.53-.86-1.65-1.4-2.13S41.48,10.9,41,10.5c-1-.78-1.38-2.24-2.35-2.89l0,0a3.5,3.5,0,0,1,.58,2.12Z" transform="translate(-2.36 -6.82)"/><path class="cls-4" d="M62.33,28.59c-.45-2-4.65-1.47-5.13-1.41h0a6.83,6.83,0,0,0-1.18.25,5.54,5.54,0,0,1-1.65.27c-.74.07-1.52.15-2.26.27l-1.67.21a17.83,17.83,0,0,0-2.86.49,16.28,16.28,0,0,1-3.33.72c-.67.05-1.25,0-1.82,0a8.31,8.31,0,0,0-3,.29,13.46,13.46,0,0,1-1.85.38l-.84.13a14.54,14.54,0,0,1-1.74.12,12.57,12.57,0,0,0-1.35.09l-.19,0a4.76,4.76,0,0,0-.65-.21,3.62,3.62,0,0,0,.17-.56l.37-1.37.24-1,.2-.82.32-1.27.23-1,.21-.87.62-2.1.54-1.69a18.06,18.06,0,0,1,1.55-3.55,13.83,13.83,0,0,0,2-5.72V9.75a3.34,3.34,0,0,0-.59-2.1,1.64,1.64,0,0,0-1-.65l-.45-.18-.42,0a2,2,0,0,0-1.61.68,3.19,3.19,0,0,0-.42,1.16l-.33,1.12-.27.86-.21.93a9.84,9.84,0,0,1-.74,2.26c-.14.33-.32.68-.47,1.09a7.11,7.11,0,0,0-.24,1,6.47,6.47,0,0,1-.36,1.22,7.34,7.34,0,0,0-.53,2.15,9.21,9.21,0,0,1-.31,1.6l-.56,1.9-.35,1.28a31.07,31.07,0,0,0-1.09,4.54,8.2,8.2,0,0,1-1.55-1.21S25.08,24.79,24.46,24a14.2,14.2,0,0,0-2-2c-.41-.37-.83-.72-1.22-1.12a26.84,26.84,0,0,1-2.44-2.67s-1.3-1.68-1.73-2.3-.72-1-1.19-1.57a2.18,2.18,0,0,0-.82-.7l-.43-.28-.53-.12a2.14,2.14,0,0,0-.72.47,1.35,1.35,0,0,0-.19.75,1.39,1.39,0,0,0,.05.46A2,2,0,0,0,14,16.05l.33.32a7.41,7.41,0,0,1,1.06,1.93,9.22,9.22,0,0,0,1,1.84,25.28,25.28,0,0,0,2.23,3l.72.77A11,11,0,0,1,20,25.15,6.83,6.83,0,0,0,21.31,27c.28.27.67.79,1,1.2,0,0,1.91,2.42,2.42,3.28a11.76,11.76,0,0,0,.71,1.05,21.62,21.62,0,0,0-2.55,1s-3.29,1.75-4.16,2.11a18.81,18.81,0,0,1-1.91.67,21.18,21.18,0,0,0-2.11.77,12.44,12.44,0,0,0-1.94,1.16l-1.09.72c-.63.36-3,1.49-3.57,1.78L5.72,42.1c-1.77,1-3,1.68-3.3,3.52a4.06,4.06,0,0,0-.06.67,2.59,2.59,0,0,0,1.76,2.5c1.75.82,2.43.54,4.26-.23l.73-.44a11.83,11.83,0,0,1,1.66-1.2l.7-.41s2-1.43,2.55-1.71L15.54,44c.61-.3,1.23-.6,1.82-.92A11.83,11.83,0,0,0,18.91,42l.42-.34a11.15,11.15,0,0,1,2.11-1.27l.46-.24.84-.45c1.08-.63,2-1.32,3-2l.4-.26a10.87,10.87,0,0,1,3-1.37c.13.37.37,1,.54,1.48a3,3,0,0,1,.08.55,2.53,2.53,0,0,1,.07.36,8,8,0,0,0,.26,1l.19.76A9.72,9.72,0,0,0,31,42.05a6.77,6.77,0,0,1,.76,2.09A23.59,23.59,0,0,0,34.1,50.3c.91,1.86,1.36,3,1.36,3C36,54.47,36.9,56.73,38,57.18c.53.2.8.08.94,0a.88.88,0,0,0,.22-.63,2,2,0,0,0-.18-.78l-.33-.86a8.37,8.37,0,0,1-.52-1.28l-.58-1.81A33.6,33.6,0,0,1,36.4,48a7.47,7.47,0,0,0-.34-1.12,5.83,5.83,0,0,1-.36-1.36,17.36,17.36,0,0,0-.55-2.18l-.75-2.82c-.19-.8-.39-1.62-.64-2.46l-.12-.37A11.15,11.15,0,0,1,33,34.56v-.19l.39-.16a29.78,29.78,0,0,1,3.49-1.31,27.08,27.08,0,0,1,6.05-.8L44.65,32a10.53,10.53,0,0,0,1.7-.3l1-.2a12.09,12.09,0,0,1,1.45-.15,11.2,11.2,0,0,0,2-.27A14.2,14.2,0,0,1,54,30.54h.78a4.47,4.47,0,0,0,1.37,0,8.27,8.27,0,0,1,1.48-.32,10.91,10.91,0,0,0,1.52-.07l.46,0c.82,0,2.09-.1,2.55-.71A.9.9,0,0,0,62.33,28.59Z" transform="translate(-2.36 -6.82)"/></svg>