<svg id="Layer_1" data-name="Layer 1" xmlns="http://www.w3.org/2000/svg" viewBox="0 0 100 100"><defs><style>.cls-1{fill:#a8ad00;}</style></defs><path class="cls-1" d="M53.79,67.79a4.35,4.35,0,0,0-2.6.72,4.17,4.17,0,0,0-1.47,2.08,11.07,11.07,0,0,0,0,6.45,4.1,4.1,0,0,0,1.47,2.07,5,5,0,0,0,5.19,0A4.13,4.13,0,0,0,57.83,77a10,10,0,0,0,.46-3.23,8,8,0,0,0-1-4.42A3.81,3.81,0,0,0,53.79,67.79Z" transform="translate(-4.63 -4.63)"/><path class="cls-1" d="M71.47,68h-.15a1.58,1.58,0,0,0-1.58,1.58v3.1c0,.45.36.62.73.62H71A5.64,5.64,0,0,0,72.84,73a2.37,2.37,0,0,0,1.2-.88,2.63,2.63,0,0,0,.43-1.55,2.5,2.5,0,0,0-.73-2A3.4,3.4,0,0,0,71.47,68Z" transform="translate(-4.63 -4.63)"/><path class="cls-1" d="M54.63,4.63a50,50,0,1,0,50,50A50,50,0,0,0,54.63,4.63ZM35.52,41.68l16.8-17.77.36-.31.17-.14a6.2,6.2,0,0,1,.56-.31,3.27,3.27,0,0,1,1.29-.27s.51,0,.67.07l.09,0a4.68,4.68,0,0,1,.53.17,5.45,5.45,0,0,1,.57.32c.06,0,.39.32.49.42l0,0L73.74,41.69A3.27,3.27,0,1,1,69,46.17L58.54,35a.33.33,0,0,0-.57.23V57.48a3.27,3.27,0,0,1-3.59,3.25,3.37,3.37,0,0,1-3-3.39V35.2a.33.33,0,0,0-.57-.23L40.27,46.18a3.23,3.23,0,0,1-2.37,1,3.27,3.27,0,0,1-2.38-5.52Zm6.72,26.38h-1.7A1.57,1.57,0,0,0,39,69.64V81.19a1.57,1.57,0,0,1-1.58,1.57h-.62a1.57,1.57,0,0,1-1.58-1.57V69.64a1.57,1.57,0,0,0-1.57-1.58h-1.7a1.58,1.58,0,1,1,0-3.15H42.24a1.58,1.58,0,1,1,0,3.15Zm19.51,9.52a8,8,0,0,1-1.55,2.91,6.55,6.55,0,0,1-2.65,1.87,11.26,11.26,0,0,1-7.57,0,6.85,6.85,0,0,1-2.65-1.87,7.93,7.93,0,0,1-1.55-2.92,13.07,13.07,0,0,1-.51-3.77A11.79,11.79,0,0,1,46.18,69,6.88,6.88,0,0,1,49,65.78a9.18,9.18,0,0,1,4.81-1.14,9.09,9.09,0,0,1,4.78,1.14A6.8,6.8,0,0,1,61.35,69a11.79,11.79,0,0,1,.92,4.83A12.68,12.68,0,0,1,61.75,77.58Zm16.19-4.85a5,5,0,0,1-1.16,1.9,5.67,5.67,0,0,1-2.14,1.31,9.67,9.67,0,0,1-3.27.47h-.05A1.58,1.58,0,0,0,69.74,78v3.2a1.57,1.57,0,0,1-1.57,1.57h-.63A1.57,1.57,0,0,1,66,81.19V66.49a1.57,1.57,0,0,1,1.57-1.58h4.13c2.3,0,4,.5,5,1.49a5.33,5.33,0,0,1,1.59,4.09A7.24,7.24,0,0,1,77.94,72.73Z" transform="translate(-4.63 -4.63)"/></svg>