<svg id="Layer_2" data-name="Layer 2" xmlns="http://www.w3.org/2000/svg" viewBox="0 0 65 48.56"><defs><style>.cls-1{fill:#fff;}</style></defs><path class="cls-1" d="M714.23-174.54a2.93,2.93,0,0,0-2.3-1.1c-.81,0-1.63,0-2.49,0-6.09-.12-13-.25-20,5.62a19.69,19.69,0,0,0-6,8.6,19.64,19.64,0,0,0-8.8-5.69c-8.73-2.77-15.07,0-20.69,2.41-.75.33-1.5.66-2.26,1a3,3,0,0,0-1.7,1.9,2.88,2.88,0,0,0,.41,2.51c.39.57,9.81,13.87,21.18,13.87a14.61,14.61,0,0,0,5.55-1.1l5-2.05v18.55a3,3,0,0,0,3,2.94A2.94,2.94,0,0,0,688-130.1v-20h6.89c14.82,0,19.69-21.06,19.89-22A3,3,0,0,0,714.23-174.54ZM708-169.81c-1.62,4.63-5.77,13.82-13.08,13.82h-6.78a14.77,14.77,0,0,1,5.06-9.55C697.94-169.51,702.38-169.88,708-169.81Zm-26.83,15.19L674.91-152c-6.77,2.78-14.1-4.16-17.36-7.83,4.23-1.81,9-3.66,15.32-1.66A14.68,14.68,0,0,1,681.17-154.62Z" transform="translate(-649.88 175.71)"/></svg>