<svg id="Layer_2" data-name="Layer 2" xmlns="http://www.w3.org/2000/svg" viewBox="0 0 64 54.69"><defs><style>.cls-1{fill:#fff;}</style></defs><path class="cls-1" d="M420.89-133h-6.84v-26.88h4.82a2.73,2.73,0,0,0,2.64-2,2.73,2.73,0,0,0-1.28-3.07l-27.72-15.82a2.73,2.73,0,0,0-2.71,0l-27.72,15.82a2.73,2.73,0,0,0-1.28,3.07,2.72,2.72,0,0,0,2.63,2h4.83V-133h-4.83a3.28,3.28,0,0,0-3.27,3.27,3.27,3.27,0,0,0,3.27,3.27h57.46a3.26,3.26,0,0,0,3.27-3.27A3.27,3.27,0,0,0,420.89-133Zm-12.29,0h-8v-26.88h8Zm-13.49,0h-8v-26.88h8Zm-4-42.28,17.45,10H373.71Zm-17.44,15.4h7.92V-133h-7.92Z" transform="translate(-360.16 181.11)"/></svg>