<svg id="Layer_2" data-name="Layer 2" xmlns="http://www.w3.org/2000/svg" viewBox="0 0 45.2 55"><defs><style>.cls-1{fill:#fff;}</style></defs><path class="cls-1" d="M639.21-123.66,635.4-147a2.41,2.41,0,0,0-2.4-2h-2a7.14,7.14,0,0,0-2.83-4.55v-11.49a2.42,2.42,0,0,0-2.42-2.42h-5.58v-5.91a2.43,2.43,0,0,0-2.43-2.43h-13a2.43,2.43,0,0,0-2.43,2.43v5.91h-5.83a2.43,2.43,0,0,0-2.43,2.42v36.73a2.43,2.43,0,0,0,2.43,2.43h14.18l-.37,2.26a2.42,2.42,0,0,0,.54,2,2.43,2.43,0,0,0,1.85.85h24.15a2.45,2.45,0,0,0,1.85-.85A2.42,2.42,0,0,0,639.21-123.66Zm-24-47.32v3.48h-8.1V-171ZM622.52-149a2,2,0,0,1,1.67-1,2,2,0,0,1,1.67,1Zm.75-5.78a7,7,0,0,0-5.85,5.78h-.94a2.41,2.41,0,0,0-2.39,2l-2.65,16.23H598.9v-31.87h24.37ZM634-125.69H615.53l3-18.5h12.39Z" transform="translate(-594.04 175.84)"/></svg>