<svg id="Layer_2" data-name="Layer 2" xmlns="http://www.w3.org/2000/svg" viewBox="0 0 42.23 55"><defs><style>.cls-1{fill:#fff;}</style></defs><path class="cls-1" d="M937.89-168l-29.84-15.14-.08,0a3.08,3.08,0,0,0-.56-.2h0a2.88,2.88,0,0,0-.59-.07h-.06l-.19,0a2.43,2.43,0,0,0-.47.08l-.19.06a2.67,2.67,0,0,0-.46.2l-.1.05,0,0a2.8,2.8,0,0,0-.5.41l-.08.09a2.53,2.53,0,0,0-.31.42,1.62,1.62,0,0,0-.1.18,2.11,2.11,0,0,0-.17.44l-.06.17a2.84,2.84,0,0,0-.08.66v46.55H900a2.82,2.82,0,0,0-2.82,2.82,2.81,2.81,0,0,0,2.82,2.81h13.51a2.81,2.81,0,0,0,2.81-2.81,2.81,2.81,0,0,0-2.81-2.82h-3.94v-14.53L937.89-163a2.81,2.81,0,0,0,1.54-2.51A2.81,2.81,0,0,0,937.89-168ZM909.59-155v-21.12l20.81,10.56Z" transform="translate(-897.2 183.49)"/><path class="cls-1" d="M921.69-150.15a9,9,0,0,0-9,9,9,9,0,0,0,9,9,9,9,0,0,0,9-9A9,9,0,0,0,921.69-150.15Zm0,12.32a3.35,3.35,0,0,1-3.34-3.35,3.35,3.35,0,0,1,3.34-3.34,3.35,3.35,0,0,1,3.35,3.34A3.35,3.35,0,0,1,921.69-137.83Z" transform="translate(-897.2 183.49)"/></svg>