<svg id="Layer_2" data-name="Layer 2" xmlns="http://www.w3.org/2000/svg" viewBox="0 0 39.41 55.32"><defs><style>.cls-1{fill:#fff;}</style></defs><path class="cls-1" d="M564-137.91a11.38,11.38,0,0,1-7.21,2.36,11.6,11.6,0,0,1-11.27-11.06A11.5,11.5,0,0,1,557-158.55a11.45,11.45,0,0,1,7.21,2.55,1.62,1.62,0,0,0,2.44-.46l3.12-5.53c.65-1.17.5-1.94,0-2.41s-1.13-1-1.72-1.4l1.57-3.36L568-171.3h-3l-.46,1-3.83-1.8,0,.1.15-2.87-6.29-.32-.25,4.89h-.1c-.5,0-1,0-1.49,0l-1.4-5.55-4.93-3.27-2.49,5.15,1.36,5.4q-.74.31-1.44.66l-2.74-3.31-4.85,4,2.37,2.87A23.22,23.22,0,0,0,531-145.65a23.38,23.38,0,0,0,21.4,21.81,23.21,23.21,0,0,0,17.55-6,1.32,1.32,0,0,0,.17-1.73l-4.22-6A1.33,1.33,0,0,0,564-137.91Z" transform="translate(-530.93 179.09)"/></svg>