<svg id="Layer_2" data-name="Layer 2" xmlns="http://www.w3.org/2000/svg" viewBox="0 0 64 52.58"><defs><style>.cls-1{fill:#fff;}</style></defs><path class="cls-1" d="M492.82-163.33a14.42,14.42,0,0,0-14.4,14.4,14.16,14.16,0,0,0,.15,2L465.12-142a11.89,11.89,0,0,0-4.6-4.33L462-153h.08a11.83,11.83,0,0,0,11.81-11.81,11.83,11.83,0,0,0-11.81-11.82,11.83,11.83,0,0,0-11.82,11.82,11.82,11.82,0,0,0,6.83,10.69l-1.44,6.47c-.2,0-.4,0-.61,0a11.83,11.83,0,0,0-11.82,11.82A11.83,11.83,0,0,0,455-124.1a11.83,11.83,0,0,0,11.81-11.81,12.62,12.62,0,0,0-.08-1.38l13.35-4.87a14.4,14.4,0,0,0,12.7,7.64,2.52,2.52,0,0,0,2.52-2.52,2.52,2.52,0,0,0-2.52-2.52,9.38,9.38,0,0,1-9.37-9.37,9.39,9.39,0,0,1,9.37-9.37,9.38,9.38,0,0,1,9.37,9.37,9.39,9.39,0,0,1-4.11,7.76,2.51,2.51,0,0,0-.67,3.5,2.5,2.5,0,0,0,3.49.66,14.38,14.38,0,0,0,6.32-11.92A14.42,14.42,0,0,0,492.82-163.33Zm-30.74-8.31a6.79,6.79,0,0,1,6.78,6.78,6.79,6.79,0,0,1-6.78,6.77,6.78,6.78,0,0,1-6.78-6.77A6.79,6.79,0,0,1,462.08-171.64Zm-7,42.5a6.78,6.78,0,0,1-6.78-6.77,6.79,6.79,0,0,1,6.78-6.78,6.79,6.79,0,0,1,6.43,4.65h0a7,7,0,0,1,.34,2.11A6.78,6.78,0,0,1,455-129.14Z" transform="translate(-443.22 176.68)"/></svg>