<svg id="Layer_1" data-name="Layer 1" xmlns="http://www.w3.org/2000/svg" viewBox="0 0 190.4 96.84"><defs><style>.cls-1{fill:#f3c300;}.cls-2{fill:#6f7271;}.cls-3{fill:#f18a00;}.cls-4{fill:#4d525a;}.cls-5{fill:#00a0df;}.cls-6{fill:#cf3339;}.cls-7{fill:#a8ad00;}.cls-8{fill:#cb007b;}</style></defs><path class="cls-1" d="M468.83,255.6l-.29,0-.35-.12-.07-.08A.25.25,0,0,1,468,255l.36-.35a1.08,1.08,0,0,1,.3-.24l.31-.16c.18-.1.38-.18.59-.28l.33-.15.09-.05a.76.76,0,0,0,0-.11c-.46-.89-.93-1.88-1.43-2.76-.09-.14-.17-.29-.26-.44l-.12.08-.94.59-.53.38-.15.06h-.31a1,1,0,0,1-.37-.07c-.2,0-.26-.28-.26-.28l0-.12,0-.13.1-.14.18-.27.4-.39c.41-.27.8-.67,1.21-.95,0,0,0,0,.05-.05a14.1,14.1,0,0,0-2.48-3.33l-.19.23c-.39.59-1,1.07-1.38,1.67l-.44.25a.31.31,0,0,1-.36,0c-.14,0-.24-.2-.24-.2l-.07-.13a.34.34,0,0,1-.08-.33l0-.29.2-.39a2.78,2.78,0,0,0,.41-.62l.27-.34.62-.78a9,9,0,0,0-2.5-.93,2,2,0,0,0-1.26.25,12.33,12.33,0,0,0-.36,1.18,8.06,8.06,0,0,0-.23,1.21,1.88,1.88,0,0,1-.12.42c-.05.42-.1.8-.19,1.23s-.16.69-.22,1-.13.6-.21.9a16.65,16.65,0,0,0-.38,2.11c0,.3-.05.72-.07,1s-.12.68-.12,1c0,.65-.13,1.21-.09,1.84a2.44,2.44,0,0,0,.65,1.71,5,5,0,0,0,.83.55,10.31,10.31,0,0,0,1.26.41,3.4,3.4,0,0,0,1.18.18,8.27,8.27,0,0,0,1.64-.48c1.28-.38,2.59.2,3.79.39.23,0,.47.1.71.16a2.63,2.63,0,0,0,.89-.45,4.69,4.69,0,0,0,1.37-1.9,5.33,5.33,0,0,0,0-1.78c-.37.2-.71.41-1.13.65A1.42,1.42,0,0,1,468.83,255.6Z" transform="translate(-289.1 -219)"/><path class="cls-2" d="M479.34,242.5a1,1,0,0,0-.17-.53,3.25,3.25,0,0,0-.6-.37,1.27,1.27,0,0,0-1.23.25l-.27.2a.87.87,0,0,1-.11.09l-.29.18c-.13.08-.25.23-.39.34-.33.27-.8.59-1.11.9a5.2,5.2,0,0,1-1.21.95,2.5,2.5,0,0,0-.49.4,3.35,3.35,0,0,1-.45.27,10.67,10.67,0,0,0-1.4.85,14.46,14.46,0,0,0-1.23.94,4.36,4.36,0,0,1-.48.42l-.51.38a4.39,4.39,0,0,0-.51.37c-.15.13-.34.21-.49.35a6.85,6.85,0,0,1-.86.64s0,0-.05.05c-.41.28-.8.68-1.21.95l-.4.39-.18.27-.1.14,0,.13,0,.12s.06.25.26.28a1,1,0,0,0,.37.07h.31l.15-.06.53-.38.94-.59.12-.08,1.23-.75c.74-.42,1.2-.88,1.87-1.24l.13-.09.5-.22a11.34,11.34,0,0,0,1.58-.93c.49-.35,1.06-.74,1.59-1.07a5.36,5.36,0,0,0,.84-.51.58.58,0,0,1,.12-.1l1.87-1.14.88-.73c.09-.06.17-.14.25-.19C479.44,243.19,479.39,242.88,479.34,242.5Z" transform="translate(-289.1 -219)"/><path class="cls-2" d="M470.4,237.65a.94.94,0,0,0-.41-.28c-.33-.09-.6.14-.85.29a2.11,2.11,0,0,0-.64.45,4.91,4.91,0,0,1-.25.44l-.26.36c-.09.13-.16.26-.26.4s-.14.26-.26.41a2.43,2.43,0,0,0-.43.58,2.05,2.05,0,0,1-.34.45c-.38.46-.61.92-1,1.41a3.39,3.39,0,0,0-.44.63,4.48,4.48,0,0,1-.28.47,2.8,2.8,0,0,1-.41.53,2.8,2.8,0,0,0-.39.56c-.14.21-.21.31-.34.48l0,0-.62.78-.27.34a2.78,2.78,0,0,1-.41.62l-.2.39,0,.29a.34.34,0,0,0,.08.33l.07.13s.1.18.24.2a.31.31,0,0,0,.36,0l.44-.25c.38-.6,1-1.08,1.38-1.67l.19-.23a14.84,14.84,0,0,0,1-1.28,8.72,8.72,0,0,1,.51-.73c.4-.52.8-1,1.24-1.49a10.15,10.15,0,0,0,1.15-1.45c.25-.38.68-.65.94-1a2.25,2.25,0,0,0,.45-.77,2.79,2.79,0,0,0,.21-1A.61.61,0,0,0,470.4,237.65Z" transform="translate(-289.1 -219)"/><path class="cls-2" d="M479.4,249.54a.48.48,0,0,0-.53-.32,3.23,3.23,0,0,0-.63.16,3.41,3.41,0,0,0-.6.26c-.17.07-.31.19-.47.27a6.74,6.74,0,0,0-1.06.59,12,12,0,0,1-1.84,1,13.78,13.78,0,0,0-1.57.93,3.85,3.85,0,0,1-.54.31c-1,.41-1.06.54-1.6.76l-.55.24-.09.05-.33.15c-.21.1-.41.18-.59.28l-.31.16a1.08,1.08,0,0,0-.3.24L468,255a.25.25,0,0,0,.09.42l.07.08.35.12.29,0a1.42,1.42,0,0,0,.4-.08c.42-.24.76-.45,1.13-.65a7.75,7.75,0,0,1,.94-.41c.51-.2,1.07-.38,1.58-.61a26.48,26.48,0,0,1,2.59-1.22,9.66,9.66,0,0,0,1.6-.69,7.82,7.82,0,0,1,1.39-.61A1.41,1.41,0,0,0,479,251a2.18,2.18,0,0,0,.42-.49A1.44,1.44,0,0,0,479.4,249.54Z" transform="translate(-289.1 -219)"/><path class="cls-2" d="M473.23,260.83c-.73-.35-1.69-.59-2.42-.91a17.87,17.87,0,0,0-2.67-.92c-.24-.06-.48-.12-.71-.16-1.2-.19-2.51-.77-3.79-.39a8.27,8.27,0,0,1-1.64.48,3.4,3.4,0,0,1-1.18-.18,10.31,10.31,0,0,1-1.26-.41,5,5,0,0,1-.83-.55,2.44,2.44,0,0,1-.65-1.71c0-.63.13-1.19.09-1.84,0-.35.09-.72.12-1s0-.7.07-1a16.65,16.65,0,0,1,.38-2.11c.08-.3.12-.59.21-.9s.15-.64.22-1,.14-.81.19-1.23a1.88,1.88,0,0,0,.12-.42,8.06,8.06,0,0,1,.23-1.21,12.33,12.33,0,0,1,.36-1.18c.07-.18.15-.35.22-.51.34-.69.57-1.52.95-2.24,0,0,.22-.37.26-.48l.13-.25.3-.44c.21-.34.18-.22.31-.45a.53.53,0,0,0,.13-.2.82.82,0,0,0,.14-.28,1.11,1.11,0,0,0-.12-.72c-.15-.24-.38-.59-.74-.61a1.71,1.71,0,0,0-.89.34,1.1,1.1,0,0,0-.34.34,3.59,3.59,0,0,0-.78,1.37c-.18.63-.43,1.23-.58,1.87s-.45,1-.64,1.68a9.21,9.21,0,0,0-.31,1,6.29,6.29,0,0,0-.1,1c-.07.4-.25,1.31-.3,1.6a17,17,0,0,1-.45,2.32,12.6,12.6,0,0,0-.79,3.91,15.2,15.2,0,0,0,.32,3.89,2.63,2.63,0,0,0,.34.72,2.29,2.29,0,0,0,.18.29,2.37,2.37,0,0,0,.35.42c.12.1.21.19.31.29a17.22,17.22,0,0,0,1.47,1,3.11,3.11,0,0,0,.78.23,3.5,3.5,0,0,0,1,0,7.81,7.81,0,0,1,1.27-.13c.33,0,.62,0,1,0a11.82,11.82,0,0,1,2.08-.33,9.3,9.3,0,0,1,2.24.73,7.44,7.44,0,0,1,1.33.51c.35.21.67.44,1,.65a13.13,13.13,0,0,0,1.92,1.09c.4.18.65.38.93.52a15.8,15.8,0,0,0,1.64.57c.31.1.69.29,1,.1a.87.87,0,0,0,.29-.67C476.06,261.89,474.36,261.38,473.23,260.83Z" transform="translate(-289.1 -219)"/><path class="cls-3" d="M440.56,224.39a4.62,4.62,0,0,1,2.07.19l1.51.57a3.61,3.61,0,0,1,1.52.69l.86.71a14.29,14.29,0,0,1,1.67,1.47,3.22,3.22,0,0,1,.5.81l.21.43a6.78,6.78,0,0,1,.64,2.36,2.51,2.51,0,0,1-.19,1.52l-.26.75a7.1,7.1,0,0,1-.64,1.57,8.63,8.63,0,0,1-1.48,1.73,4.22,4.22,0,0,1-1.07.64l-.8.43-.31.22-.65.4-.1,0,.86.05.44.07a3.72,3.72,0,0,0,1.12.09,4.13,4.13,0,0,0,1.08-.34l.94-.3,1.14-.24A3.14,3.14,0,0,0,451.5,237l.26-.4a6.45,6.45,0,0,0,1.06-2.17l.33-1.62,0-1.16v-1.07a6.36,6.36,0,0,0-.1-1.68l-.08-.29a6.77,6.77,0,0,0-.9-2.48,15.44,15.44,0,0,0-2-2.28,16.45,16.45,0,0,0-1.9-.73c-5.63-.75-9,.64-10.75,3.12A6,6,0,0,1,440.56,224.39Z" transform="translate(-289.1 -219)"/><path class="cls-3" d="M455.05,230.2l.08.48.07.39s-.05,1.09-.06,1.13a4.7,4.7,0,0,1-.57,1.44l-.3.63a4.89,4.89,0,0,1-.82,1.16l-.51.59-.62.62-.32.27-.44.43-.63.61-.37.22-.64.43a3.9,3.9,0,0,1-1.48.78l-.16.06a14.09,14.09,0,0,1-3.79.84,19.84,19.84,0,0,1-5.55-.44,3.86,3.86,0,0,1-.68-.22,8,8,0,0,0,5.35,3.82,12.19,12.19,0,0,0,12.86-11.64,8.84,8.84,0,0,0-1.79-4.5,4.8,4.8,0,0,1,.34,1.38Z" transform="translate(-289.1 -219)"/><path class="cls-3" d="M444.25,237a5.92,5.92,0,0,0,2.59-1.67l.45-.52a3.44,3.44,0,0,0,.82-1.08,2.46,2.46,0,0,0,0-1.08l0-.29a10,10,0,0,0-.66-3,5.59,5.59,0,0,0-1.1-1.66l-.83-.94a1.43,1.43,0,0,0-.14-.13,3.5,3.5,0,0,0-2.11-1.09l-1.6.14a4.33,4.33,0,0,0-1.94,1.08l-.54.42a5.13,5.13,0,0,0-1.35,1.37l-.69,1.16a5.81,5.81,0,0,0-.78,2.64,3.36,3.36,0,0,0,.66,2.43l.3.38a4.47,4.47,0,0,0,1,1.05l.88.36,1.12.64a4.16,4.16,0,0,0,3.87-.17Z" transform="translate(-289.1 -219)"/><path class="cls-2" d="M441.54,219.18l-1.85.57-1.19.59a5.55,5.55,0,0,0-1.84,1.3l-.56.94s-.51.71-.56.76l-.29.56-.39.4a9.07,9.07,0,0,0-1.5,3.51l-.27,1.26,0,1.18a8.18,8.18,0,0,0,0,2.22l.1.65.19,1.11.58,1.63a3.13,3.13,0,0,0,.74,1.27l.39.47a1.64,1.64,0,0,0,.64.64l1.19.66a9.33,9.33,0,0,0,1.36.72,3.86,3.86,0,0,0,.68.22,19.84,19.84,0,0,0,5.55.44,14.09,14.09,0,0,0,3.79-.84l.16-.06a3.9,3.9,0,0,0,1.48-.78l.64-.43.37-.22.63-.61.44-.43.32-.27.62-.62.51-.59a4.89,4.89,0,0,0,.82-1.16l.3-.63a4.7,4.7,0,0,0,.57-1.44s.06-1.12.06-1.12l-.07-.4-.08-.48,0-1.52a4.8,4.8,0,0,0-.34-1.38c-.2-.53-.77-1.72-.77-1.72a8.77,8.77,0,0,0-.86-1.29l-.73-1a20.68,20.68,0,0,0-2-2.39,3,3,0,0,0-1.31-.59l-2.31-.73a8.7,8.7,0,0,0-3.25-.6Zm-1.27,18-1.12-.64-.88-.36a4.47,4.47,0,0,1-1-1.05l-.3-.38a3.36,3.36,0,0,1-.66-2.43,5.81,5.81,0,0,1,.78-2.64l.69-1.16a5.13,5.13,0,0,1,1.35-1.37l.54-.42a4.33,4.33,0,0,1,1.94-1.08l1.6-.14a3.5,3.5,0,0,1,2.11,1.09,1.43,1.43,0,0,1,.14.13l.83.94a5.59,5.59,0,0,1,1.1,1.66,10,10,0,0,1,.66,3l0,.29a2.46,2.46,0,0,1,0,1.08,3.44,3.44,0,0,1-.82,1.08l-.45.52a5.92,5.92,0,0,1-2.59,1.67l-.11,0A4.16,4.16,0,0,1,440.27,237.21Zm12.92-6.66v1.07l0,1.16-.33,1.62a6.45,6.45,0,0,1-1.06,2.17l-.26.4a3.14,3.14,0,0,1-1.88,1.27l-1.14.24-.94.3a4.13,4.13,0,0,1-1.08.34,3.72,3.72,0,0,1-1.12-.09l-.44-.07-.86-.05.1,0,.65-.4.31-.22.8-.43a4.22,4.22,0,0,0,1.07-.64,8.63,8.63,0,0,0,1.48-1.73,7.1,7.1,0,0,0,.64-1.57l.26-.75a2.51,2.51,0,0,0,.19-1.52,6.78,6.78,0,0,0-.64-2.36l-.21-.43a3.22,3.22,0,0,0-.5-.81,14.29,14.29,0,0,0-1.67-1.47l-.86-.71a3.61,3.61,0,0,0-1.52-.69l-1.51-.57a4.62,4.62,0,0,0-2.07-.19,6,6,0,0,0-3.08,1.82,6.54,6.54,0,0,0-1.15,1.65,6.94,6.94,0,0,0-.89,3.78l0,.38a4,4,0,0,0,.32,1.49,3.77,3.77,0,0,1,.31,1.06,5.35,5.35,0,0,0,.71,1.81l-.54-.48-.9-.84a4,4,0,0,1-.86-1.56l-.52-.9-.13-.2a2,2,0,0,1-.18-1.11v-1.22a8.12,8.12,0,0,1,.77-2.22l.27-.63a5.17,5.17,0,0,1,.78-1.23l1-1.15.32-.52.42-.63a6.17,6.17,0,0,1,1-.84l.42-.31,1.34-.93a6.34,6.34,0,0,1,2.73-.93h1.51a15.37,15.37,0,0,1,2.58.74l.69.42.43.29a12.17,12.17,0,0,1,2.21,1.68,15.44,15.44,0,0,1,2,2.28,6.77,6.77,0,0,1,.9,2.48l.08.29A6.36,6.36,0,0,1,453.19,230.55Z" transform="translate(-289.1 -219)"/><path class="cls-4" d="M421.45,267.11c-1.38,0-2.27,1.08-2.31,2.73v12.55c0,1.84-.35,3-1.1,3.5l-.88.63a2.33,2.33,0,0,0-1.11,2,2.48,2.48,0,0,0,2.68,2.47c2.06,0,4.15-1.91,4.75-4.32a10.19,10.19,0,0,0,.23-3.21V269.84C423.71,268.22,422.82,267.11,421.45,267.11Z" transform="translate(-289.1 -219)"/><path class="cls-4" d="M430.31,267.11c-1.35,0-2.24,1.08-2.28,2.73v12.65c0,1.63.93,2.73,2.3,2.73s2.24-1.07,2.27-2.73V269.84C432.6,268.22,431.67,267.11,430.31,267.11Z" transform="translate(-289.1 -219)"/><path class="cls-4" d="M386.53,267.11c-4.81,0-8.58,4.06-8.58,9.28v6c0,1.68,1,2.82,2.36,2.82s2.28-1.11,2.32-2.82v-6.16a3.88,3.88,0,1,1,7.73-.12v6.28c0,1.68.93,2.82,2.34,2.82s2.28-1.11,2.32-2.82v-6.14C395,271.17,391.23,267.11,386.53,267.11Z" transform="translate(-289.1 -219)"/><path class="cls-4" d="M445,267.11c-4.82,0-8.59,4.06-8.59,9.28v6c0,1.68,1,2.82,2.37,2.82s2.28-1.11,2.32-2.82v-6.16a3.88,3.88,0,1,1,7.74-.12v6.28c0,1.68.92,2.82,2.32,2.82s2.28-1.11,2.32-2.82v-6.14C453.45,271.17,449.67,267.11,445,267.11Z" transform="translate(-289.1 -219)"/><path class="cls-4" d="M335.21,267.11c-1.37,0-2.27,1.08-2.31,2.73v7.28a3,3,0,0,1-2.77,3.19,2.78,2.78,0,0,1-2.51-1.7,6,6,0,0,1-.31-2.54v-6.23c0-1.62-.93-2.73-2.26-2.73h0c-1.34,0-2.23,1.08-2.26,2.73v7.28a3,3,0,0,1-2.79,3.19,2.79,2.79,0,0,1-2.51-1.7,6.13,6.13,0,0,1-.31-2.54v-6.23c0-1.62-.92-2.73-2.3-2.73s-2.22,1.08-2.27,2.73v6.66a10.06,10.06,0,0,0,1,4.81,7.58,7.58,0,0,0,6.42,3.92,7.09,7.09,0,0,0,5.06-2.22,7.29,7.29,0,0,0,5.11,2.22,7.15,7.15,0,0,0,5.69-3,8.7,8.7,0,0,0,1.62-5.61v-6.81C337.47,268.22,336.54,267.11,335.21,267.11Z" transform="translate(-289.1 -219)"/><path class="cls-4" d="M359.11,278.74a8.51,8.51,0,0,0,8.13,6.59c4.8,0,8.6-4.05,8.6-9.26a8.84,8.84,0,0,0-8.56-9,8.69,8.69,0,0,0-8.21,6.7h-2.84a8.71,8.71,0,0,0-8.25-6.65c-4.67,0-8.51,4.1-8.51,9.06s3.76,9.17,8.47,9.17a8.6,8.6,0,0,0,8.25-6.65Zm8.17-6.64a4.17,4.17,0,1,1-3.87,4.14A4,4,0,0,1,367.28,272.1Zm-19.34,8.38a4.17,4.17,0,1,1,3.92-4.29A4,4,0,0,1,347.94,280.48Z" transform="translate(-289.1 -219)"/><path class="cls-4" d="M408.52,286.36v-2.53a8.51,8.51,0,1,0-10.78-8.17,8.53,8.53,0,0,0,6.23,8.2v2.46a8.6,8.6,0,0,0-6.18,8.26,8.46,8.46,0,1,0,10.73-8.22Zm-6.15-10.7a3.87,3.87,0,1,1,3.85,3.88A3.85,3.85,0,0,1,402.37,275.66Zm3.91,22.79a3.88,3.88,0,1,1,3.87-3.84A3.87,3.87,0,0,1,406.28,298.45Z" transform="translate(-289.1 -219)"/><path class="cls-5" d="M309.77,260.73c-.49-.38-.81-.65-.81-.65-.83-.66-1.55-1.15-2.38-1.81-.14-.11-.41-.4-.54-.51l-.74-.59c-.24-.2-.5-.35-.74-.54s-.35-.34-.51-.48l-1.13-.91c-.4-.34-.79-.6-1.18-.91s-.76-.73-1.12-1l-.3-.25-.12.33a4.52,4.52,0,0,0-.16,1.57l-.09,1.25a96.49,96.49,0,0,1-2.53,10.35c2.27-.54,3.46-1.14,5.91-1.85,1.41-.42,2.49-1.07,3.83-1.61s2.42-.7,3.78-1.4c-.21-.17-.42-.31-.62-.48S309.92,260.86,309.77,260.73Z" transform="translate(-289.1 -219)"/><path class="cls-6" d="M298.62,242.7c1-.92.4-2.14.1-3-1.78-2.2-3.29-1.66-4.67-.62-.55.85-1.39,2-.61,3.15A4.62,4.62,0,0,0,298.62,242.7Z" transform="translate(-289.1 -219)"/><path class="cls-2" d="M298.53,251.2c.2.71.33,1.44.36,1.49,0,.5,0,1,0,1.48,0,.21,0,.35,0,.56s-.07.41-.09.58a23.25,23.25,0,0,1-.47,2.32c-.12.47-.26.95-.39,1.42s-.27,1-.39,1.43-.29.76-.41,1.12c-.21.69-.43,1.4-.64,2.13s-.38,1.83-.59,2.76c-.16.73-.53,1.54-.67,2.22-.09.48-.24.9-.29,1.29,0,.23,0,.42,0,.63,0,0,.26.65.43.71s.85-.4.89-.39.13-.22.21-.5.07-.56.15-.83c.14-.54.4-.94.55-1.47l.27-1.61A96.49,96.49,0,0,0,300,256.19l.09-1.25a4.52,4.52,0,0,1,.16-1.57l.12-.33.3.25c.36.31.73.7,1.12,1s.78.57,1.18.91l1.13.91c.16.14.33.34.51.48s.5.34.74.54l.74.59c.13.11.4.4.54.51.83.66,1.55,1.15,2.38,1.81,0,0,.32.27.81.65.15.13.36.32.55.47s.41.31.62.48l.18.13c.12.09.22.23.33.33a3.51,3.51,0,0,1,.4.27c.37.28.73.67,1,.92s.38.21.54.34.5.39.51.41h.5a.89.89,0,0,0,.36-.15,1.32,1.32,0,0,0,.4-.77c0-.14-.19-.36-.16-.39-.18-.17-.32-.36-.53-.55s-.6-.44-.85-.66c-.57-.48-1.15-1-1.81-1.52-.24-.19-.6-.39-.85-.58-.61-.46-1.15-.93-1.77-1.39s-1.26-1-1.86-1.41c-.89-.64-1.72-1.18-2.43-1.69-.24-.17-.43-.33-.65-.48-.37-.24-.79-.47-1.15-.71a2.31,2.31,0,0,1-.24-.2l-.26-.15c-.33-.24-.65-.49-1-.79-.13-.12-.27-.21-.41-.36s-.38-.43-.57-.65l-.42-.81-.42-.78.67-.26c.37-.14.67-.27,1.15-.5s1-.38,1.44-.61.79-.55,1.23-.84,1.14-.74,1.71-1.17c.4-.31.85-.55,1.4-1s.94-1,1.38-1.42a16.34,16.34,0,0,0,1.27-1.47c.14-.15.38-.34.52-.5A24.65,24.65,0,0,0,313,238.9a12.52,12.52,0,0,0,1-2.22,5.35,5.35,0,0,0,.26-2.27,6.24,6.24,0,0,0-.3-.86,3.25,3.25,0,0,0-1.37.2,4.42,4.42,0,0,0-2,2.88c-.13.37-.34.78-.48,1.16a6.53,6.53,0,0,1-.7,1.63c-.21.3-.62.62-.87.92a17.59,17.59,0,0,1-2,2c-.31.26-.56.59-.88.85s-.87.55-1.27.86l-1.76,1.36a20,20,0,0,1-2.34,1.51c-.46.28-.89.52-1.34.76,0-.15-.07-.36-.06-.34a8.2,8.2,0,0,0-.49-1.39c-.1-.22-.17-.46-.26-.64s-.27-.49-.32-.65a.57.57,0,0,0-.47-.4,1.1,1.1,0,0,0-.37.13c-.07.05-.1.13-.15.17a2.92,2.92,0,0,0,.08.51c0,.2.07.38.11.54a7.18,7.18,0,0,0,.16.9l.17.92s.26.82.29.9l-1,.42c-.28.11-.79.27-1.09.39-.47.21-1.14.53-2,.85-.41.15-.94.27-1.36.44s-1.06.36-1.51.59c-.26.12-.5.31-.71.43a5.05,5.05,0,0,0-.82.54c-.26.29-.15.58.29.8a2.11,2.11,0,0,0,1-.1l1.65-.44c.56-.14,1.13-.24,1.67-.38s.93-.29,1.39-.42c1.06-.29,2.07-.58,3.08-.91Z" transform="translate(-289.1 -219)"/><path class="cls-6" d="M384.64,301h-.43a8.11,8.11,0,0,0-1.78.3,5.94,5.94,0,0,1-1.1.15,5.69,5.69,0,0,0-.81.08l-.56.11a6.55,6.55,0,0,1-.94.17l-1,.06a15.24,15.24,0,0,0-3.35.44,16.78,16.78,0,0,0-1.94.73l-.21.08v.09a1.22,1.22,0,0,0,.24.1,11.53,11.53,0,0,0,1.87.58,25.8,25.8,0,0,1,3.44,1,11.62,11.62,0,0,0,1.28.46c.82.19.64.22,1.46.4.5.11.45.31,1,.38.31.06.58.1.89.18.15,0,.31.12.42.14a.43.43,0,0,0,.55-.29c0-.07.11-.18.15-.25a2.67,2.67,0,0,0,.25-.74c.07-.23.28-.54.32-.77a15.58,15.58,0,0,1,1.19-3,4,4,0,0,1,.14-.55l-.31.08A2.75,2.75,0,0,1,384.64,301Z" transform="translate(-289.1 -219)"/><path class="cls-7" d="M370.71,304.89c-.09-.26-.22-.61-.3-.82a6.59,6.59,0,0,0-1.65.76l-.21.14c-.55.39-1.07.77-1.67,1.12l-.46.25-.48.5-.78.87c-.23.28-.19.1-.41.38l-1.18,1-1,.75s-.29.33-.63.64a4.89,4.89,0,0,1-.57.45.33.33,0,0,0-.11.21.27.27,0,0,0,.06.16l.56.37a2.66,2.66,0,0,1,.94.59l1.83.75,1.16.68.63.42,1,.45.23.16.62.3q.1.09.18.06c.17-.07.31-.59.34-.9a3.68,3.68,0,0,1,.33-1.36,3.72,3.72,0,0,0,.33-1.23l.28-.91a8,8,0,0,0,.58-2.25l.14-.9s.3-1.6.4-2.11a2,2,0,0,0,0-.2A2.68,2.68,0,0,0,370.71,304.89Z" transform="translate(-289.1 -219)"/><path class="cls-1" d="M376,289.84a7.65,7.65,0,0,1-1.08,3.16,10,10,0,0,0-.86,2l-.3.94-.34,1.15-.12.49-.12.55-.18.7-.11.46-.14.53-.2.76a1.81,1.81,0,0,1-.09.31s.19.05.36.12l.1,0a6.59,6.59,0,0,1,.75,0,4.79,4.79,0,0,1,.58-.21c.82-.24.75-.49,1.45-1,.38-.28,1.22-.63,1.59-.9s1.29-.82,1.78-1.1l1.36-.9.53-.23s.43-.19.05-.81-.95-1.19-1.16-1.48a7.52,7.52,0,0,0-.78-1.08c-.26-.3-.47-.92-.77-1.19s-1-1.85-1.31-2.07c-.53-.43-.76-1.24-1.3-1.6h0a2,2,0,0,1,.32,1.17Z" transform="translate(-289.1 -219)"/><path class="cls-2" d="M388.81,300c-.25-1.09-2.57-.82-2.84-.79h0a5.88,5.88,0,0,0-.66.14,2.9,2.9,0,0,1-.91.15c-.41,0-.84.09-1.25.15l-.93.12a9.67,9.67,0,0,0-1.58.27,8.48,8.48,0,0,1-1.84.4,8.62,8.62,0,0,1-1,0,4.63,4.63,0,0,0-1.67.16,6.83,6.83,0,0,1-1,.21l-.47.07a7.23,7.23,0,0,1-1,.07,6.59,6.59,0,0,0-.75,0l-.1,0c-.17-.07-.32-.1-.36-.12a1.81,1.81,0,0,0,.09-.31l.2-.76.14-.53.11-.46.18-.7.12-.55.12-.49.34-1.15.3-.94a10,10,0,0,1,.86-2,7.65,7.65,0,0,0,1.08-3.16v-.33a1.84,1.84,0,0,0-.33-1.16.86.86,0,0,0-.54-.36l-.25-.1-.23,0a1.15,1.15,0,0,0-.89.38,1.89,1.89,0,0,0-.23.64l-.19.62-.14.48-.12.51a5.21,5.21,0,0,1-.41,1.25c-.08.19-.18.38-.26.61a4.46,4.46,0,0,0-.13.56,4.37,4.37,0,0,1-.2.68,3.69,3.69,0,0,0-.29,1.19,5.5,5.5,0,0,1-.18.88l-.31,1.06-.19.71a17.06,17.06,0,0,0-.6,2.51,4.36,4.36,0,0,1-.86-.67s-1.47-1.48-1.81-1.93a6.91,6.91,0,0,0-1.12-1.11c-.23-.21-.46-.4-.68-.63a15.51,15.51,0,0,1-1.35-1.48s-.72-.92-1-1.27-.4-.55-.66-.87a1.34,1.34,0,0,0-.45-.39l-.24-.15-.29-.07a1.12,1.12,0,0,0-.4.26.76.76,0,0,0-.11.42.77.77,0,0,0,0,.25,1.17,1.17,0,0,0,.42.65l.18.18a4.19,4.19,0,0,1,.59,1.07,5.48,5.48,0,0,0,.53,1,14,14,0,0,0,1.24,1.67l.4.43a7.84,7.84,0,0,1,.42.67,3.65,3.65,0,0,0,.7,1,7,7,0,0,1,.56.67s1.06,1.34,1.34,1.82a6.87,6.87,0,0,0,.39.57,10.87,10.87,0,0,0-1.41.56s-1.83,1-2.31,1.17a10.07,10.07,0,0,1-1.05.37,10.82,10.82,0,0,0-1.17.43,6.28,6.28,0,0,0-1.08.64l-.6.4c-.35.2-1.69.82-2,1l-1.32.78c-1,.54-1.69.93-1.83,1.95a2.4,2.4,0,0,0,0,.37,1.43,1.43,0,0,0,1,1.38c1,.46,1.34.3,2.35-.13l.41-.24a6.38,6.38,0,0,1,.91-.66l.39-.23s1.13-.79,1.42-.95l.84-.42c.34-.16.68-.33,1-.51a6.73,6.73,0,0,0,.85-.62l.24-.19a5.87,5.87,0,0,1,1.16-.7l.26-.14.46-.25c.6-.35,1.12-.73,1.67-1.12l.21-.14a6.59,6.59,0,0,1,1.65-.76c.08.21.21.56.3.82a2.68,2.68,0,0,1,.05.3,2,2,0,0,1,0,.2,4.41,4.41,0,0,0,.15.55l.1.42a5.24,5.24,0,0,0,.41,1,3.91,3.91,0,0,1,.42,1.16,12.8,12.8,0,0,0,1.31,3.41c.5,1,.75,1.63.75,1.63.29.68.8,1.93,1.38,2.18.29.11.44,0,.52,0a.5.5,0,0,0,.12-.35,1.08,1.08,0,0,0-.1-.43l-.18-.48a4.41,4.41,0,0,1-.29-.71l-.32-1a20.59,20.59,0,0,1-.61-2.09,4,4,0,0,0-.19-.62,3.1,3.1,0,0,1-.2-.75,8.55,8.55,0,0,0-.31-1.21l-.41-1.56c-.1-.44-.21-.9-.35-1.37l-.07-.2a6.12,6.12,0,0,1-.38-1.74v-.11l.21-.08a16.78,16.78,0,0,1,1.94-.73,15.24,15.24,0,0,1,3.35-.44l1-.06a6.55,6.55,0,0,0,.94-.17l.56-.11a5.69,5.69,0,0,1,.81-.08,5.94,5.94,0,0,0,1.1-.15,8.11,8.11,0,0,1,1.78-.3h.43a2.75,2.75,0,0,0,.76,0,4.58,4.58,0,0,1,.82-.18,5.84,5.84,0,0,0,.84,0h.25c.46,0,1.16-.06,1.42-.4A.49.49,0,0,0,388.81,300Z" transform="translate(-289.1 -219)"/><path class="cls-6" d="M460.79,302.38c.62.07,1,.25,1.65.36a6.45,6.45,0,0,0,1,.21,2.49,2.49,0,0,1,.87.15h0l.06,0c.21,0,.41.06.63.11.55.11,1.14.36,1.69.52.4.11.69.18,1.07.31a8.48,8.48,0,0,0,1.81.28c.21,0,.46.12.65.13,0,0,.45.07.19-.3a13.37,13.37,0,0,1-1.11-1.15c-.24-.31-.57-.65-.78-1-.44-.65-.69-1-1.08-1.7-.24-.42-.06-.51-.29-.94s-.69-1.52-.9-2.11-.31-1.22-.45-1.64c-.21-.65-.24-1.63-.38-2.29-.1-.47-.25-2.22-.35-3.21a9.84,9.84,0,0,1,0-1.43.35.35,0,0,1,0-.08c-.08-.08-.19-.31-.62,0a7.33,7.33,0,0,0-.79.79c0,.06-.42.71-.45.78a9.7,9.7,0,0,0-1,1.47c-1.12,1.89-2,3.36-2.59,4.22-.93,1.41-1.79,2.58-2.64,4-.32.54-.61,1-.17,1.42a5.82,5.82,0,0,0,1.67.68c.37.15.74.26,1.1.38l.16-.1A3.83,3.83,0,0,1,460.79,302.38Z" transform="translate(-289.1 -219)"/><path class="cls-5" d="M469.56,280.39c.8-1.39-.25-2.45-1-3.54-2-1-4.3-1-5.3,1.09-.22,1.23-.81,2.49.37,3.47C465.84,282.15,467.81,282.07,469.56,280.39Z" transform="translate(-289.1 -219)"/><path class="cls-2" d="M474.1,305.42a1.21,1.21,0,0,0-.51-.63,6.12,6.12,0,0,1-.5-.4,12.21,12.21,0,0,1-1.21-1.18c-.26-.28-.54-.48-.78-.79s-.42-.7-.65-1a14.1,14.1,0,0,1-.87-1.39c-.14-.26-.44-.87-.57-1.14-.24-.52-.46-1.11-.67-1.64-.11-.27-.12-.59-.21-.87a10.23,10.23,0,0,1-.34-1.24c-.12-.4-.28-1.38-.36-1.78-.14-.59-.18-2-.24-2.5a15.26,15.26,0,0,1-.14-2.21l0-1.39-.18-1-.14-1.8c-.39-.93-.86-.7-1.19,0a5.31,5.31,0,0,0-.22.61c0,.16-.07.32-.1.49-.07.37-.11.7-.15,1-.06.69,0,2.17,0,2.2a9.84,9.84,0,0,0,0,1.43c.1,1,.25,2.74.35,3.21.14.66.17,1.64.38,2.29.14.42.27,1.09.45,1.64s.64,1.55.9,2.11.05.52.29.94c.39.69.64,1.05,1.08,1.7.21.33.54.67.78,1a13.37,13.37,0,0,0,1.11,1.15c.26.37-.19.3-.19.3-.19,0-.44-.1-.65-.13a8.48,8.48,0,0,1-1.81-.28c-.38-.13-.67-.2-1.07-.31-.55-.16-1.14-.41-1.69-.52-.22-.05-.42-.07-.63-.11l-.06,0h0a2.49,2.49,0,0,0-.87-.15,6.45,6.45,0,0,1-1-.21c-.63-.11-1-.29-1.65-.36a3.83,3.83,0,0,0-1.17,0l-.16.1a.38.38,0,0,0-.07.62,2.1,2.1,0,0,0,.76.28,9.23,9.23,0,0,1,1.09.34,7.14,7.14,0,0,0,1,.32c.25.06.32,0,.53.11l.37.14s.57.17.85.27.5.26.7.34c.56.18,1.15.37,1.76.55.45.12.93.25,1.38.39l.95.26.87.23a5,5,0,0,0,1,.17c.66,0,1.34.09,2,.06S474.4,306.21,474.1,305.42Z" transform="translate(-289.1 -219)"/><path class="cls-8" d="M430.82,257.33a4.31,4.31,0,0,0,.85-.56c.57-.53,1.21-1.09,1.78-1.62.38-.34.66-.69,1-1s.91-.88,1.31-1.36a4.8,4.8,0,0,0,.82-2,2.67,2.67,0,0,0-.06-1.68c-.2-.32-1.39-.59-1.5-.11a4.63,4.63,0,0,0-2.38.82,6.06,6.06,0,0,0-1.06,1,4.73,4.73,0,0,0-.46.53c-.1.15-.28.27-.37.42s-.08.31-.16.45a3.49,3.49,0,0,0-.25.32,4.64,4.64,0,0,1-.39.77,9.7,9.7,0,0,1-1.13,1.09,3,3,0,0,0-.45.67c-.27.44-.57.79-.86,1.2a1.51,1.51,0,0,0-.16.48,8.27,8.27,0,0,1-.9,1.62,6.09,6.09,0,0,0-.25.57,2.51,2.51,0,0,0,.41.72h0l.7-.22,1.22-.47,1.76-1.07.22-.12S430.47,257.63,430.82,257.33Z" transform="translate(-289.1 -219)"/><path class="cls-7" d="M423.85,257.18c-.07-.09-.18-.12-.26-.2a1.2,1.2,0,0,1-.33-.54,3.75,3.75,0,0,0-.94-1.25c-.25-.26-.42-.59-.66-.86a7.57,7.57,0,0,0-1.53-1,4.08,4.08,0,0,1-.44-.4,8.43,8.43,0,0,0-1.41-.86,5.52,5.52,0,0,0-1.38-.77c-.36-.1-.75-.05-1.12-.12-.62-.11-1.22-.32-1.82-.43s-1.48-.27-2.22-.33a19.49,19.49,0,0,0-2.17-.27,1.86,1.86,0,0,0-1.08.16,1.68,1.68,0,0,0-.45,1.07,7.2,7.2,0,0,0,.15,2.78,2.09,2.09,0,0,0,.22.5c.29.42.51,1,.83,1.34a9.28,9.28,0,0,1,.92,1.22,5.48,5.48,0,0,0,1.1,1.23c.31.22.95.38,1.27.61.13.1.15,0,.28.17a3,3,0,0,0,1,.54c1.05.43,2.11.86,3.14,1.34a5,5,0,0,0,3.25.36c.71-.18,1.42-.31,2.1-.48a5.49,5.49,0,0,0,1.51-.8,2.64,2.64,0,0,0,.84-.91,1.93,1.93,0,0,0,.19-.47l0,0A11,11,0,0,0,423.85,257.18Z" transform="translate(-289.1 -219)"/><path class="cls-2" d="M437.18,248.66a1.32,1.32,0,0,0-1.15-.5,4.67,4.67,0,0,0-.89-.08c-.27,0-1,.19-1.22.25a8.92,8.92,0,0,0-1.44.75,5.6,5.6,0,0,0-1.38,1,16.32,16.32,0,0,0-1.33,1.54c-.51.51-.7,1.07-1.19,1.52a6.32,6.32,0,0,0-1.21,1.58,10.22,10.22,0,0,1-.66,1c-.15.2-.22.45-.4.68a7.3,7.3,0,0,1-.77,1.16c-.1.12-.57-.87-.57-.87a12,12,0,0,0-.73-1,4,4,0,0,0-.5-.66,20.53,20.53,0,0,0-2.22-1.92c-.4-.24-.58-.47-1.3-1a12.06,12.06,0,0,0-1.43-1,7.39,7.39,0,0,1-1.19-.61A1.69,1.69,0,0,0,417,250a19.75,19.75,0,0,0-4.94-1.73,8.68,8.68,0,0,0-1.77-.25c-.21,0-.94.05-1.13.08a3.94,3.94,0,0,0-1.14.39,2.62,2.62,0,0,0-1.12,1.9,6.27,6.27,0,0,0,0,1.3,6.77,6.77,0,0,0,0,1.1s.06.72.08.7a1.69,1.69,0,0,0,.11.57c.07.23.18.44.24.69s.3.5.43.84.22.26.31.55a6.83,6.83,0,0,0,1.05,1.55,7.52,7.52,0,0,0,.88.95,4.48,4.48,0,0,0,.64.59,6,6,0,0,1,.65.42,19.83,19.83,0,0,0,1.81,1.46,18.78,18.78,0,0,0,2.25.71c.6.16,1.19.29,1.83.41s1.25.11,1.93.19a6.47,6.47,0,0,0,1.16,0,7.46,7.46,0,0,0,.81-.1,3.78,3.78,0,0,0,1.18-.29l1-.51a4.7,4.7,0,0,0,.91-.58c.19-.17.32-.41.52-.58s.31-.22.43-.49c.46.17.42.74.53,1a1.49,1.49,0,0,1,.18.64c0,.23.09.43.09.64a4.28,4.28,0,0,1-.11,1.24c0,.14-.16.43-.08.58.16.31.48-.08.56-.21.31-.45.56-.63.63-1.19,0-.17.17-.45.13-.65s0-.52,0-.72l-.05-.36a5,5,0,0,0-.18-.85.85.85,0,0,0-.24-.36,2.51,2.51,0,0,1-.41-.72,6.09,6.09,0,0,1,.25-.57,8.27,8.27,0,0,0,.9-1.62,1.51,1.51,0,0,1,.16-.48c.29-.41.59-.76.86-1.2a3,3,0,0,1,.45-.67,9.7,9.7,0,0,0,1.13-1.09,4.64,4.64,0,0,0,.39-.77,3.49,3.49,0,0,1,.25-.32c.08-.14.08-.32.16-.45s.27-.27.37-.42a4.73,4.73,0,0,1,.46-.53,6.06,6.06,0,0,1,1.06-1,4.63,4.63,0,0,1,2.38-.82c.11-.48,1.3-.21,1.5.11a2.67,2.67,0,0,1,.06,1.68,4.8,4.8,0,0,1-.82,2c-.4.48-.89.92-1.31,1.36s-.62.7-1,1c-.57.53-1.21,1.09-1.78,1.62a4.31,4.31,0,0,1-.85.56c-.35.3-.34.38-.3.41l0,0a3.16,3.16,0,0,0,.71-.33c.2-.13.63-.36.83-.52.55-.4,1.09-.9,1.63-1.31.26-.19.54-.47.79-.68s.66-.46.94-.73a9.76,9.76,0,0,0,1.28-1.37,10.91,10.91,0,0,0,.6-1.34,4.18,4.18,0,0,0,.23-1.46A1.71,1.71,0,0,0,437.18,248.66Zm-12.56,10.66a2.64,2.64,0,0,1-.84.91,5.49,5.49,0,0,1-1.51.8c-.68.17-1.39.3-2.1.48a5,5,0,0,1-3.25-.36c-1-.48-2.09-.91-3.14-1.34a3,3,0,0,1-1-.54c-.13-.12-.15-.07-.28-.17-.32-.23-1-.39-1.27-.61a5.48,5.48,0,0,1-1.1-1.23,9.28,9.28,0,0,0-.92-1.22c-.32-.38-.54-.92-.83-1.34a2.09,2.09,0,0,1-.22-.5,7.2,7.2,0,0,1-.15-2.78,1.68,1.68,0,0,1,.45-1.07,1.86,1.86,0,0,1,1.08-.16,19.49,19.49,0,0,1,2.17.27c.74.06,1.48.21,2.22.33s1.2.32,1.82.43c.37.07.76,0,1.12.12a5.52,5.52,0,0,1,1.38.77,8.43,8.43,0,0,1,1.41.86,4.08,4.08,0,0,0,.44.4,7.57,7.57,0,0,1,1.53,1c.24.27.41.6.66.86a3.75,3.75,0,0,1,.94,1.25,1.2,1.2,0,0,0,.33.54c.08.08.19.11.26.2a11,11,0,0,1,.92,1.64l0,0A1.93,1.93,0,0,1,424.62,259.32Z" transform="translate(-289.1 -219)"/></svg>