<svg id="Layer_2" data-name="Layer 2" xmlns="http://www.w3.org/2000/svg" viewBox="0 0 66 44.49"><defs><style>.cls-1{fill:#fff;}</style></defs><path class="cls-1" d="M777.5-160a29.28,29.28,0,0,0-5.45-.36,15.86,15.86,0,0,0-15-11.66,15.52,15.52,0,0,0-15,11.74l-2.14,0h-.18a16.46,16.46,0,0,0-15.23,16.36,16.47,16.47,0,0,0,15.23,16.36H740l36.87-.23a2.88,2.88,0,0,0,.59-.06,16.46,16.46,0,0,0,13.08-16.07C790.51-152,784.92-159,777.5-160Zm-37.4,26.53a10.51,10.51,0,0,1-9.64-10.42,10.51,10.51,0,0,1,9.62-10.43l4.55,0a3,3,0,0,0,2.93-2.79,9.57,9.57,0,0,1,9.52-8.92,10,10,0,0,1,9.61,9.42,3,3,0,0,0,1.85,2.56,3,3,0,0,0,2.62-.19c.33-.08,1.82-.36,5.5.16,4.51.65,7.91,5,7.91,10.23a10.54,10.54,0,0,1-8.07,10.19Z" transform="translate(-724.51 172.04)"/></svg>