<svg id="Layer_2" data-name="Layer 2" xmlns="http://www.w3.org/2000/svg" viewBox="0 0 66.97 58.55"><defs><style>.cls-1{fill:#fff;}</style></defs><path class="cls-1" d="M160.87-137h-10.7a1.7,1.7,0,0,0-1.69,1.7,1.69,1.69,0,0,0,1.69,1.69h10.7a1.7,1.7,0,0,0,1.7-1.69A1.7,1.7,0,0,0,160.87-137Z" transform="translate(-148.48 192.18)"/><path class="cls-1" d="M196.76-178.08a16.58,16.58,0,0,0-15.19-2.06c-4.55,1.56-9.25,6.89-10.26,11.63a16.56,16.56,0,0,0,1.14,10.68l-7,9a1.08,1.08,0,0,0-.19.34,1.7,1.7,0,0,0-.25.69L163.8-136a1.74,1.74,0,0,0,.64,1.52,1.72,1.72,0,0,0,1,.35,1.7,1.7,0,0,0,.59-.1l11.36-4.22a1.52,1.52,0,0,0,.3-.17l.09-.06a1.63,1.63,0,0,0,.23-.22l7.39-9.54c.7.06,1.36.09,1.83.09a16.38,16.38,0,0,0,16.36-16.36A16.43,16.43,0,0,0,196.76-178.08Zm-14.65,28.35-5.63,7.29L174-144.38l5.69-7.24Zm5.16-2.06c-.46,0-1.22,0-1.93-.11a2.06,2.06,0,0,1-1-.41L176-158.7a2,2,0,0,1-.61-.75,13.11,13.11,0,0,1-.93-7.69c.67-4,4.4-8.47,8.14-9.78a13.88,13.88,0,0,1,4.63-.8,12.82,12.82,0,0,1,7.49,2.38,13,13,0,0,1,5.48,10.58A13,13,0,0,1,187.27-151.79Zm-16,5.34-2.09-1.62,5.62-7.29,2.16,1.67Zm-3.19,2,5.18,3.88-5.82,2.16Z" transform="translate(-148.48 192.18)"/><path class="cls-1" d="M190.37-164.4a2.91,2.91,0,0,0-2.14-.93,2.94,2.94,0,0,0-.94-2.15l-.35-.32a3,3,0,0,0-3.86.2l-.38.38c-1.2,1.43-1.39,3.92-.6,7.63l.07.32.32.06a18.49,18.49,0,0,0,3.86.48,5.68,5.68,0,0,0,3.79-1.1l.39-.39a3,3,0,0,0,.16-3.83C190.58-164.18,190.48-164.29,190.37-164.4Z" transform="translate(-148.48 192.18)"/><path class="cls-1" d="M185.41-182.07a1.7,1.7,0,0,0,1.7-1.7v-6.71a1.7,1.7,0,0,0-1.7-1.7,1.7,1.7,0,0,0-1.69,1.7v6.71A1.7,1.7,0,0,0,185.41-182.07Z" transform="translate(-148.48 192.18)"/><path class="cls-1" d="M213.75-166.45H207a1.69,1.69,0,0,0-1.69,1.69,1.7,1.7,0,0,0,1.69,1.7h6.72a1.7,1.7,0,0,0,1.69-1.7A1.69,1.69,0,0,0,213.75-166.45Z" transform="translate(-148.48 192.18)"/><path class="cls-1" d="M201-177.32a1.68,1.68,0,0,0,1.2-.5l4.75-4.75a1.68,1.68,0,0,0,.5-1.2A1.67,1.67,0,0,0,207-185a1.69,1.69,0,0,0-2.39,0l-4.75,4.75a1.68,1.68,0,0,0-.5,1.2,1.67,1.67,0,0,0,.5,1.19A1.67,1.67,0,0,0,201-177.32Z" transform="translate(-148.48 192.18)"/></svg>