<svg id="Layer_2" data-name="Layer 2" xmlns="http://www.w3.org/2000/svg" viewBox="0 0 283.46 188.16"><defs><style>.cls-1{fill:#c41931;}</style></defs><path class="cls-1" d="M-347.61,335.13c0-10.5,5.63-21.35,12.77-30.28,28.78-35,84.54-45.28,107.52-51.08s89.39-15.61,116.33-19.46,36.53-14.22,39.82-17.46,3.73-4.9,3.73-5.85c0-1.17-.55-1.79-2.34-1.79s-4.63.73-9.65,1.84-14.5,2.35-29.89,4-55.21,4.68-79.3,9.7c-69.6,14.06-91.68,20.91-117.11,34.13-57.89,33.8-43.75,75.37-43.41,76.54S-347.61,337.09-347.61,335.13Z" transform="translate(350.9 -209.21)"/><path class="cls-1" d="M-215,276.59c20-3.64,38.2-7.37,56.37-11.22,37.93-8,45-16.78,49-21,2.79-3,3.51-5,3.51-6.19s-.67-1.51-2.34-1.51-2.29.28-9.54,1.51-23.87,3.79-55.76,8.92c-14,2.25-24.52,4.58-37.56,6.86-4.1.72-3.91,3.85-4,5.88a42.75,42.75,0,0,1-2.09,12.54C-218.36,275.37-218.93,277.3-215,276.59Z" transform="translate(350.9 -209.21)"/><path class="cls-1" d="M-340.64,372.23c0,2.58-.39,6.92,0,9.65a14.47,14.47,0,0,0,5.14,9.2c3.29,2.51,7,4.91,8.14,4.91s1.78-.17,2.28-2.4.84-3.4-.55-5.35a20.46,20.46,0,0,1-3.41-7.75c-.44-2.74.06-4.52-1.89-5.69s-5.36-2.9-6.53-4S-340.64,367.6-340.64,372.23Z" transform="translate(350.9 -209.21)"/><path class="cls-1" d="M-324.91,379.8c0,1.57,1.56,8.15,4.51,10.93s7.48,6.64,13.83,6.64,6.81-1.11,6.81-1.67a8.22,8.22,0,0,0-2.23-4.41c-1.68-1.78-4.69-3-6.53-4.24a30.26,30.26,0,0,1-6.13-6.19,2.84,2.84,0,0,0-2.51-1.72,26.35,26.35,0,0,1-5.13-.62C-323.69,378-324.91,377-324.91,379.8Z" transform="translate(350.9 -209.21)"/><path class="cls-1" d="M-311.7,380.19a22.94,22.94,0,0,0,9.59,7.46,38.72,38.72,0,0,0,13.33,2.86c4,0,4.58-.44,4.58-2.62s-.51-5.07-4.13-5.85-9.48-2.35-13.11-4.8-6-6-7.86-6-4.18,0-4.18,2.89S-313.08,378.45-311.7,380.19Z" transform="translate(350.9 -209.21)"/><path class="cls-1" d="M-300.82,374.17c1.88,1.27,8.2,5.58,15.5,5.58s11.43-1.23,11.43-3.35a8.49,8.49,0,0,0-3.84-6.52,10.28,10.28,0,0,0-6.92-2.23h-9.54a4.75,4.75,0,0,0-2.62,1,18.63,18.63,0,0,1-3.73,1.84c-1.62.5-2.35.44-2.35,1.17S-302.49,373.05-300.82,374.17Z" transform="translate(350.9 -209.21)"/><path class="cls-1" d="M-298.84,356.33c1.09,1.05,3,2.45,3.76,4.57s1.95,3.79,5,4,9.09.62,14.5-1.89,11.77-6.41,11.77-10.26c0-1.68-2.29-3.74-11.49-3.74s-19.91,2.73-22,3.35S-301.29,354-298.84,356.33Z" transform="translate(350.9 -209.21)"/><path class="cls-1" d="M-326.73,357.05c0-.78.51-1.81,3.81-2.34s7.82-1.45,12.59-.53,9.51,2.93,11.49,5.52,1.89,3.68,1.89,4.73-2.76,3.89-8.57,3.89c-5.62,0-8-.39-10.19-2.9s-5.21-5.08-7.21-5.91S-326.73,358.33-326.73,357.05Z" transform="translate(350.9 -209.21)"/><path class="cls-1" d="M-338.09,355.77c1.16,0,2.5.92,5,1.92s8,2.43,11.21,5.44,5.82,6,5.82,9-.67,3.85-1.45,3.85-8.14-.34-11.15-2.26-7.45-4.55-9.44-9.79S-340.06,355.77-338.09,355.77Z" transform="translate(350.9 -209.21)"/><path class="cls-1" d="M-345,349.36c.5,3.7,1.9,5.35,2.79,5.35s.89-2.57,3.34-10.15c2.19-6.76,9.69-23.61,18.4-32.41.62-.62,1-1.75-.55-1.59-8.63.7-13.53,2.49-16.1,3.85a4.34,4.34,0,0,0-2.39,2.39A54.45,54.45,0,0,0-345,349.36Z" transform="translate(350.9 -209.21)"/><path class="cls-1" d="M-222.62,256.33c-14.61,2.81-25.21,5.8-37.05,9-23.64,6.47-49.52,14.72-69.15,36.14a72.71,72.71,0,0,0-5.29,6.47c-.65.89-.39,2,.52,1.74,3.54-1.21,7.95-2.19,17-2.6a9.49,9.49,0,0,0,4.48-1.37,138,138,0,0,1,41.25-17.85c10-2.61,23.94-5.37,43-9a8.14,8.14,0,0,0,5.39-3.82c1-1.68,1.42-3.35,2.42-7a27,27,0,0,0,1.26-7.95C-218.73,257.73-219.9,255.81-222.62,256.33Z" transform="translate(350.9 -209.21)"/><path class="cls-1" d="M-330,350.42c2.49-2.54,20.75-21.59,27.1-25.27s7.53-2.67,7.37,2.18-1.62,15.56-3.32,18.57-2.54,5.52-9.23,5.52-8.63-.59-11.84,0-10.92,3.76-11.75,3.76a1,1,0,0,1-1.07-1.08C-332.73,353.51-332.27,352.74-330,350.42Z" transform="translate(350.9 -209.21)"/><path class="cls-1" d="M-282.37,294.35c-12.31,4.1-21.05,9-30.72,15.42-12.05,8-22,32-23.54,36.13-1.45,3.85-2.06,6.86-.72,6.86s3-1.95,6.75-5.75,26.77-28.1,43.94-34.57c2.93-1.26,3.74-2.69,4-3.46a54.12,54.12,0,0,0,3.45-12.52C-278.63,293.11-281.31,294-282.37,294.35Z" transform="translate(350.9 -209.21)"/><path class="cls-1" d="M-127.83,260.66c-1.9,0-5.58,2.48-12.72,4.26s-33.68,7.37-52.87,11.16-61.34,10.7-79.18,15.39c-1.38.36-3.8-.14-4.09,3.4A68.41,68.41,0,0,1-279,307.61c-.66,2.16,1.25,2.13,2.37,1.87,18.36-4.34,45-6.38,62.22-8.42,20.74-2.45,58.89-15.17,73.44-21.75,11.28-5.1,15.76-14.75,15.76-16.56S-126.26,260.66-127.83,260.66Z" transform="translate(350.9 -209.21)"/><path class="cls-1" d="M-292.3,334.22c-.22,1.59-.51,3.22-.88,4.84-1.34,5.83-4.35,10.73-.67,10,2.06-.43,15.72-3.35,19.52-3.35s13.38,3.69,15.44,3.69,30.68,7.62,42.28-10.3c1.4-2.18,2.76-4.32,4.07-6.4.37-.6.62-1.79-1-2q-7.65-.66-16.89-1.29A289.57,289.57,0,0,0-289.76,332C-291.87,332.53-292.21,333.6-292.3,334.22Z" transform="translate(350.9 -209.21)"/><path class="cls-1" d="M-207.94,325.14c6.9-11.49,11.51-20.17,12.41-21.86,1.22-2.33.11-2.66-3.35-2.33s-31.34,3-38.48,4.35-35.58,6-46.12,9.31-8.7,5.52-8.36,9a37.68,37.68,0,0,1,.1,4.14c0,.59.32,1.95,2.22,1.61,8.75-.87,29.7-2.87,43-3.5,8.19-.38,22.21.09,35.75.77A2.73,2.73,0,0,0-207.94,325.14Z" transform="translate(350.9 -209.21)"/></svg>