<svg width="113" height="30" viewBox="0 0 113 30" fill="none" xmlns="http://www.w3.org/2000/svg">
<path d="M2.85326 1.92646V28.0571H6.06794C6.34692 28.0571 6.56884 28.1339 6.7337 28.2876C6.91123 28.4413 7 28.6279 7 28.8474V30H0V0H7V1.15258C7 1.37212 6.91123 1.55873 6.7337 1.71241C6.56884 1.85511 6.34692 1.92646 6.06794 1.92646H2.85326Z" fill="#595959"/>
<path d="M113 30H106V28.8474C106 28.6279 106.082 28.4413 106.247 28.2876C106.425 28.1339 106.653 28.0571 106.932 28.0571H110.147V1.92646H106.932C106.653 1.92646 106.425 1.85511 106.247 1.71241C106.082 1.55873 106 1.37212 106 1.15258V0H113V30Z" fill="#595959"/>
<path d="M93.7653 17.0199V22.6199H91.0853V17.0199L85.8153 8.15991H88.1853C88.4186 8.15991 88.602 8.21658 88.7353 8.32991C88.8753 8.44325 88.992 8.58658 89.0853 8.75991L91.7253 13.5899C91.8786 13.8766 92.012 14.1466 92.1253 14.3999C92.2453 14.6532 92.352 14.9066 92.4453 15.1599C92.532 14.9066 92.632 14.6532 92.7453 14.3999C92.8586 14.1466 92.9886 13.8766 93.1353 13.5899L95.7653 8.75991C95.8386 8.61325 95.9486 8.47658 96.0953 8.34991C96.242 8.22325 96.4286 8.15991 96.6553 8.15991H99.0353L93.7653 17.0199Z" fill="#595959"/>
<path d="M79.7378 15.0399C80.2445 15.0399 80.6845 14.9766 81.0578 14.8499C81.4378 14.7232 81.7478 14.5499 81.9878 14.3299C82.2345 14.1032 82.4178 13.8366 82.5378 13.5299C82.6578 13.2232 82.7178 12.8866 82.7178 12.5199C82.7178 11.7866 82.4745 11.2232 81.9878 10.8299C81.5078 10.4366 80.7711 10.2399 79.7778 10.2399H78.0578V15.0399H79.7378ZM86.6578 22.6199H84.2278C83.7678 22.6199 83.4345 22.4399 83.2278 22.0799L80.1878 17.4499C80.0745 17.2766 79.9478 17.1532 79.8078 17.0799C79.6745 17.0066 79.4745 16.9699 79.2078 16.9699H78.0578V22.6199H75.3678V8.15991H79.7778C80.7578 8.15991 81.5978 8.26325 82.2978 8.46991C83.0045 8.66991 83.5811 8.95325 84.0278 9.31991C84.4811 9.68658 84.8145 10.1266 85.0278 10.6399C85.2411 11.1466 85.3478 11.7066 85.3478 12.3199C85.3478 12.8066 85.2745 13.2666 85.1278 13.6999C84.9878 14.1332 84.7811 14.5266 84.5078 14.8799C84.2411 15.2332 83.9078 15.5432 83.5078 15.8099C83.1145 16.0766 82.6645 16.2866 82.1578 16.4399C82.3311 16.5399 82.4911 16.6599 82.6378 16.7999C82.7845 16.9332 82.9178 17.0932 83.0378 17.2799L86.6578 22.6199Z" fill="#595959"/>
<path d="M66.5639 10.2999V14.3099H71.6239V16.3799H66.5639V20.4699H72.9839V22.6199H63.8639V8.15991H72.9839V10.2999H66.5639Z" fill="#595959"/>
<path d="M61.9433 20.3999V22.6199H53.4733V8.15991H56.1633V20.3999H61.9433Z" fill="#595959"/>
<path d="M51.5526 20.3999V22.6199H43.0826V8.15991H45.7726V20.3999H51.5526Z" fill="#595959"/>
<path d="M36.836 17.1599L35.076 12.3499C34.9893 12.1366 34.8993 11.8832 34.806 11.5899C34.7126 11.2966 34.6193 10.9799 34.526 10.6399C34.4393 10.9799 34.3493 11.2999 34.256 11.5999C34.1626 11.8932 34.0726 12.1499 33.986 12.3699L32.236 17.1599H36.836ZM41.586 22.6199H39.506C39.2726 22.6199 39.0826 22.5632 38.936 22.4499C38.7893 22.3299 38.6793 22.1832 38.606 22.0099L37.526 19.0599H31.536L30.456 22.0099C30.4026 22.1632 30.2993 22.3032 30.146 22.4299C29.9926 22.5566 29.8026 22.6199 29.576 22.6199H27.476L33.166 8.15991H35.906L41.586 22.6199Z" fill="#595959"/>
<path d="M26.78 15.37V21.22C26.0467 21.76 25.2633 22.1567 24.43 22.41C23.6033 22.6567 22.7167 22.78 21.77 22.78C20.59 22.78 19.52 22.5967 18.56 22.23C17.6067 21.8633 16.79 21.3533 16.11 20.7C15.4367 20.0467 14.9167 19.2667 14.55 18.36C14.1833 17.4533 14 16.4633 14 15.39C14 14.3033 14.1767 13.3067 14.53 12.4C14.8833 11.4933 15.3833 10.7133 16.03 10.06C16.6833 9.40667 17.4733 8.9 18.4 8.54C19.3267 8.18 20.3667 8 21.52 8C22.1067 8 22.6533 8.04667 23.16 8.14C23.6733 8.23333 24.1467 8.36333 24.58 8.53C25.02 8.69 25.42 8.88667 25.78 9.12C26.14 9.35333 26.47 9.61 26.77 9.89L26 11.11C25.88 11.3033 25.7233 11.4233 25.53 11.47C25.3367 11.51 25.1267 11.46 24.9 11.32C24.68 11.1933 24.46 11.0667 24.24 10.94C24.02 10.8133 23.7733 10.7033 23.5 10.61C23.2333 10.5167 22.93 10.44 22.59 10.38C22.2567 10.32 21.87 10.29 21.43 10.29C20.7167 10.29 20.07 10.41 19.49 10.65C18.9167 10.89 18.4267 11.2333 18.02 11.68C17.6133 12.1267 17.3 12.6633 17.08 13.29C16.86 13.9167 16.75 14.6167 16.75 15.39C16.75 16.2167 16.8667 16.9567 17.1 17.61C17.34 18.2567 17.6733 18.8067 18.1 19.26C18.5333 19.7067 19.0533 20.05 19.66 20.29C20.2667 20.5233 20.9433 20.64 21.69 20.64C22.2233 20.64 22.7 20.5833 23.12 20.47C23.54 20.3567 23.95 20.2033 24.35 20.01V17.39H22.53C22.3567 17.39 22.22 17.3433 22.12 17.25C22.0267 17.15 21.98 17.03 21.98 16.89V15.37H26.78Z" fill="#595959"/>
</svg>
