<svg width="112" height="30" viewBox="0 0 112 30" fill="none" xmlns="http://www.w3.org/2000/svg">
<path d="M2.85326 1.92646V28.0571H6.06794C6.34692 28.0571 6.56884 28.1339 6.7337 28.2876C6.91123 28.4413 7 28.6279 7 28.8474V30H0V0H7V1.15258C7 1.37212 6.91123 1.55873 6.7337 1.71241C6.56884 1.85511 6.34692 1.92646 6.06794 1.92646H2.85326Z" fill="#F2D750"/>
<path d="M112 30H105V28.8474C105 28.6279 105.082 28.4413 105.247 28.2876C105.425 28.1339 105.653 28.0571 105.932 28.0571H109.147V1.92646H105.932C105.653 1.92646 105.425 1.85511 105.247 1.71241C105.082 1.55873 105 1.37212 105 1.15258V0H112V30Z" fill="#F2D750"/>
<path d="M26.53 15.75V21.6C25.7967 22.14 25.0133 22.5367 24.18 22.79C23.3533 23.0367 22.4667 23.16 21.52 23.16C20.34 23.16 19.27 22.9767 18.31 22.61C17.3567 22.2433 16.54 21.7333 15.86 21.08C15.1867 20.4267 14.6667 19.6467 14.3 18.74C13.9333 17.8333 13.75 16.8433 13.75 15.77C13.75 14.6833 13.9267 13.6867 14.28 12.78C14.6333 11.8733 15.1333 11.0933 15.78 10.44C16.4333 9.78667 17.2233 9.28 18.15 8.92C19.0767 8.56 20.1167 8.38 21.27 8.38C21.8567 8.38 22.4033 8.42667 22.91 8.52C23.4233 8.61333 23.8967 8.74333 24.33 8.91C24.77 9.07 25.17 9.26667 25.53 9.5C25.89 9.73333 26.22 9.99 26.52 10.27L25.75 11.49C25.63 11.6833 25.4733 11.8033 25.28 11.85C25.0867 11.89 24.8767 11.84 24.65 11.7C24.43 11.5733 24.21 11.4467 23.99 11.32C23.77 11.1933 23.5233 11.0833 23.25 10.99C22.9833 10.8967 22.68 10.82 22.34 10.76C22.0067 10.7 21.62 10.67 21.18 10.67C20.4667 10.67 19.82 10.79 19.24 11.03C18.6667 11.27 18.1767 11.6133 17.77 12.06C17.3633 12.5067 17.05 13.0433 16.83 13.67C16.61 14.2967 16.5 14.9967 16.5 15.77C16.5 16.5967 16.6167 17.3367 16.85 17.99C17.09 18.6367 17.4233 19.1867 17.85 19.64C18.2833 20.0867 18.8033 20.43 19.41 20.67C20.0167 20.9033 20.6933 21.02 21.44 21.02C21.9733 21.02 22.45 20.9633 22.87 20.85C23.29 20.7367 23.7 20.5833 24.1 20.39V17.77H22.28C22.1067 17.77 21.97 17.7233 21.87 17.63C21.7767 17.53 21.73 17.41 21.73 17.27V15.75H26.53ZM36.5859 17.54L34.8259 12.73C34.7393 12.5167 34.6493 12.2633 34.5559 11.97C34.4626 11.6767 34.3693 11.36 34.2759 11.02C34.1893 11.36 34.0993 11.68 34.0059 11.98C33.9126 12.2733 33.8226 12.53 33.7359 12.75L31.9859 17.54H36.5859ZM41.3359 23H39.2559C39.0226 23 38.8326 22.9433 38.6859 22.83C38.5393 22.71 38.4293 22.5633 38.3559 22.39L37.2759 19.44H31.2859L30.2059 22.39C30.1526 22.5433 30.0493 22.6833 29.8959 22.81C29.7426 22.9367 29.5526 23 29.3259 23H27.2259L32.9159 8.54H35.6559L41.3359 23ZM51.3027 20.78V23H42.8327V8.54H45.5227V20.78H51.3027ZM61.6933 20.78V23H53.2233V8.54H55.9133V20.78H61.6933ZM66.3139 10.68V14.69H71.3739V16.76H66.3139V20.85H72.7339V23H63.6139V8.54H72.7339V10.68H66.3139ZM79.4878 15.42C79.9945 15.42 80.4345 15.3567 80.8078 15.23C81.1878 15.1033 81.4978 14.93 81.7378 14.71C81.9845 14.4833 82.1678 14.2167 82.2878 13.91C82.4078 13.6033 82.4678 13.2667 82.4678 12.9C82.4678 12.1667 82.2245 11.6033 81.7378 11.21C81.2578 10.8167 80.5211 10.62 79.5278 10.62H77.8078V15.42H79.4878ZM86.4078 23H83.9778C83.5178 23 83.1845 22.82 82.9778 22.46L79.9378 17.83C79.8245 17.6567 79.6978 17.5333 79.5578 17.46C79.4245 17.3867 79.2245 17.35 78.9578 17.35H77.8078V23H75.1178V8.54H79.5278C80.5078 8.54 81.3478 8.64333 82.0478 8.85C82.7545 9.05 83.3311 9.33333 83.7778 9.7C84.2311 10.0667 84.5645 10.5067 84.7778 11.02C84.9911 11.5267 85.0978 12.0867 85.0978 12.7C85.0978 13.1867 85.0245 13.6467 84.8778 14.08C84.7378 14.5133 84.5311 14.9067 84.2578 15.26C83.9911 15.6133 83.6578 15.9233 83.2578 16.19C82.8645 16.4567 82.4145 16.6667 81.9078 16.82C82.0811 16.92 82.2411 17.04 82.3878 17.18C82.5345 17.3133 82.6678 17.4733 82.7878 17.66L86.4078 23ZM93.5153 17.4V23H90.8353V17.4L85.5653 8.54H87.9353C88.1686 8.54 88.352 8.59667 88.4853 8.71C88.6253 8.82333 88.742 8.96667 88.8353 9.14L91.4753 13.97C91.6286 14.2567 91.762 14.5267 91.8753 14.78C91.9953 15.0333 92.102 15.2867 92.1953 15.54C92.282 15.2867 92.382 15.0333 92.4953 14.78C92.6086 14.5267 92.7386 14.2567 92.8853 13.97L95.5153 9.14C95.5886 8.99333 95.6986 8.85667 95.8453 8.73C95.992 8.60333 96.1786 8.54 96.4053 8.54H98.7853L93.5153 17.4Z" fill="#F2D750"/>
</svg>
