<svg width="128" height="40" viewBox="0 0 128 40" fill="none" xmlns="http://www.w3.org/2000/svg">
<path d="M20.82 22.4V28H18.14V22.4L12.87 13.54H15.24C15.4733 13.54 15.6567 13.5967 15.79 13.71C15.93 13.8233 16.0467 13.9667 16.14 14.14L18.78 18.97C18.9333 19.2567 19.0667 19.5267 19.18 19.78C19.3 20.0333 19.4067 20.2867 19.5 20.54C19.5867 20.2867 19.6867 20.0333 19.8 19.78C19.9133 19.5267 20.0433 19.2567 20.19 18.97L22.82 14.14C22.8933 13.9933 23.0033 13.8567 23.15 13.73C23.2967 13.6033 23.4833 13.54 23.71 13.54H26.09L20.82 22.4ZM30.2788 28H27.5788V13.54H30.2788V28ZM46.0795 16.17C45.9995 16.31 45.9129 16.4133 45.8195 16.48C45.7329 16.54 45.6229 16.57 45.4895 16.57C45.3495 16.57 45.1962 16.52 45.0295 16.42C44.8695 16.3133 44.6762 16.1967 44.4495 16.07C44.2229 15.9433 43.9562 15.83 43.6495 15.73C43.3495 15.6233 42.9929 15.57 42.5795 15.57C42.2062 15.57 41.8795 15.6167 41.5995 15.71C41.3195 15.7967 41.0829 15.92 40.8895 16.08C40.7029 16.24 40.5629 16.4333 40.4695 16.66C40.3762 16.88 40.3295 17.1233 40.3295 17.39C40.3295 17.73 40.4229 18.0133 40.6095 18.24C40.8029 18.4667 41.0562 18.66 41.3695 18.82C41.6829 18.98 42.0395 19.1233 42.4395 19.25C42.8395 19.3767 43.2495 19.5133 43.6695 19.66C44.0895 19.8 44.4995 19.9667 44.8995 20.16C45.2995 20.3467 45.6562 20.5867 45.9695 20.88C46.2829 21.1667 46.5329 21.52 46.7195 21.94C46.9129 22.36 47.0095 22.87 47.0095 23.47C47.0095 24.1233 46.8962 24.7367 46.6695 25.31C46.4495 25.8767 46.1229 26.3733 45.6895 26.8C45.2629 27.22 44.7395 27.5533 44.1195 27.8C43.4995 28.04 42.7895 28.16 41.9895 28.16C41.5295 28.16 41.0762 28.1133 40.6295 28.02C40.1829 27.9333 39.7529 27.8067 39.3395 27.64C38.9329 27.4733 38.5495 27.2733 38.1895 27.04C37.8295 26.8067 37.5095 26.5467 37.2295 26.26L38.0195 24.97C38.0862 24.8767 38.1729 24.8 38.2795 24.74C38.3862 24.6733 38.4995 24.64 38.6195 24.64C38.7862 24.64 38.9662 24.71 39.1595 24.85C39.3529 24.9833 39.5829 25.1333 39.8495 25.3C40.1162 25.4667 40.4262 25.62 40.7795 25.76C41.1395 25.8933 41.5695 25.96 42.0695 25.96C42.8362 25.96 43.4295 25.78 43.8495 25.42C44.2695 25.0533 44.4795 24.53 44.4795 23.85C44.4795 23.47 44.3829 23.16 44.1895 22.92C44.0029 22.68 43.7529 22.48 43.4395 22.32C43.1262 22.1533 42.7695 22.0133 42.3695 21.9C41.9695 21.7867 41.5629 21.6633 41.1495 21.53C40.7362 21.3967 40.3295 21.2367 39.9295 21.05C39.5295 20.8633 39.1729 20.62 38.8595 20.32C38.5462 20.02 38.2929 19.6467 38.0995 19.2C37.9129 18.7467 37.8195 18.19 37.8195 17.53C37.8195 17.0033 37.9229 16.49 38.1295 15.99C38.3429 15.49 38.6495 15.0467 39.0495 14.66C39.4495 14.2733 39.9429 13.9633 40.5295 13.73C41.1162 13.4967 41.7895 13.38 42.5495 13.38C43.4029 13.38 44.1895 13.5133 44.9095 13.78C45.6295 14.0467 46.2429 14.42 46.7495 14.9L46.0795 16.17ZM63.1461 20.77C63.1461 21.83 62.9694 22.8133 62.6161 23.72C62.2694 24.62 61.7761 25.4 61.1361 26.06C60.4961 26.72 59.7261 27.2367 58.8261 27.61C57.9261 27.9767 56.9261 28.16 55.8261 28.16C54.7328 28.16 53.7361 27.9767 52.8361 27.61C51.9361 27.2367 51.1628 26.72 50.5161 26.06C49.8761 25.4 49.3794 24.62 49.0261 23.72C48.6728 22.8133 48.4961 21.83 48.4961 20.77C48.4961 19.71 48.6728 18.73 49.0261 17.83C49.3794 16.9233 49.8761 16.14 50.5161 15.48C51.1628 14.82 51.9361 14.3067 52.8361 13.94C53.7361 13.5667 54.7328 13.38 55.8261 13.38C56.5594 13.38 57.2494 13.4667 57.8961 13.64C58.5428 13.8067 59.1361 14.0467 59.6761 14.36C60.2161 14.6667 60.6994 15.0433 61.1261 15.49C61.5594 15.93 61.9261 16.4233 62.2261 16.97C62.5261 17.5167 62.7528 18.11 62.9061 18.75C63.0661 19.39 63.1461 20.0633 63.1461 20.77ZM60.3961 20.77C60.3961 19.9767 60.2894 19.2667 60.0761 18.64C59.8628 18.0067 59.5594 17.47 59.1661 17.03C58.7728 16.59 58.2928 16.2533 57.7261 16.02C57.1661 15.7867 56.5328 15.67 55.8261 15.67C55.1194 15.67 54.4828 15.7867 53.9161 16.02C53.3561 16.2533 52.8761 16.59 52.4761 17.03C52.0828 17.47 51.7794 18.0067 51.5661 18.64C51.3528 19.2667 51.2461 19.9767 51.2461 20.77C51.2461 21.5633 51.3528 22.2767 51.5661 22.91C51.7794 23.5367 52.0828 24.07 52.4761 24.51C52.8761 24.9433 53.3561 25.2767 53.9161 25.51C54.4828 25.7433 55.1194 25.86 55.8261 25.86C56.5328 25.86 57.1661 25.7433 57.7261 25.51C58.2928 25.2767 58.7728 24.9433 59.1661 24.51C59.5594 24.07 59.8628 23.5367 60.0761 22.91C60.2894 22.2767 60.3961 21.5633 60.3961 20.77ZM79.2984 20.77C79.2984 21.83 79.1218 22.8133 78.7684 23.72C78.4218 24.62 77.9284 25.4 77.2884 26.06C76.6484 26.72 75.8784 27.2367 74.9784 27.61C74.0784 27.9767 73.0784 28.16 71.9784 28.16C70.8851 28.16 69.8884 27.9767 68.9884 27.61C68.0884 27.2367 67.3151 26.72 66.6684 26.06C66.0284 25.4 65.5318 24.62 65.1784 23.72C64.8251 22.8133 64.6484 21.83 64.6484 20.77C64.6484 19.71 64.8251 18.73 65.1784 17.83C65.5318 16.9233 66.0284 16.14 66.6684 15.48C67.3151 14.82 68.0884 14.3067 68.9884 13.94C69.8884 13.5667 70.8851 13.38 71.9784 13.38C72.7118 13.38 73.4018 13.4667 74.0484 13.64C74.6951 13.8067 75.2884 14.0467 75.8284 14.36C76.3684 14.6667 76.8518 15.0433 77.2784 15.49C77.7118 15.93 78.0784 16.4233 78.3784 16.97C78.6784 17.5167 78.9051 18.11 79.0584 18.75C79.2184 19.39 79.2984 20.0633 79.2984 20.77ZM76.5484 20.77C76.5484 19.9767 76.4418 19.2667 76.2284 18.64C76.0151 18.0067 75.7118 17.47 75.3184 17.03C74.9251 16.59 74.4451 16.2533 73.8784 16.02C73.3184 15.7867 72.6851 15.67 71.9784 15.67C71.2718 15.67 70.6351 15.7867 70.0684 16.02C69.5084 16.2533 69.0284 16.59 68.6284 17.03C68.2351 17.47 67.9318 18.0067 67.7184 18.64C67.5051 19.2667 67.3984 19.9767 67.3984 20.77C67.3984 21.5633 67.5051 22.2767 67.7184 22.91C67.9318 23.5367 68.2351 24.07 68.6284 24.51C69.0284 24.9433 69.5084 25.2767 70.0684 25.51C70.6351 25.7433 71.2718 25.86 71.9784 25.86C72.6851 25.86 73.3184 25.7433 73.8784 25.51C74.4451 25.2767 74.9251 24.9433 75.3184 24.51C75.7118 24.07 76.0151 23.5367 76.2284 22.91C76.4418 22.2767 76.5484 21.5633 76.5484 20.77ZM91.4677 22.86C91.4677 23.6733 91.3677 24.4067 91.1677 25.06C90.9677 25.7133 90.6677 26.27 90.2677 26.73C89.8743 27.19 89.381 27.5433 88.7877 27.79C88.1943 28.0367 87.5043 28.16 86.7177 28.16C86.3577 28.16 86.0043 28.1367 85.6577 28.09C85.311 28.05 84.9477 27.9833 84.5677 27.89C84.5877 27.6233 84.611 27.3567 84.6377 27.09C84.6643 26.8233 84.6877 26.5567 84.7077 26.29C84.7277 26.1433 84.7843 26.0267 84.8777 25.94C84.9777 25.8467 85.1177 25.8 85.2977 25.8C85.411 25.8 85.5577 25.8233 85.7377 25.87C85.9243 25.9167 86.1577 25.94 86.4377 25.94C86.8177 25.94 87.1543 25.8867 87.4477 25.78C87.741 25.6667 87.9843 25.49 88.1777 25.25C88.3777 25.01 88.5277 24.7 88.6277 24.32C88.7277 23.9333 88.7777 23.4667 88.7777 22.92V13.54H91.4677V22.86ZM97.2514 28H94.5514V13.54H97.2514V28ZM112.679 13.54V28H111.299C111.086 28 110.906 27.9667 110.759 27.9C110.619 27.8267 110.482 27.7067 110.349 27.54L102.799 17.9C102.839 18.34 102.859 18.7467 102.859 19.12V28H100.489V13.54H101.899C102.012 13.54 102.109 13.5467 102.189 13.56C102.276 13.5667 102.349 13.5867 102.409 13.62C102.476 13.6467 102.539 13.69 102.599 13.75C102.659 13.8033 102.726 13.8767 102.799 13.97L110.379 23.65C110.359 23.4167 110.342 23.1867 110.329 22.96C110.316 22.7333 110.309 22.5233 110.309 22.33V13.54H112.679Z" fill="white"/>
<path d="M4.01951 3.45013V36.5499H6.73171C7.10894 36.5499 7.41463 36.6792 7.64878 36.938C7.88293 37.2111 8 37.5346 8 37.9084V40H0V0H8V2.09164C8 2.46541 7.88293 2.78886 7.64878 3.06199C7.41463 3.32075 7.10894 3.45013 6.73171 3.45013H4.01951Z" fill="#F2D750"/>
<path d="M128 40H120V37.9084C120 37.5346 120.117 37.2111 120.351 36.938C120.585 36.6792 120.891 36.5499 121.268 36.5499H123.98V3.45013H121.268C120.891 3.45013 120.585 3.32075 120.351 3.06199C120.117 2.78886 120 2.46541 120 2.09164V0H128V40Z" fill="#F2D750"/>
</svg>
