<svg id="Layer_2" data-name="Layer 2" xmlns="http://www.w3.org/2000/svg" viewBox="0 0 225.77 225.77"><defs><style>.cls-1{fill:#f3d750;}.cls-12,.cls-13,.cls-2{fill:#545432;}.cls-2{stroke:#000;}.cls-10,.cls-12,.cls-2,.cls-3,.cls-4,.cls-5,.cls-6,.cls-8,.cls-9{stroke-miterlimit:10;}.cls-3{fill:#a962a4;}.cls-10,.cls-12,.cls-3,.cls-4,.cls-5,.cls-6,.cls-8,.cls-9{stroke:#1d1d1b;}.cls-4{fill:#717443;}.cls-5{fill:#30180e;}.cls-6{fill:#e3b099;}.cls-7{fill:#c69b8b;}.cls-16,.cls-8{fill:none;}.cls-9{fill:#1d1d1b;}.cls-10,.cls-14{fill:#fff;}.cls-11{fill:#bf436d;opacity:0.53;}.cls-15{fill:#835082;}</style></defs><path class="cls-1" d="M75,10.93h86.17A64.09,64.09,0,0,1,225.27,75V225.27a0,0,0,0,1,0,0H75a64.09,64.09,0,0,1-64.09-64.09V75A64.09,64.09,0,0,1,75,10.93Z"/><path class="cls-2" d="M-258.92,231.13s-16.16,1.64-22.64,10.34S-305,290.06-305,290.06h37.85Z" transform="translate(372.98 -64.79)"/><polygon class="cls-3" points="225.27 164.68 187.65 139.86 135.18 157.09 107.06 225.27 225.27 225.27 225.27 164.68"/><path class="cls-4" d="M-264.57,227.59s24.35-6.18,32.12-7.94c0,0-16.41,32.47-19.59,42.35s-7.53,28.06-7.53,28.06h-11.35S-266.34,240.12-264.57,227.59Z" transform="translate(372.98 -64.79)"/><path class="cls-5" d="M-270,189.3c.45.81,2,10.79,2,10.79-1.85-3.41-3.22-1.19-8.47-10.53a37.72,37.72,0,0,1-1.06-35.36Z" transform="translate(372.98 -64.79)"/><path class="cls-6" d="M-185.34,187.53c-3.88,19.77-15.61,19.94-28,27s-25.41,9.88-33.53,9.88-9.52-4.94-12-12.35a133.68,133.68,0,0,0-11.29-24.7c-5.29-9.18-7.41-29-7.41-45.18,0,0,1.47-28,11.56-40.24s25.14-20.94,42.09-20,39.32,6.14,51.34,26.59c14.37,24.45,9.14,70.8-2.17,76.59C-182.76,189.24-185.34,187.53-185.34,187.53Z" transform="translate(372.98 -64.79)"/><path class="cls-7" d="M-176.75,162.88A14.07,14.07,0,0,0-182,171.8" transform="translate(372.98 -64.79)"/><path class="cls-5" d="M-241.92,139.24s12.95-6.47,19.53-6.71,10.23.24,21.17,6.71c0,0-11.06-2.71-16.7-2s-20,6.56-20,6.56Z" transform="translate(372.98 -64.79)"/><path class="cls-5" d="M-274.45,137.06s7.59-3.88,12.88,0l2.65,6.74s-6.16-3.42-11.3-3.39-9.09,1.3-11.34,3.39C-281.56,143.8-277.88,138.76-274.45,137.06Z" transform="translate(372.98 -64.79)"/><path class="cls-8" d="M-254.39,154.77s-5.08,16.23-6.31,19.88-1.22,5.41,1.78,7.53,4.88.11,4.53,1.82" transform="translate(372.98 -64.79)"/><path class="cls-8" d="M-254.86,191.94s1.29,1.65,2,0,.82-7.29.82-7.29" transform="translate(372.98 -64.79)"/><path class="cls-9" d="M-224.7,96.9s-7.59-1.58-19,4C-243.67,100.93-232.94,80.61-224.7,96.9Z" transform="translate(372.98 -64.79)"/><path class="cls-9" d="M-235.57,157s6.82-7.59,14.23-7a28.94,28.94,0,0,1,13,4.45,20,20,0,0,0-11.86-3.36,4.56,4.56,0,0,1,.94,2.87c0,1.8-.79,4.46-4,4.46a3.77,3.77,0,0,1-4-4,4,4,0,0,1,.75-2.32C-226.12,151.66-229.51,152.09-235.57,157Z" transform="translate(372.98 -64.79)"/><path class="cls-9" d="M-273.34,151.59s7.74-3.86,11.87,2.25c1.49,2.54-.51,3.87-1.22,3.87s-3.47-.35-3.47-3.26a11.54,11.54,0,0,1,.47-2.86S-267.39,150.37-273.34,151.59Z" transform="translate(372.98 -64.79)"/><path class="cls-9" d="M-181.28,147.24s-15.88,2-20.29,2.7-6,.89-12.35-1.76A51.57,51.57,0,0,0-233.51,145c-3.71.36-9.53,1.06-12.71,3.71s-4.94,1.94-7.94,1.76-3.35.18-6-2.29c-7.94-7.41-21.35-3.18-21.35-3.18s-.53,14,1.94,20.47,5.12,8.83,8.82,9,7.94-.35,9.89-3.7,5.05-12.24,5.35-13.41.65-1.65,1.7-1.53,2.95,0,3.3,1,.94,6.36,3.06,10.36,5.53,10.12,12.11,11.64,12.12,1.89,17.3-2.58,6.59-10.83,7.29-13.89.36-4.47,4.12-5.64,25.82-1.89,25.82-1.89Zm-81.53,22.29c-1.5,1.68-2.38,2.38-7,2.38s-7.81-4.5-8.67-9.13-3.33-14,2.23-16c0,0,6.18-1.61,9.62.69a12,12,0,0,1,5.82,10.07C-260.42,162.47-261.31,167.86-262.81,169.53Zm46.95-.7c-1.42,4.67-3.53,7.5-8.12,8.82s-9.36-.62-12.18-1.77-5-4.14-7.15-8.29a27.51,27.51,0,0,1-2.47-11.73c0-8.12,9.71-8.48,15.73-8.39s10.3,2.3,13.66,6.71S-214.45,164.15-215.86,168.83Z" transform="translate(372.98 -64.79)"/><path class="cls-5" d="M-147.72,227.86V178.09c0-1.32-2.91,0-2.91,0,.47-6-4.82-6.18-4.82-6.18,3.06-6,2.47-14.2,2.47-21,0-11.31-5.18-29.17-11.53-48S-195.1,81.47-195.1,81.47s-1.41-3.53-17.41-7.29c-38.59-7.77-58.12,28.23-63.06,37.41s-10.35,13.88-15.29,43.06,11.29,39.06,11.29,39.06c-10.59-16.94-2-47.53,6.59-56.24S-248,103.59-238.86,96.3s14.58,1.17,14.58,1.17,4-1.64,9.42,4.94,17.17,22.83,27.05,33.65,4.47,30.59,4.47,30.59l6.12-9.65s7.41-10.23,9.06,1.65-2.47,15.41-5.41,19.18-8.18,11.07-12.77,7a36.74,36.74,0,0,1-3.36,8.09l.53,3.41v31.57Z" transform="translate(372.98 -64.79)"/><circle class="cls-10" cx="110.68" cy="89.12" r="0.85"/><path class="cls-11" d="M-261.47,195.16s1.24,6.9,4.23,9.08,17.9,3.06,26.06-5a68,68,0,0,1-20.51-.79C-257.91,196.92-260,196.35-261.47,195.16Z" transform="translate(372.98 -64.79)"/><path class="cls-8" d="M-259.57,200.88c.94,1.89,1.94,4.2,5.82,4.77a29.7,29.7,0,0,0,15.94-1.82" transform="translate(372.98 -64.79)"/><path class="cls-11" d="M-261.47,194.45s3.34-1.57,4.75-1.57,1.24.56,2.65.83,1.41-.44,2.38-.44,17.87,6.07,21.2,5.9-11.23,1.51-20.76-.79S-261.47,194.45-261.47,194.45Z" transform="translate(372.98 -64.79)"/><path class="cls-8" d="M-262.75,193.71s1.06,2.35,6.71,3.76a66,66,0,0,0,26,1.65" transform="translate(372.98 -64.79)"/><polygon class="cls-12" points="174.94 211.15 154.47 209.98 148.47 225.27 174.94 225.27 174.94 211.15"/><path class="cls-4" d="M-228.75,290.06l13.21-24.24s25.51-36.2,32.68-46.35,9.88-12.82,12.47-7.76c0,0,2,8.59,7,11.53l15.62,5.29v61.53h-54.67s-6.12-5.65-10.12-9.41-4.35-3.18-6.35.12l-5.65,9.29Z" transform="translate(372.98 -64.79)"/><path class="cls-13" d="M-170.75,216.77a10.36,10.36,0,0,0,2.59,5.11,16.11,16.11,0,0,0,7.53,4.18s-23.65,23.65-28.94,31.3Z" transform="translate(372.98 -64.79)"/><path class="cls-6" d="M-189.7,192.88s.75,8.68,4.36,11.77c0,0-5.61,12-10.94,19.76-12.61,18.36-26.11,26.47-26.11,26.47-.7-4.7-9.88-28.6-9.88-28.6a109.63,109.63,0,0,0,11.75-5c5.18-2.71,13.45-6.25,19.4-11.56S-193.23,198.76-189.7,192.88Z" transform="translate(372.98 -64.79)"/><path class="cls-7" d="M-200.15,206.7-222.79,244l-7.62-21s5.3-2.16,15.13-7C-205.19,211.09-200.15,206.7-200.15,206.7Z" transform="translate(372.98 -64.79)"/><circle class="cls-14" cx="149.42" cy="88.55" r="0.85"/><path class="cls-15" d="M-229.66,231.13s-10.34,17.75-8.45,22.46c0,0-2.16,9.06,8.45,7.53l7.9-2.71a51.36,51.36,0,0,0-2.92-14.4C-227.41,236.41-229.66,231.13-229.66,231.13Z" transform="translate(372.98 -64.79)"/><path class="cls-3" d="M-231.75,224.41s-4.11.53-3.82,4.42c0,0-4.65.88-3.94,7.58a8.17,8.17,0,0,0-1.41,8.83c-3.36,2.47-1.71,6.94-1.71,6.94a10.05,10.05,0,0,0,1.65,10c.82,6,6.47,8.23,6.47,8.23,9.06,3.42,13.65-4.58,13.65-4.58,9.41,1.76,12-5.65,12-5.65,5.85-1.53,7.44-9.3,7.44-9.3a11.52,11.52,0,0,0,5.76-9.88c5.77-1.64,6.35-8.23,6.35-8.23a12.48,12.48,0,0,0,5.06-8.43c6.12-1.83,5.27-7.93,5.27-7.93,2.56-2.82,2.06-5.32,2.06-5.32,4.76-5.56.88-10.21.88-10.21.09-5.44-4-5.23-4-5.23-2.91-2.47-5.3-.35-5.3-.35-3-.71-3.83,1-3.83,1l1,3.76c5.4-2.57,5.27,2.57,4.29,3a9.06,9.06,0,0,0-4.76,8.16c-5.38,2.07-4.26,7.76-4.26,7.76-4.7,1.54-5.43,8.27-5.43,8.27a6.64,6.64,0,0,0-5.87,7.34,8.24,8.24,0,0,0-7,7.31c-6.86.28-8.14,6.86-8.14,6.86-6.53,1.59-6.26,5.48-6.26,5.48-3.18-1.24-4.59-1.41-8.12,0,0,0-1.88-3.24-.12-6.06,0,0,4.24-4.24,2.47-8.47,0,0,3.26-.32,3.05-5.59Z" transform="translate(372.98 -64.79)"/><path class="cls-15" d="M-238.69,263.06s1.59,4.77,5.94,5.53,7.8.06,11-5c0,0,3.95,1.59,7.37-.23s3.58-3.59,4.17-5.42c0,0,2.3.59,4.47-2.11a13.86,13.86,0,0,0,2.83-6.47,6.06,6.06,0,0,0,4.47-4s-3.59,3.12-5.47,2.71c0,0-1.3,5.53-3.59,6.73a5.89,5.89,0,0,1-3.77.86s-1.7,5.23-4.17,6.06a8.9,8.9,0,0,1-6.89-.48s-3.52,6.07-7,5.95S-234.22,267.18-238.69,263.06Z" transform="translate(372.98 -64.79)"/><path class="cls-14" d="M-244.19,149.59a8.22,8.22,0,0,0-2.34,6,25.94,25.94,0,0,0,1.17,7.58s-2.45-4.19-2.84-7.5c-.09-.86-1.19-.66-1.83-.68V152a4.1,4.1,0,0,0,2.07-.24A20.66,20.66,0,0,1-244.19,149.59Z" transform="translate(372.98 -64.79)"/><rect class="cls-16" width="225.27" height="225.27"/></svg>