<svg width="100" height="100" viewBox="0 0 100 100" fill="none" xmlns="http://www.w3.org/2000/svg">
<path d="M54.8079 35.9713C52.2372 37.7898 48.8038 37.8068 46.2152 36.0138L46.1539 35.9713L3.89711 6.70227C2.01118 5.39598 2.01006 2.60828 3.89493 1.30047C5.02201 0.51846 6.51625 0.518765 7.64299 1.30124L47.4359 28.9355C49.3129 30.209 51.7662 30.2492 53.6839 29.0379L53.8462 28.9355L91.6966 1.3783C92.8406 0.545425 94.3758 0.490833 95.576 1.24033C97.6784 2.55321 97.7655 5.5836 95.7419 7.01504L54.8079 35.9713Z" fill="#F2D750" fill-opacity="0.2"/>
<path d="M54.8079 65.9713C52.2372 67.7898 48.8038 67.8068 46.2152 66.0138L46.1539 65.9713L3.89711 36.7023C2.01118 35.396 2.01006 32.6083 3.89493 31.3005C5.02201 30.5185 6.51625 30.5188 7.64299 31.3012L47.4359 58.9355C49.3129 60.209 51.7662 60.2492 53.6839 59.0379L53.8462 58.9355L91.6966 31.3783C92.8406 30.5454 94.3758 30.4908 95.576 31.2403C97.6784 32.5532 97.7655 35.5836 95.7419 37.015L54.8079 65.9713Z" fill="#F2D750" fill-opacity="0.5"/>
<path d="M54.8079 96.9713C52.2372 98.7898 48.8038 98.8068 46.2152 97.0138L46.1539 96.9713L3.89711 67.7023C2.01118 66.396 2.01006 63.6083 3.89493 62.3005C5.02201 61.5185 6.51625 61.5188 7.64299 62.3012L47.4359 89.9355C49.3129 91.209 51.7662 91.2492 53.6839 90.0379L53.8462 89.9355L91.6966 62.3783C92.8406 61.5454 94.3758 61.4908 95.576 62.2403C97.6784 63.5532 97.7655 66.5836 95.7419 68.015L54.8079 96.9713Z" fill="#F2D750"/>
</svg>
