<svg width="100" height="100" viewBox="0 0 100 100" fill="none" xmlns="http://www.w3.org/2000/svg">
<path d="M45.1921 64.0287C47.7628 62.2102 51.1962 62.1932 53.7848 63.9862L53.8462 64.0287L96.1029 93.2977C97.9888 94.604 97.9899 97.3917 96.1051 98.6995V98.6995C94.978 99.4815 93.4838 99.4812 92.357 98.6988L52.5641 71.0645V71.0645C50.6871 69.791 48.2338 69.7508 46.3161 70.9621L46.1538 71.0645L8.30338 98.6217C7.15941 99.4546 5.62424 99.5092 4.424 98.7597V98.7597C2.32158 97.4468 2.2345 94.4164 4.25805 92.985L45.1921 64.0287V64.0287Z" fill="#F2D750" fill-opacity="0.2"/>
<path d="M45.1921 34.0287C47.7628 32.2102 51.1962 32.1932 53.7848 33.9862L53.8462 34.0287L96.1029 63.2977C97.9888 64.604 97.9899 67.3917 96.1051 68.6995V68.6995C94.978 69.4815 93.4838 69.4812 92.357 68.6988L52.5641 41.0645V41.0645C50.6871 39.791 48.2338 39.7508 46.3161 40.9621L46.1538 41.0645L8.30338 68.6217C7.15941 69.4546 5.62424 69.5092 4.424 68.7597V68.7597C2.32158 67.4468 2.2345 64.4164 4.25805 62.985L45.1921 34.0287V34.0287Z" fill="#F2D750" fill-opacity="0.5"/>
<path d="M45.1921 3.02866C47.7628 1.21018 51.1962 1.1932 53.7848 2.98616L53.8462 3.02866L96.1029 32.2977C97.9888 33.604 97.9899 36.3917 96.1051 37.6995V37.6995C94.978 38.4815 93.4838 38.4812 92.357 37.6988L52.5641 10.0645V10.0645C50.6871 8.79102 48.2338 8.7508 46.3161 9.96206L46.1538 10.0645L8.30338 37.6217C7.15941 38.4546 5.62425 38.5092 4.424 37.7597V37.7597C2.32158 36.4468 2.2345 33.4164 4.25805 31.985L45.1921 3.02866V3.02866Z" fill="#F2D750"/>
</svg>
