<svg width="44" height="40" viewBox="0 0 44 40" fill="none" xmlns="http://www.w3.org/2000/svg">
<path d="M4.01951 3.45013V36.5499H6.73171C7.10894 36.5499 7.41463 36.6792 7.64878 36.938C7.88293 37.2111 8 37.5346 8 37.9084V40H0V0H8V2.09164C8 2.46541 7.88293 2.78886 7.64878 3.06199C7.41463 3.32075 7.10894 3.45013 6.73171 3.45013H4.01951Z" fill="#F2D750"/>
<path d="M44 40H36V37.9084C36 37.5346 36.1171 37.2111 36.3512 36.938C36.5854 36.6792 36.8911 36.5499 37.2683 36.5499H39.9805V3.45013H37.2683C36.8911 3.45013 36.5854 3.32075 36.3512 3.06199C36.1171 2.78886 36 2.46541 36 2.09164V0H44V40Z" fill="#F2D750"/>
<rect x="9" y="8" width="26" height="2" rx="1" fill="white"/>
<rect x="9" y="19" width="26" height="2" rx="1" fill="white"/>
<rect x="9" y="30" width="26" height="2" rx="1" fill="white"/>
</svg>
