<svg width="40" height="97" viewBox="0 0 40 97" fill="none" xmlns="http://www.w3.org/2000/svg">
<path d="M3.45013 92.7205L36.5499 92.7205L36.5499 90.0083C36.5499 89.631 36.6793 89.3254 36.938 89.0912C37.2111 88.8571 37.5346 88.74 37.9084 88.74L40 88.74L40 96.74L0 96.74L-3.49691e-07 88.74L2.09164 88.74C2.46541 88.74 2.78886 88.8571 3.06199 89.0912C3.32075 89.3254 3.45013 89.631 3.45013 90.0083L3.45013 92.7205Z" fill="#595959"/>
<path d="M40 -1.75311e-06L40 8L37.9084 8C37.5346 8 37.2111 7.88293 36.938 7.64878C36.6793 7.41463 36.5499 7.10894 36.5499 6.73171L36.5499 4.01951L3.45013 4.01951L3.45013 6.73171C3.45013 7.10894 3.32075 7.41463 3.06199 7.64878C2.78886 7.88293 2.46541 8 2.09164 8L0 8L-3.49691e-07 -4.65207e-09L40 -1.75311e-06Z" fill="#595959"/>
<rect x="4.93994" y="61.1215" width="40" height="3" rx="1.5" transform="rotate(-45 4.93994 61.1215)" fill="#595959"/>
<rect x="6.93994" y="32.8372" width="40" height="3" rx="1.5" transform="rotate(45 6.93994 32.8372)" fill="#595959"/>
</svg>
