<svg width="40" height="44" viewBox="0 0 40 44" fill="none" xmlns="http://www.w3.org/2000/svg">
<path d="M3.45013 39.9805L36.5499 39.9805L36.5499 37.2683C36.5499 36.8911 36.6792 36.5854 36.938 36.3512C37.2111 36.1171 37.5346 36 37.9084 36L40 36L40 44L0 44L-3.49691e-07 36L2.09164 36C2.46541 36 2.78886 36.1171 3.06199 36.3512C3.32075 36.5854 3.45013 36.8911 3.45013 37.2683L3.45013 39.9805Z" fill="#595959"/>
<path d="M40 -1.74846e-06L40 8L37.9084 8C37.5346 8 37.2111 7.88293 36.938 7.64878C36.6792 7.41463 36.5499 7.10894 36.5499 6.73171L36.5499 4.01951L3.45013 4.01951L3.45013 6.73171C3.45013 7.10894 3.32075 7.41463 3.06199 7.64878C2.78886 7.88293 2.46541 8 2.09164 8L0 8L-3.49691e-07 0L40 -1.74846e-06Z" fill="#595959"/>
<rect x="28" y="31.8994" width="26" height="2" rx="1" transform="rotate(-135 28 31.8994)" fill="#595959"/>
<rect x="10" y="30.4854" width="26" height="2" rx="1" transform="rotate(-45 10 30.4854)" fill="#595959"/>
</svg>
