<svg width="97" height="40" viewBox="0 0 97 40" fill="none" xmlns="http://www.w3.org/2000/svg">
<path d="M4.01951 3.45013V36.5499H6.73171C7.10894 36.5499 7.41463 36.6792 7.64878 36.938C7.88293 37.2111 8 37.5346 8 37.9084V40H0V0H8V2.09164C8 2.46541 7.88293 2.78886 7.64878 3.06199C7.41463 3.32075 7.10894 3.45013 6.73171 3.45013H4.01951Z" fill="#F2D750"/>
<path d="M96.7402 40H88.7402V37.9084C88.7402 37.5346 88.8573 37.2111 89.0915 36.938C89.3256 36.6792 89.6313 36.5499 90.0085 36.5499H92.7207V3.45013H90.0085C89.6313 3.45013 89.3256 3.32075 89.0915 3.06199C88.8573 2.78886 88.7402 2.46541 88.7402 2.09164V0H96.7402V40Z" fill="#F2D750"/>
<rect x="28.7002" y="7.94" width="40" height="3" rx="1.5" fill="white"/>
<rect x="28.7002" y="18.94" width="40" height="3" rx="1.5" fill="white"/>
<rect x="28.7002" y="29.94" width="40" height="3" rx="1.5" fill="white"/>
</svg>
