<svg width="113" height="30" viewBox="0 0 113 30" fill="none" xmlns="http://www.w3.org/2000/svg">
<path d="M2.85326 1.92646V28.0571H6.06793C6.34692 28.0571 6.56884 28.1339 6.7337 28.2876C6.91123 28.4413 7 28.6279 7 28.8474V30H0V0H7V1.15258C7 1.37212 6.91123 1.55873 6.7337 1.71241C6.56884 1.85511 6.34692 1.92646 6.06793 1.92646H2.85326Z" fill="#595959"/>
<path d="M113 30H105V28.8474C105 28.6279 105.094 28.4413 105.283 28.2876C105.486 28.1339 105.746 28.0571 106.065 28.0571H109.739V1.92646H106.065C105.746 1.92646 105.486 1.85511 105.283 1.71241C105.094 1.55873 105 1.37212 105 1.15258V0H113V30Z" fill="#595959"/>
<path d="M73.3695 20.36C73.8695 20.36 74.2895 20.3 74.6295 20.18C74.9695 20.06 75.2395 19.9 75.4395 19.7C75.6461 19.5 75.7928 19.2667 75.8795 19C75.9728 18.7333 76.0195 18.45 76.0195 18.15C76.0195 17.8367 75.9695 17.5567 75.8695 17.31C75.7695 17.0567 75.6128 16.8433 75.3995 16.67C75.1861 16.49 74.9095 16.3533 74.5695 16.26C74.2361 16.1667 73.8328 16.12 73.3595 16.12H70.6495V20.36H73.3695ZM70.6495 10.08V14.26H72.7895C73.7095 14.26 74.4028 14.0933 74.8695 13.76C75.3428 13.4267 75.5795 12.8967 75.5795 12.17C75.5795 11.4167 75.3661 10.88 74.9395 10.56C74.5128 10.24 73.8461 10.08 72.9395 10.08H70.6495ZM72.9395 8C73.8861 8 74.6961 8.09 75.3695 8.27C76.0428 8.45 76.5928 8.70667 77.0195 9.04C77.4528 9.37333 77.7695 9.77667 77.9695 10.25C78.1695 10.7233 78.2695 11.2567 78.2695 11.85C78.2695 12.19 78.2195 12.5167 78.1195 12.83C78.0195 13.1367 77.8628 13.4267 77.6495 13.7C77.4428 13.9667 77.1761 14.21 76.8495 14.43C76.5295 14.65 76.1461 14.8367 75.6995 14.99C77.6861 15.4367 78.6795 16.51 78.6795 18.21C78.6795 18.8233 78.5628 19.39 78.3295 19.91C78.0961 20.43 77.7561 20.88 77.3095 21.26C76.8628 21.6333 76.3128 21.9267 75.6595 22.14C75.0061 22.3533 74.2595 22.46 73.4195 22.46H67.9595V8H72.9395Z" fill="#595959"/>
<path d="M59.1556 10.14V14.15H64.2156V16.22H59.1556V20.31H65.5756V22.46H56.4556V8H65.5756V10.14H59.1556Z" fill="#595959"/>
<path d="M54.68 8L50.19 22.46H47.76L44.6 12.58C44.5133 12.34 44.4333 12.0467 44.36 11.7C44.32 11.8667 44.28 12.0233 44.24 12.17C44.2 12.3167 44.1567 12.4533 44.11 12.58L40.92 22.46H38.48L34 8H36.25C36.4833 8 36.6767 8.05667 36.83 8.17C36.99 8.27667 37.0967 8.42333 37.15 8.61L39.61 17.26C39.6633 17.4733 39.7133 17.7067 39.76 17.96C39.8133 18.2067 39.8667 18.4667 39.92 18.74C39.9733 18.46 40.03 18.1967 40.09 17.95C40.1567 17.7033 40.2267 17.4733 40.3 17.26L43.14 8.61C43.1933 8.45667 43.2967 8.31667 43.45 8.19C43.61 8.06333 43.8033 8 44.03 8H44.82C45.0533 8 45.2433 8.05667 45.39 8.17C45.5367 8.28333 45.6467 8.43 45.72 8.61L48.55 17.26C48.69 17.6733 48.8167 18.15 48.93 18.69C49.0167 18.1633 49.1133 17.6867 49.22 17.26L51.68 8.61C51.72 8.44333 51.82 8.3 51.98 8.18C52.1467 8.06 52.3433 8 52.57 8H54.68Z" fill="#595959"/>
</svg>
