<svg width="113" height="30" viewBox="0 0 113 30" fill="none" xmlns="http://www.w3.org/2000/svg">
<path d="M2.85326 1.92646V28.0571H6.06794C6.34692 28.0571 6.56884 28.1339 6.7337 28.2876C6.91123 28.4413 7 28.6279 7 28.8474V30H0V0H7V1.15258C7 1.37212 6.91123 1.55873 6.7337 1.71241C6.56884 1.85511 6.34692 1.92646 6.06794 1.92646H2.85326Z" fill="#F2D750"/>
<path d="M113 30H105V28.8474C105 28.6279 105.094 28.4413 105.283 28.2876C105.486 28.1339 105.746 28.0571 106.065 28.0571H109.739V1.92646H106.065C105.746 1.92646 105.486 1.85511 105.283 1.71241C105.094 1.55873 105 1.37212 105 1.15258V0H113V30Z" fill="#F2D750"/>
<path d="M53.2099 8.54L48.7199 23H46.2899L43.1299 13.12C43.0432 12.88 42.9632 12.5867 42.8899 12.24C42.8499 12.4067 42.8099 12.5633 42.7699 12.71C42.7299 12.8567 42.6865 12.9933 42.6399 13.12L39.4499 23H37.0099L32.5299 8.54H34.7799C35.0132 8.54 35.2065 8.59667 35.3599 8.71C35.5199 8.81667 35.6265 8.96333 35.6799 9.15L38.1399 17.8C38.1932 18.0133 38.2432 18.2467 38.2899 18.5C38.3432 18.7467 38.3965 19.0067 38.4499 19.28C38.5032 19 38.5599 18.7367 38.6199 18.49C38.6865 18.2433 38.7565 18.0133 38.8299 17.8L41.6699 9.15C41.7232 8.99667 41.8265 8.85667 41.9799 8.73C42.1399 8.60333 42.3332 8.54 42.5599 8.54H43.3499C43.5832 8.54 43.7732 8.59667 43.9199 8.71C44.0665 8.82333 44.1765 8.97 44.2499 9.15L47.0799 17.8C47.2199 18.2133 47.3465 18.69 47.4599 19.23C47.5465 18.7033 47.6432 18.2267 47.7499 17.8L50.2099 9.15C50.2499 8.98333 50.3499 8.84 50.5099 8.72C50.6765 8.6 50.8732 8.54 51.0999 8.54H53.2099ZM57.6855 10.68V14.69H62.7455V16.76H57.6855V20.85H64.1055V23H54.9855V8.54H64.1055V10.68H57.6855ZM71.8994 20.9C72.3994 20.9 72.8194 20.84 73.1594 20.72C73.4994 20.6 73.7694 20.44 73.9694 20.24C74.1761 20.04 74.3227 19.8067 74.4094 19.54C74.5027 19.2733 74.5494 18.99 74.5494 18.69C74.5494 18.3767 74.4994 18.0967 74.3994 17.85C74.2994 17.5967 74.1427 17.3833 73.9294 17.21C73.7161 17.03 73.4394 16.8933 73.0994 16.8C72.7661 16.7067 72.3627 16.66 71.8894 16.66H69.1794V20.9H71.8994ZM69.1794 10.62V14.8H71.3194C72.2394 14.8 72.9327 14.6333 73.3994 14.3C73.8727 13.9667 74.1094 13.4367 74.1094 12.71C74.1094 11.9567 73.8961 11.42 73.4694 11.1C73.0427 10.78 72.3761 10.62 71.4694 10.62H69.1794ZM71.4694 8.54C72.4161 8.54 73.2261 8.63 73.8994 8.81C74.5727 8.99 75.1227 9.24667 75.5494 9.58C75.9827 9.91333 76.2994 10.3167 76.4994 10.79C76.6994 11.2633 76.7994 11.7967 76.7994 12.39C76.7994 12.73 76.7494 13.0567 76.6494 13.37C76.5494 13.6767 76.3927 13.9667 76.1794 14.24C75.9727 14.5067 75.7061 14.75 75.3794 14.97C75.0594 15.19 74.6761 15.3767 74.2294 15.53C76.2161 15.9767 77.2094 17.05 77.2094 18.75C77.2094 19.3633 77.0927 19.93 76.8594 20.45C76.6261 20.97 76.2861 21.42 75.8394 21.8C75.3927 22.1733 74.8427 22.4667 74.1894 22.68C73.5361 22.8933 72.7894 23 71.9494 23H66.4894V8.54H71.4694Z" fill="#F2D750"/>
</svg>
