<svg xmlns="http://www.w3.org/2000/svg" viewBox="0 0 551.07 218.85"><defs><style>.cls-1{fill:none;stroke:#231f20;}.cls-2{fill:#ccc;}.cls-3{fill:#999;}.cls-4{fill:#666;}.cls-5{fill:#333;}.cls-6{fill:#afdfe4;}</style></defs><g id="Layer_8" data-name="Layer 8"><path d="M584.1,331.9c-2.78-3.13-29.17,9.37-37.5,9.37s-51.39-10.41-67-13.19c-31.25-6.25-37.5,16.67-38.54,24.3s-8.68,15.63-24.3,4.52-42.37-33-77.09-34c-7.15-.21-54.86,6.25-75.35,6.6s-35.06-5.91-35.06-5.91,12.15-5.9,11.8-9.72-33.68,1.39-33.68,1.39,19.44-11.46,19.79-13.89-59.72,5.91-59.72,5.91,4.86-8,3.82-10.42-30.9,6.6-30.9,6.6,2.77-4.87,1-6.25-32.64,13.88-32.64,13.88.35-18.4-4.17-20.83-18.75,30.56-19.79,31.95-14.93,13.54-18.06,18.75c-1.53,2.56-11.11,23.26-13.54,26s-13.54,22.57-14.93,23.61c-2.73,2.05-1,7.29-.69,8.68s4.51,4.17,4.51,4.17.35,3.81,1.74,5.2,6.25,5.91,8.33,5.91,7,3.12,9.38-2.43,17-21.88,21.18-25.7,17.36-4.86,24.65-9.37c4.77-3,14.58-12.5,16.32-13.89s15.28,7.64,19.79,10.76S156.32,384,159.79,388.5s5.21,13.88,5.9,17.36-4.16,21.52-4.51,24.65-5.56,15.62-5.56,18.75,9.38,9,11.81,10.07,8.68-1,13.89-1.74,27.08-.35,27.08-.35,2.43,5.56,7.64,8S237.92,477,237.92,477s-6.25,3.12-9,8.33-9.72,5.56-11.46,5.56-7,4.16-9.38,5.9-3.82,7.29-3.82,7.29l27.09,1s1-7.64,2.08-9.37,11.81.69,11.81.69l9.37-5.21s4.86,5.21,7.29,5.91,8.34.34,8.34.34,4.51,4.86,8.68,5.91,16.66,2.43,19.79,1-5.21-8.68-5.21-8.68-10.07-12.16-11.8-13.2-9,1.39-9,1.39l-4.52-5.21c3.82-3.12,22.92-8.68,28.13-9s29.86,9,29.86,9,21.53-29.86,24-32.29,29.17-9.37,41.67-24.65c7.3-8.94,22.91-28.47,29.16-33s15.28-1,31.6-1.39,18.4-6.59,25.69-16,16-.69,23.27,1,27.43,8.34,58.33.7S586.87,335,584.1,331.9ZM183.75,447.18c-2.78-.35-6.95-9-6.95-9l9-14.59s8.33,9,11.11,11.46,8.34,12.16,8.34,12.16S186.53,447.52,183.75,447.18ZM306,414.88c-3.82,7.3-11,26.88-21.87,34.73-6.25,4.51-12.16,1.39-15.28,2.77s-19.1,12.5-19.1,12.5-4.51-2.43-5.9-4.16-3.82-4.17-3.82-4.17l5.21-3.12,3.82-5.21s6.25-.7,7.29-1.39,11.8-12.15,11.11-14.24-25.35-3.82-26.74-3.12-3.12,8-5.21,9.37l-3.12,2.09s-2.43-5.91-2.43-9.38.69-9.37.69-9.37c1.39.34,32.64-1.39,36.11-2.43s34.38-11.12,37.5-11.12S309.79,407.59,306,414.88Z" transform="translate(-34.84 -286.32)"/></g><g id="Layer_2" data-name="Layer 2"><path class="cls-1" d="M107.36,307.78s30.9-15.28,32.64-13.89-1,6.25-1,6.25,29.86-9,30.9-6.6S166,304,166,304s60.07-8.34,59.72-5.9S206,311.94,206,311.94s33.33-5.2,33.68-1.38-11.8,9.72-11.8,9.72,14.58,6.25,35.07,5.9,68.19-6.81,75.34-6.6c34.73,1,61.46,22.92,77.09,34s23.26,3.13,24.3-4.51,7.29-30.56,38.54-24.31c15.63,2.78,58.68,13.2,67,13.2s34.72-12.5,37.5-9.38,6.6,33.68-24.31,41.32-51,1-58.33-.69-16-10.42-23.27-1.05-9.37,15.63-25.69,16-25.35-3.13-31.6,1.39-21.85,24.05-29.16,33c-12.5,15.28-39.24,22.22-41.67,24.65s-24,32.3-24,32.3-24.65-9.38-29.86-9-24.3,5.9-28.12,9l4.51,5.2s7.29-2.43,9-1.38,11.8,13.19,11.8,13.19,8.34,7.29,5.21,8.68-15.62,0-19.79-1-8.68-5.9-8.68-5.9-5.9.34-8.33-.35-7.3-5.9-7.3-5.9l-9.37,5.2s-10.77-2.43-11.81-.69-2.08,9.38-2.08,9.38l-27.08-1.05s1.38-5.55,3.82-7.29,7.63-5.9,9.37-5.9,8.68-.35,11.46-5.56,9-8.33,9-8.33-16.67-9.37-21.88-11.81-7.64-8-7.64-8-21.87-.35-27.08.35S168.47,457.08,166,456s-11.8-6.94-11.8-10.07,5.2-15.62,5.55-18.75S165,406,164.3,402.57s-2.43-12.85-5.9-17.36-11.8-11.46-16.32-14.59S124,358.47,122.29,359.86,110.74,370.8,106,373.75c-7.29,4.51-20.49,5.56-24.65,9.37s-18.75,20.14-21.18,25.7-7.29,2.43-9.38,2.43-6.94-4.51-8.33-5.9-1.74-5.21-1.74-5.21-4.16-2.78-4.51-4.17-2-6.63.69-8.68c1.39-1,12.5-20.83,14.93-23.61s12-23.48,13.55-26c3.12-5.21,17-17.36,18.05-18.75s15.28-34.38,19.79-31.95S107.36,307.78,107.36,307.78Z" transform="translate(-34.84 -286.32)"/><path class="cls-1" d="M229.23,418.89c1.39.35,32.64-1.39,36.12-2.43s34.37-11.11,37.5-11.11,5.55-1,1.73,6.25-11,26.87-21.87,34.72c-6.25,4.51-12.16,1.39-15.28,2.78s-19.1,12.5-19.1,12.5-4.51-2.43-5.9-4.17-3.82-4.17-3.82-4.17l5.21-3.12,3.82-5.21s6.25-.69,7.29-1.39,11.81-12.15,11.11-14.23-25.35-3.82-26.74-3.13-3.12,8-5.2,9.38L231,437.64s-2.43-5.9-2.43-9.38S229.23,418.89,229.23,418.89Z" transform="translate(-34.84 -286.32)"/><path class="cls-1" d="M184.44,420.28l-9,14.58s4.16,8.68,6.94,9,21.53,0,21.53,0-5.56-9.72-8.34-12.15S184.44,420.28,184.44,420.28Z" transform="translate(-34.84 -286.32)"/></g><g id="Layer_6" data-name="Layer 6"><path class="cls-2" d="M201.67,381c.66,3,2,22.67,3,26.67s9.66,23,11,30S219,456.33,220.33,458s6.34,4,8,5.33,9.67,6.34,11,7.34,4.34,2.33,5,.33-8.33-17.33-9.66-20-11.67-26-3.34-38.67c2-3,1-35.33,1-35.33s18.67.67,23,9.33,7.67,16.34.34,23,17.66-1,24.66-4.33S311,393.67,311,393.67s5-8.67,5-12.34-3.67-4-3.33-7,3.66-5.33.33-10-57.33-4.66-57.33-4.66-39.34-2.67-40.67.66S201.67,381,201.67,381Z" transform="translate(-34.84 -286.32)"/><path class="cls-2" d="M345,367.33s13.33-7.66,25.67-7S413,362.67,413,362.67s7.33,7.33,16.33,8.33,17.34,1.33,20-3,1.67-22.33,7.34-26,22-5,22-5,37.66,9.67,44.66,11,30,4,35.67.67S577.67,337,577.67,337s4-2.67,4-1-2.34,10.67-2.34,10.67S573,356.33,568.67,360s-14,6.33-21,7.33-20.34,3-34.67-.33-33-9-35.67-7.67-11.66,17.34-14,18.67-14.66,3.33-18,3.33-24-.66-26-.33-17,19.67-20,23.67-28.33,26-30.66,26.66S343.33,442,343.33,442s-12.42,4.8-15,9c-6.33,10.33-24,7-26.66,7.33s-28,11.67-29.34,12.34-20.66,16-22.66,17-10.67,2.66-10-2,1.66-6.34,1.66-6.34l24.34-12.66s26-8.67,28.66-11S298,444.67,298,443s23.67-22.33,23.67-22.33,3.66-12,8.66-18,15.67-20,15.67-23.34-4.67-11.66-4.67-11.66Z" transform="translate(-34.84 -286.32)"/><path class="cls-2" d="M101.33,293c1,.67-5.66,3.67-9.66,17.67s-4.67,25.33-4,29S96.67,351,95,358a108.55,108.55,0,0,1-5.33,15.33l-2,2.34s14.66-3.34,18.66-6.34S121,356,121,356l2.33.67a83.81,83.81,0,0,0-2.33-10C119.33,341,116.33,333,116.33,333L113,325.33,103,327l-2.33-3.67S104,305,104,301.67,101.33,293,101.33,293Z" transform="translate(-34.84 -286.32)"/><path class="cls-2" d="M38.83,389.57a11,11,0,0,0-2,3.33s-1.46-.27-1.2.39.4,4.27,1.87,4.4,3.33-1.47,3.33-1.47L42,392.9s1.06-2.53.53-2.8-1.6,2.66-1.6,2.66-.27,4.26-2.13,3.33-2.13-1.2-.8-2.8,2-1.06,2-1.06l1.73-2.53Z" transform="translate(-34.84 -286.32)"/><path class="cls-2" d="M68.66,378.38s-9.72,10.12-11,12.12-3.87,16.38-3.87,16.38,5.73-1.47,7.46-6.53,13.45-20.5,13.45-20.5a31,31,0,0,1-4.26-.27A2.36,2.36,0,0,1,68.66,378.38Z" transform="translate(-34.84 -286.32)"/><path class="cls-2" d="M67.19,341.63l-4.66,10.65s2.13-2.53,2.67-1.46,0,9.18-5.06,16.24c4.92-4.79,6.52-12.65,7.32-15.71s1.2-7.06,1.73-8.39-.66-.13-1.73-.27S67.19,341.63,67.19,341.63Z" transform="translate(-34.84 -286.32)"/><path class="cls-2" d="M135.77,312.06s1.2,3.07,2.4,3.87,4.13-.67,4.13-.67,14.78-7.19,16.38-8.92,1.73-2.27,1.73-2.27l2.4-4.12s-10.39,3.33-11.32,3.86S135.77,312.06,135.77,312.06Z" transform="translate(-34.84 -286.32)"/><path class="cls-2" d="M179.05,312.06a7.07,7.07,0,0,0,.93,2.4c.54.53,16.78-2.53,18-2.8s13.72-4.12,15.72-5.85,4-3.73,4-3.73-13.32,4.79-18.78,6.12-19.7,3.2-19.7,3.2Z" transform="translate(-34.84 -286.32)"/><path class="cls-2" d="M200.62,317.92l5.86,1.87s18.78-1.87,21.58-2.53,6.92-2.8,6.66-3.86-2.67.53-6.13,1.46-19.44,2.66-21.57,2.93A56.53,56.53,0,0,1,200.62,317.92Z" transform="translate(-34.84 -286.32)"/><path class="cls-2" d="M217.14,327.25s27.56,4.52,27.3,6.39-21.31,2.66-21.31,2.66,4.53-1.46,4.53-2.93S217.14,327.25,217.14,327.25Z" transform="translate(-34.84 -286.32)"/><path class="cls-2" d="M374.54,330c.4.67,1.06,1.47.53,1.73a21.9,21.9,0,0,1-3.73.4s20.38,11.45,23.17,13.45,22.64,15.85,24.11,16.78,7.05,4.4,10.78,4c-2-.8-8.25-1.87-14.91-8S399.71,343.48,395.71,341C380.93,331.64,374.54,330,374.54,330Z" transform="translate(-34.84 -286.32)"/><path class="cls-2" d="M445.65,343.49a95.42,95.42,0,0,0-1.2,9.59c0,2.53,0,8.79-.93,10.39s-.54-.67-2-2.27-1.86-1.6-1.6-2.79.93-6.93.93-7.33.27-4.66.94-5.19S445.65,343.49,445.65,343.49Z" transform="translate(-34.84 -286.32)"/><path class="cls-2" d="M245.77,431.3s-1.52,3.93-1.77,5.07-.51,5.32-.25,5.82,6.2-2.53,7.85-3.8,7-8.1,7-8.1l.63,1.26,3.42-.38.76-2.15s-10.39,1.39-11.27,1.39S245.77,431.3,245.77,431.3Z" transform="translate(-34.84 -286.32)"/><path class="cls-2" d="M174.06,442.57l-3.16,3.93s0,6.59.38,6.46,7.85-.38,7.85-.38l8,.64,2.92-2s-5.32-1.77-10.65-3.17S174.06,442.57,174.06,442.57Z" transform="translate(-34.84 -286.32)"/><polygon class="cls-2" points="234.62 166.65 231.45 166.14 214.73 180.21 215.74 181.47 225.25 175.64 234.62 166.65"/><path class="cls-2" d="M279,484.51a75,75,0,0,0,3.92,7.6c1.14,1.52,9.76,5.45,9.76,5.45l-.63-2.41s-7.86-9-9.13-9.88S279,484.51,279,484.51Z" transform="translate(-34.84 -286.32)"/><path class="cls-2" d="M222,499.21s1,1.9,1.53,2.15,6,0,6,0,.63-9.25,1.14-9.63a1.51,1.51,0,0,0-.51-2.28c-1-.63-4.56.38-4.81,1.14S222,499.21,222,499.21Z" transform="translate(-34.84 -286.32)"/><path class="cls-2" d="M166,388.86l-2.16,3.93,5.83,7.6-.89-5.2c-.25-1.52-.38-4.56-.5-5.06S166,388.86,166,388.86Z" transform="translate(-34.84 -286.32)"/><path class="cls-2" d="M136.56,298.4c.51-.25,4.69-3,4.69-3s-.89-1.14-3.29-.89a54,54,0,0,0-6.21,1.27s-2.41,4.69-14.7,11.53C123.77,304.1,136.56,298.4,136.56,298.4Z" transform="translate(-34.84 -286.32)"/><path class="cls-2" d="M147.21,299.16a5.74,5.74,0,0,1-2.54,3c-1.9,1-5.32,3-5.32,3l25.85-6.84s5.44-2.91,5.32-3.8-.89-1.14-5.45-.38S147.21,299.16,147.21,299.16Z" transform="translate(-34.84 -286.32)"/><path class="cls-2" d="M180.27,303.85a17,17,0,0,1-3.67,2.28c-2,.88-9,2.78-9,2.78l25-4.18s-8.74.89-10,.38A11.24,11.24,0,0,1,180.27,303.85Z" transform="translate(-34.84 -286.32)"/><path class="cls-2" d="M246.15,325.64s10.27.76,15,1,21.67-.12,21.67-.12,1.14,0,1,.63-14.06,3-19.76,3-16.85-1-17.74-1.77S246.15,325.64,246.15,325.64Z" transform="translate(-34.84 -286.32)"/></g><g id="Layer_5" data-name="Layer 5"><path class="cls-3" d="M421.86,379.6c-2.64,0-10.86.14-13.21,2.79s-19.26,23.17-26.57,29.8c-14.24,12.91-33.32,18.64-38.61,21s-21.43,11.3-20.26,13.06,7.2-2.2,7.49-1-6.16,8.67-7.63,9.25-7.49,4.26-12.19,2.21-1.61-3.23-1.61-3.23-9.25.88-10.72,1.32-4.69,4.4-5.87,5.13-26.28,13.95-27.45,15-13.8,9.69-15.27,10.27a7.65,7.65,0,0,1-3.81,0s-2.35,1.77-3.53,1.91-3.23.15-3.23.15,1.45,3.69,2.94,4.84,7.78-2.79,7.78-2.79l16.63-13.76s22.33-10.86,29.61-12.95c11.74-3.38,22.61-2.65,24.37-3.53s10.28-8.66,13.36-11,32.73-16.88,37.43-20.25,30.34-25.24,37.73-41.25C411.88,380.77,421.86,379.6,421.86,379.6Z" transform="translate(-34.84 -286.32)"/><path class="cls-3" d="M343.47,374.61c1.21,1.48.59,4.84-2.2,9.1s-13.36,27.74-14.53,30.68-7.64,21-13.95,25.1-7,5.29-10,3.23-3.67-2.35-4.7-1.47-1.32,7.64-1.32,7.64l-11.6,8.8c-3.67,2.79-30.09,15.42-34.35,16.44h0s31-19.67,39.64-28.33,10.86-15.12,11.6-17.61,7.78-21.29,11.59-26.87,4.26-8.22,3.53-8.95-1.91.44-1.91.44,1-4,1.91-4.4S341,371.52,343.47,374.61Z" transform="translate(-34.84 -286.32)"/><path class="cls-3" d="M254.66,410.87s14.39-2.65,19.67-4.7,10.28-5,13.21-6.31a103.15,103.15,0,0,1,14.39-4.7c4.4-1,4.7-4,7.93-3.08s4.55.73,3.81,3.52-9.68,5.58-12.47,6.46-31.56,10.57-35.09,11.3-8.36.74-9.69-.44A7.85,7.85,0,0,1,254.66,410.87Z" transform="translate(-34.84 -286.32)"/><path class="cls-3" d="M221,489.67c-1.27,1.05-3.48.17-5.24,1.05s-9.54,9.69-9.54,9.69,8.07-.29,10-.59,6.32-.44,6.32-.44c.4-.45.49-5.09.32-5.87a33.14,33.14,0,0,0-1.84-3.84" transform="translate(-34.84 -286.32)"/><path class="cls-3" d="M220.73,460.49a32.4,32.4,0,0,1,4.91-.4c.61.2.71,2.41.4,2.21S220.73,460.49,220.73,460.49Z" transform="translate(-34.84 -286.32)"/><path class="cls-3" d="M200.87,448.46l2.4,2.7s-8.92.81-12.64.2-11.73-2.8-13.14-5.41c3.11.5,11.94,3.81,17.46,3.41S200.87,448.46,200.87,448.46Z" transform="translate(-34.84 -286.32)"/><path class="cls-3" d="M168.06,433.11l3.32-23.28S168,423.58,167,425.88s-3.91,10.64-6.42,13.25a12.73,12.73,0,0,0-3.41,7.42c1.61-2.21,6.12-3.81,7.93-3.41a6.23,6.23,0,0,1,3.1,2.11Z" transform="translate(-34.84 -286.32)"/><path class="cls-3" d="M119.72,350.45c.3.2,2.1,3.51,2.5,3.91s1.71.21,1.71.21l7.32,5.31-9.63-2.21-2.51,2.51L97.55,375.23s-9.53,2.21-9.23,1.7a16.11,16.11,0,0,0,.8-2.3s12.06-3.09,16.25-6.72C115.9,358.78,119.72,350.45,119.72,350.45Z" transform="translate(-34.84 -286.32)"/><path class="cls-3" d="M119.61,310.93s-10,4.51-10.13,5.42,1.71,1.3,1.71,1.3-4.31.6-4.42-.5,11-7.32,12.24-8.23,14.75-8.22,14.75-8.22l-7.63,7.62a6.75,6.75,0,0,1-2.8,1.81Z" transform="translate(-34.84 -286.32)"/><path class="cls-3" d="M98.25,300.5c.4.3,2.81-5.22,3-4.82s.7,5.72.7,5.72,0-6.72-.4-6.72S98.25,300.5,98.25,300.5Z" transform="translate(-34.84 -286.32)"/><path class="cls-3" d="M122.62,312.74s-3.21,1.9-2.7,2.3,14-2.5,15.64-3.11,19.06-8.72,19.06-8.72-29.49,10.13-31.09,9.83S122.62,312.74,122.62,312.74Z" transform="translate(-34.84 -286.32)"/><path class="cls-3" d="M163.15,306.22s-20.56,8.12-20.36,8.62,10.53,1.41,17.25.81,20.66-3,20.66-3l-1.5-1.51s-21.37,2.71-24.38,2.81-8.12.8-8.22.3S163.15,306.22,163.15,306.22Z" transform="translate(-34.84 -286.32)"/><path class="cls-3" d="M179.4,319.06s-9.33-.1-9.33-1,4.61-2.2,5.72-2.2,22.07,1.7,26.58,1.2,23.87-2.91,23.87-2.91A131,131,0,0,1,201,318.35c-12.94.71-24.18-.8-24.38-.4S179.4,319.06,179.4,319.06Z" transform="translate(-34.84 -286.32)"/><path class="cls-3" d="M215,326.48s30.49,5.82,30.39,7.12-25.47,2.31-25.47,2.31,7.62-1.21,7.62-1.81-6.72-2.51-6.72-2.51,2.41-.8,2.41-1.3S215,326.48,215,326.48Z" transform="translate(-34.84 -286.32)"/><path class="cls-3" d="M332.77,324.07l1.11,1.31s14.54-.31,25.68,4.21,43,21.47,43,21.47S373,331.6,359,327.68A99.66,99.66,0,0,0,332.77,324.07Z" transform="translate(-34.84 -286.32)"/><path class="cls-3" d="M503.8,337.51s9.53,3.31,11.34,3.81,13.24,2.11,13.24,2.11-10-2.31-12.44-3.11S503.8,337.51,503.8,337.51Z" transform="translate(-34.84 -286.32)"/><path class="cls-3" d="M166.09,450.51c.75.4,3.67-1.15,4.47-3.66s3.21-2.66.2-4-2.81,1.61-3.21,2.81S165.34,450.11,166.09,450.51Z" transform="translate(-34.84 -286.32)"/><path class="cls-3" d="M274,489.36l3,7.68h10.2l-3.05-3.38a6.4,6.4,0,0,0-3.44-.66c-2.12.13-2.45.79-3.57-.13A33.3,33.3,0,0,1,274,489.36Z" transform="translate(-34.84 -286.32)"/><path class="cls-3" d="M260.91,484.33c1-.06,3.38,2.38,3.18,3.11a4.37,4.37,0,0,1-4.3,2.32c-2.45-.2-3.91-2-3.91-2.58S259.72,484.4,260.91,484.33Z" transform="translate(-34.84 -286.32)"/></g><g id="Layer_3" data-name="Layer 3"><path class="cls-4" d="M98.68,294.93s-11.81,25.35-13.54,32.64S73.68,335.9,71.6,339.72s-3.82,22.22-9,27.09S47.64,381,44.86,385.56a27.38,27.38,0,0,0-3.47,9.37l2.78-.69.69,7.29,3.82-1,1,3.82a15.13,15.13,0,0,0,5.21-2.78c1.74-1.74,1-13.54,7.29-19.1s7-13.54,18.75-12.5c8.65.76,19.1-11.11,20.83-12.15s12.5-9.72,12.85-12.85,2.43-5.21,4.86-3.47,17.36,16.32,21.53,18.75,23.61,13.54,23.61,17-.69,6.95-1.73,7.64-.35,4.86-.35,4.86,12.15-15.62,13.19-13.54-5.9,9-6.25,13.54,1.74,11.81,1.74,11.81l27.43,32.64s-16.67-22.57-19.1-25.7-12.5-13.19-2.78-8,21.88,13.19,26.39,11.11,2.43-4.86-.69-8.68-7.29-11.11.35-19.1,14.23-20.83,27.77-19.1,38.89,4.52,48.61,4.17,26.74-6.25,28.82-6.25,10.77,2.78,15.63,2.78,10.42-.35,14.24,1.73a42.62,42.62,0,0,1,5.55,3.48s12.5-3.82,15.63-4.17,37.15-3.13,43-2.78,35.42,9.38,40.28,9.72S456,371,457.71,368.54s-1.39-4.51-1.39-4.51l1.73-4.52-3.82-.69,6.95-5.56-3.47-1.73s-.35-6.6,5.2-8,6.25-8.33,34.73-.69,41.32,11.8,52.08,10.76,16.67-2.78,20.49-5.9S577.5,339,577.5,339,563.26,346,557,346.67s-10.76,5.55-42-3.13-41.67-10.07-47.92-8.33-18.75,2.78-19.79,11.11-.81,17.13-3.13,19.44c-5.2,5.21-11.8,7.64-32.29-4.16-22.21-12.8-30.9-20.84-53.12-26.74s-21.18-2.43-24.66-2.78-8.33-4.16-10.76-3.47-43.75,11.11-51,11.81-47.22-3.48-50.35-3.82-15.28-3.13-7.64-4.52-12.5-6.94-18.05-6.94-81.95-.35-84.72-1,.34,6.94.34,6.94-5.55-4.51-6.59-5.21a40.63,40.63,0,0,0-5.21-2.08s-1.39,7.29-3.47,8-13.89,3.47-5.56-7.29,13.19-19.1,3.82-10.07-2.78-1.05-2.78-1.05Z" transform="translate(-34.84 -286.32)"/><path class="cls-4" d="M176.33,417c-3-1-1.16,3-2,3.83s-7.66,9.5-7.83,11-.33,9.5.17,10.34,1,3.5.66,4.16-2.32,3-1.66,3.67c2.16,2.33,5.33-2.67,6.5-5.83a5.57,5.57,0,0,1,2.5-2.5s-3.5.5-4.34-1.84-1.16-4.83,3-11.66S179.33,418,176.33,417Z" transform="translate(-34.84 -286.32)"/><path class="cls-4" d="M203.5,429.5c-1.17,0-1.83,1-2.33,1a6.79,6.79,0,0,0-1.67.5s2.33,8.67,4,9.5a5.52,5.52,0,0,1,3,6c-.5,3.17,1.67-3.83,3.83-3.83s10.34.16,12.84-3.34a9.51,9.51,0,0,1-3-3c-1.67-2.33-2.84-4.66-4.34-5.16s-4.33-.5-6.5-.67A54.65,54.65,0,0,1,203.5,429.5Z" transform="translate(-34.84 -286.32)"/><path class="cls-4" d="M280.5,460.67S254,473.17,249.67,474c-2.71.52-3.84,3-4.5,3.33s-9.84,1-11,1.84-5.67,6.33-6.34,7-6.83,3.5-6.83,3.5-.5,9.33,1,9.83,4-1.5,5.17-4,.5-7,1.66-8.33,15.84-7.5,16.34-7.5,4.5-.67,5.66-1.5S280.5,460.67,280.5,460.67Z" transform="translate(-34.84 -286.32)"/><path class="cls-4" d="M268.83,486.17c-1-.34-4,1.83-6,2.66s-7.66-1.83-7.66-1.83l9.16-8.17-10.5,7.84s4.84,4.33,5.84,4.5,7.16-2.17,7.66-2.17,1.17,1.67,1.17,1.67a3.33,3.33,0,0,1,2.83.16c1.17.84,5.67,7.17,5.67,7.17s12.5.67,13.33.67a26,26,0,0,1,4.5,1.66l-4.5-4.83s-.33.33-1.83.5-10.67.33-10.67.33-3.66-6.33-4.16-7.16-3.84-1.84-3.84-1.84Z" transform="translate(-34.84 -286.32)"/><path class="cls-4" d="M334.67,396.33s-9.84,24.52-11.75,28.63-8.95,15.85-14.53,17.76-7.34-1.17-8.08-1.76-3.22-.15-3.37,1.76-.15,6.17-.15,6.17,7.63-2.06,10-2.65,11.16-8.36,12.63-10.42,6.6-6.17,7.19-6.9,2.64-5.28,2.94-5.87,3.67-6.9,3.81-8.81,3.52-9.7,2.21-9.25C330.41,406.75,334.67,396.33,334.67,396.33Z" transform="translate(-34.84 -286.32)"/></g><g id="Layer_4" data-name="Layer 4"><path class="cls-5" d="M92.78,308.82s-2.09,4.86-2.09,8,2.43,4.86.7,7.29,4.16-3.47,6.25-7.64a25,25,0,0,0,2.43-8s-4.17,4.17-6.6,6.95S92.78,308.82,92.78,308.82Z" transform="translate(-34.84 -286.32)"/><path class="cls-5" d="M89.3,332.43s-1.39,5.56-.69,8,8.33,6.94,6.6,13.19a31,31,0,0,0-1.39,10.07S111.87,351.53,114,346s-1-11.46-2.43-13.54-11.81-8.68-11.81-8.68,0,6.6-3.12,8.68S89.3,332.43,89.3,332.43Z" transform="translate(-34.84 -286.32)"/><path class="cls-5" d="M112.57,324.45s-1,0,0,2.77,6.59,13.89,6.59,13.89-1.38-1.39-2.43-1-7.29-12.5-7.29-12.5l-.69-4.17Z" transform="translate(-34.84 -286.32)"/><path class="cls-5" d="M122.29,325.14s49.65-1.39,55.21-1,32.29,4.16,32.29,4.16-3.47-1.73-6.6,3.48S191,350.49,187.57,350.83s-26-12.84-31.95-14.58S122.29,325.14,122.29,325.14Z" transform="translate(-34.84 -286.32)"/><path class="cls-5" d="M216.73,337s-14.93,28.81-16.66,34.72,2.08,14.23,2.08,14.23,13.89-20.83,20.14-21.52,42.71,5.2,53.12,4.51,30.56-5.56,31.95-5.56,17,2.78,19.79,2.43,12.85-.34,16,4.87c0,0,22.57-6.25,32.3-6.6s33.67-1.39,36.8-.35-35.07-22.92-42.36-25-31.6-7.29-35.42-6.94-9.37-3.13-11.8-2.78-33.74,7.74-44.45,10.42C261.53,343.54,216.73,337,216.73,337Z" transform="translate(-34.84 -286.32)"/><path class="cls-5" d="M259.25,430.5s-5.5,8.62-7.37,9.25-9.26,2.75-9.88,4.13-2,4-2.88,4a46.79,46.79,0,0,1-5.5-1.5l3.63,6.5s4.67,1.32,6.63-7c.5-2.13,5.5-3.26,6.12-3.26s4.25.26,4.62-.12,7.76-8.75,8.63-11-1.5.38-2.75.38S259.25,430.5,259.25,430.5Z" transform="translate(-34.84 -286.32)"/><polygon class="cls-5" points="190.28 152.68 184.28 156.18 186.78 155.68 194.28 159.18 192.16 154.68 189.66 153.68 190.28 152.68"/><path class="cls-5" d="M212.88,430.75s1.87,2.75,1.87,4-1.5,5.63.37,6.37,5.26-.87,5.26-.87l2.74-1.25a6.59,6.59,0,0,1-3.24-2.75c-1.5-2.25-2-4.37-3-4.63S212.88,430.75,212.88,430.75Z" transform="translate(-34.84 -286.32)"/><path class="cls-5" d="M237.75,459.25s7.63,9,7.13,9.75-5.38,3.75-5.38,3.75,7.75-1.37,8-2S237.75,459.25,237.75,459.25Z" transform="translate(-34.84 -286.32)"/><path class="cls-5" d="M280.88,460.5s-27.26,17-29.76,17.75-9.62,3.87-10.5,4.13l-.87.24-.25-3.74s3.62.24,5.12-1.13,13.88-9,13.88-9-7.44,4.64-7.66,5.38S280.88,460.5,280.88,460.5Z" transform="translate(-34.84 -286.32)"/><path class="cls-5" d="M205,448.25s5.38,9.63,5.75,10.25,6,3.5,9.37,4.12,7.13,3.88,7.13,3.88l6.87,4,3.26,1.75s-13.38-10-15.26-10.63-5.62.38-7.62-1.74a45.26,45.26,0,0,1-4.38-5.88C209,452.38,205,448.25,205,448.25Z" transform="translate(-34.84 -286.32)"/><path class="cls-5" d="M186.88,452.88s-7.13-1.63-10.38-1.38-7.88,3.75-9.75,3a6.2,6.2,0,0,1-2.75-2.12,20.84,20.84,0,0,1-4-1.76c-1-.74-2.49-4.52-2.87-4.07s-2.25.45-2.25.45l10.24,8.62h7l9-1.87Z" transform="translate(-34.84 -286.32)"/><path class="cls-5" d="M168.12,402.5c.76,1.5,19.76,19.5,19.76,19.5s-13.38-17-14.5-18.25-11.13-13-11.13-13Z" transform="translate(-34.84 -286.32)"/><path class="cls-5" d="M162.5,385.25s-15-13.87-19-16.63-12.62-9-12.62-9l-9.5-2.12s10.74,4.38,12.62,5.62S162.5,385.25,162.5,385.25Z" transform="translate(-34.84 -286.32)"/><path class="cls-5" d="M122,357.38s-6.75,8.24-9.88,10.37-11.5,7-14.12,7.63-14.25,3.5-15.62,4.5-14.76,14.74-17.13,17.5-4.25,8.24-5.75,9.24-8,1.88-8.38,1.88-2.87-.62-2.87-.62,7.87.12,10-3.26a19.61,19.61,0,0,0,2.63-5.74s1.74-5,2.37-5.76,11.25-13.37,15.13-14.5,16.37-2.12,25.5-7.12S122,357.38,122,357.38Z" transform="translate(-34.84 -286.32)"/><path class="cls-5" d="M136.75,312.25c-1.32,1.51,14-3.5,15.13-4.37s3-5.13,3-5.13S137.62,311.25,136.75,312.25Z" transform="translate(-34.84 -286.32)"/><path class="cls-5" d="M122.12,311a19.33,19.33,0,0,0,3.13-2.12,3.25,3.25,0,0,0-2.37-.5,41.61,41.61,0,0,0-4.13,2.37Z" transform="translate(-34.84 -286.32)"/><path class="cls-5" d="M91.88,305.5l2-.62,5-9.5s-3.76,4-4.26,5.12S91.88,305.5,91.88,305.5Z" transform="translate(-34.84 -286.32)"/><path class="cls-5" d="M178.62,311.38l.5,1.62a116.54,116.54,0,0,0,18-3.5c7.76-2.38,18-6.75,18-6.75s-15.24,3.75-18.74,4.37S178.62,311.38,178.62,311.38Z" transform="translate(-34.84 -286.32)"/><path class="cls-5" d="M193.12,316.88l40.5-4.13s-9.12,4-18,4.75a210.23,210.23,0,0,1-21.24.25Z" transform="translate(-34.84 -286.32)"/><path class="cls-5" d="M204.62,324.75s16.76,4.25,16.88,5S220,331,220,331l7.75,3.38-7.25.37,1.88,1.25-6-1.5,5.74-1.25L218,331.12l.38-1.5Z" transform="translate(-34.84 -286.32)"/><path class="cls-5" d="M577.12,339.5s-5.74,8.88-10.12,10.88-11.12,6.12-26.75,3.62-33.37-8-42.63-10.38-24.5-6.12-30-3.12-9.74-.38-6.5-2.5,10-2.75,13.38-2.25,29.75,4.87,32.38,5.63,28.37,10,39.62,8.12,20.25-5.5,23.12-7.62S577.12,339.5,577.12,339.5Z" transform="translate(-34.84 -286.32)"/><path class="cls-5" d="M579.38,341.12c-.26.63.37,6.63.37,6.63l1.37-2.13s-1.62,6.5-4.24,10a43.13,43.13,0,0,1-23.76,15.13c-13,3-42.37,2.13-53.12-3s-17.38-5.87-19.38-5.25-10.87,15.5-13.37,16.88-10.13,5.62-29.25,4-23.12,2.37-26.12,6.24-14.76,21.63-17.38,23.76-16.88,17.37-29.75,20.87S346.38,443.62,343,445s-15.75,13.88-19.88,15.5-16.5,3-22,3.75-26,6.5-26,6.5,22.76-8.5,26.26-9.25,17.24-1.62,19.87-3,11.13-9.75,14.25-11.88,26.88-13.62,29.88-15.24,23.37-16.38,30.87-26,15-23.26,17.87-24.26,14.76-1.12,17.76-.5,18.4,0,24.24-1.74c9.38-2.76,15.88-18.76,17.76-19.76a26,26,0,0,1,7.87-2c.87.13,16.75,5.5,18.63,6.13s16,4,16,4L505.88,363s19.5,7.75,37.74,4.38,25.21-8.64,28.38-12A30.09,30.09,0,0,0,579.38,341.12Z" transform="translate(-34.84 -286.32)"/><path class="cls-5" d="M269.62,452.62l5.5-.24s-7.62,6.37-8.87,7.24-13.5,8-12.37,6.88S269.62,452.62,269.62,452.62Z" transform="translate(-34.84 -286.32)"/><path class="cls-5" d="M240.75,458.88,250,468s-1.62-1.88,1.25-4.75,1.87-3.5,1.87-3.5l-4.24,2.63Z" transform="translate(-34.84 -286.32)"/><path class="cls-5" d="M191.5,448.75s-.5,2.13-1.12,1.87-9.13-.37-12.63-4.37C182.5,448.5,191.5,448.75,191.5,448.75Z" transform="translate(-34.84 -286.32)"/><path class="cls-5" d="M176.5,416.75c-.88.13-2.25,5-3.12,5.87s-5.13,7.38-5.5,8.76-.26,6.24-.63,6.74-.87,3.5,0,4.26,2.75.24,3,.87,1,2.63,1,2.63a9.37,9.37,0,0,1,1.25-2.63,23.36,23.36,0,0,1,2.5-1.87s-2.62-.13-3.12-1.26-.88-2-.88-2-1.75-.37-1.5-1.62a33.92,33.92,0,0,1,4.12-7.75,40.15,40.15,0,0,0,4.26-9.87C178,417.62,176.5,416.75,176.5,416.75Z" transform="translate(-34.84 -286.32)"/><polygon class="cls-5" points="137.53 123.56 146.03 131.81 136.66 149.18 139.03 148.31 144.03 138.93 148.28 132.18 151.41 134.18 137.53 123.56"/><path class="cls-5" d="M58,389.75a30.85,30.85,0,0,0-2.25,5.87c-1.13,3.88-1.87,7-1.87,7a3,3,0,0,0,2.37-2.12c.75-2,.13-4.25.37-5.5S58,389.75,58,389.75Z" transform="translate(-34.84 -286.32)"/><path class="cls-5" d="M49.88,386.88c2.37,1.5-2.88,6.12-3.76,5.74S47.46,385.35,49.88,386.88Z" transform="translate(-34.84 -286.32)"/><polygon class="cls-5" points="8.53 118.93 12.16 117.56 12.16 120.43 8.53 118.93"/><polygon class="cls-5" points="3.53 111.68 6.53 110.68 7.28 111.18 6.41 113.56 3.53 111.68"/><path class="cls-5" d="M162.38,301s-6.38,7-8.5,7.75S139,314.38,141,313.62a47.8,47.8,0,0,1,8.25-2.12c2.13-.25,6.37-2.88,9.5-3.75a23.21,23.21,0,0,0,6.25-3.13l1.75-5.5-5,3.88Z" transform="translate(-34.84 -286.32)"/><path class="cls-5" d="M253.38,334.88c1,3.74-18.26,2-18.26,2s12.5.12,12.76-1.5S227,329,227,329,252.75,332.5,253.38,334.88Z" transform="translate(-34.84 -286.32)"/><path class="cls-5" d="M291.25,327.12s21.13-3.37,25.13-3.5,20.12-.24,20.12-.24l-2.75-2.63-19.25,1.5Z" transform="translate(-34.84 -286.32)"/><path class="cls-5" d="M413.62,365.88s17.5,6.5,21.38,6.87,11.75,1.37,15.38-.63,4.62-2.87,4.12-4.5-2.12-2.12-1.75-3.5.87-2,.37-2.5-2.12-1-1.37-2.62,2.75-2.75,3.13-3.62-1.5-1.76.87-3.5,2.87-2.13,2.75-3a4.07,4.07,0,0,1,.62-3.13,24.88,24.88,0,0,0,2.13-2.5c.25-.37-2-1.13-2.13-2.13s-1.5.26-2,1-4.24,6.88-4.74,9.88-2.26,11.75-3.76,14.75-4.24,4.37-6.5,3.75-.24-2.12-.24-2.12a11.52,11.52,0,0,1-6.38,2.5C431.88,371,413.62,365.88,413.62,365.88Z" transform="translate(-34.84 -286.32)"/><path class="cls-5" d="M343.33,445.94l-1.2,2,3.23-2.58-21,28.63s-12.06-4.51-15-5.24S298.68,465,297,465.28s9.67-.92,12.15-1.2,12.06.74,13.26.28,3.87-3.87,4.7-5.25S343.33,445.94,343.33,445.94Z" transform="translate(-34.84 -286.32)"/></g><g id="Finition"><path class="cls-6" d="M57.66,366.73c-.41-.42,1.31-5,1.31-5s-10.07,12.55-13.5,17.76a37.94,37.94,0,0,1-5.92,7.34s2.25-1.06,2.6-.47a10,10,0,0,1,.71,2s2.37-5.09,3.91-6.87,8.29-8.4,9.59-9.35,3.44-4.26,3.91-5S58.38,367.44,57.66,366.73Z" transform="translate(-34.84 -286.32)"/><path class="cls-6" d="M69.39,336.65l1.42,1.66s5.92-3.43,6.87-3.79,2.72-2.37,3.55-3.08,2.72-2.6,2.72-2.6-1.89-.36-1.66-1.42a58.93,58.93,0,0,0-6,3.43A64.72,64.72,0,0,0,69.39,336.65Z" transform="translate(-34.84 -286.32)"/><path class="cls-6" d="M118.17,323.39c-1.18-.23-12-1.89-12.9-3,.23.83,2.84,3.44,2.84,3.44s-3-.48-3.55-1.43-1.54-2.48-1-3a3.12,3.12,0,0,0,.71-1.77l-2.25-.48a25.87,25.87,0,0,0-1.78,4.27c0,.71-.23,1.77.6,2.13s6.63,1.89,9.23,6.51c0,0-2.37-4.85-1.06-6S118.17,323.39,118.17,323.39Z" transform="translate(-34.84 -286.32)"/><path class="cls-6" d="M168.38,319.37a29,29,0,0,1-5.92,2c-3,.59-13.38,1.54-13.38,1.54,4.5,1.3,27.71-.24,31.38-.24s21.67,1.9,23.56,2.13a10.19,10.19,0,0,0,3.79-.35l3.32.71s3,1.18,3.43,1.3,39,7.7,38.73,8.76-23.92,1.54-23.92,1.54c4.85,2.13,45.23,6.16,46.77-.23s-20.6-5.81-24.63-6.16-18.35-1.9-19.66-2.13-13.38-3.08-14.68-3.67a151.11,151.11,0,0,0-16.82-3.91C198.22,320.55,168.38,319.37,168.38,319.37Z" transform="translate(-34.84 -286.32)"/><polygon class="cls-6" points="111.51 26.77 144.43 20.85 184.34 14.1 147.63 22.98 111.51 26.77"/><path class="cls-6" d="M276.26,330.62s17.17,1.06,18.35,1.06,12.79-3.32,17.29-3.91a46.78,46.78,0,0,0,9.71-2.72s-.47,1.3,0,1.66,6.16,2.48,6.16,2.48l6.51,1.54s19.78,3,21.79,3.56,30.67,11.25,45.11,20.6S427.12,371,430.91,371s9.11-.59,10.89-2.48a6.53,6.53,0,0,0,1.66-4.38l-2.61-3s-.47,3.55-2.25,4.14-7.22,4-16-.12S391.36,342.69,383,339s-24.51-12.79-37.42-13.14c0,0-2,1.18-1.07,2.72s2.37,1.66,2.25,2.13-4.14.6-4.26-1.54c0,0-2.49-.23-3.55-.23s-5-.6-6.28-1.66-4.73-2-4.38-3,.83-2.37.83-2.37-9.36-.35-22.74,3S276.26,330.62,276.26,330.62Z" transform="translate(-34.84 -286.32)"/><path class="cls-6" d="M449.14,335.71s-3.43,1.18-3,2.13,8.88-1.3,11-1.54,5.69-.24,5.69-.24-.59-1.66.35-2.6,4.27-3.79,4.27-3.79-7.11.24-11.49,1.77A18.15,18.15,0,0,0,449.14,335.71Z" transform="translate(-34.84 -286.32)"/><path class="cls-6" d="M469.86,330.14s-4,2.72-4.26,3.55-.83,2.14-.47,2.14,4.26-1.43,6.27-1.54,5.69-.12,5.69-.12l-.59,1.06h2.6v-1.3l1.19-1.06-1.31-2Z" transform="translate(-34.84 -286.32)"/><path class="cls-6" d="M484.07,331.33l7.35,5.21s20.25,6.27,23.32,7.34,19.42,5.56,21.32,5.21,4.5-4.74,5-5.09a56.87,56.87,0,0,1-8.41-1.78c-4.5-1.18-20.24-5.09-26.88-6.28S484.07,331.33,484.07,331.33Z" transform="translate(-34.84 -286.32)"/><path class="cls-6" d="M543.87,344.35c.12.48.59,4.5-.35,4.86s4.5.59,7.69-.12,10.9-3.55,10.9-3.55-6,.82-8.05.23a9,9,0,0,1-3.44-2Z" transform="translate(-34.84 -286.32)"/><path class="cls-6" d="M553.7,341.86s-.71,1.78,2.13,2.14a32.43,32.43,0,0,0,9.12-.48c2.25-.47,9.71-4.5,10.78-6.39a6.73,6.73,0,0,0,1.06-2.61s-8.52,1.19-12.79,3.08S553.7,341.86,553.7,341.86Z" transform="translate(-34.84 -286.32)"/><path class="cls-6" d="M582.81,334.17l-3.2,1.18a14.4,14.4,0,0,1-.12,13.38c-3.79,7.11-9.23,17-23.32,21.32,9.35-3.55,22.26-9.07,26.52-21.67C585.77,339.26,582.81,334.17,582.81,334.17Z" transform="translate(-34.84 -286.32)"/><path class="cls-6" d="M258.49,467.74c14.27-8.24,25-15.87,32.21-24.16,0,0-31.38,27.47-51.51,30.43l-.59,2-4,.71-4.73,3.2.95.47a22.55,22.55,0,0,1,8.4-3l1.31-1.54A104.41,104.41,0,0,0,258.49,467.74Z" transform="translate(-34.84 -286.32)"/><path class="cls-6" d="M231.61,488.58c1.07-.59,7.46.47,8.06.83a18.48,18.48,0,0,1,2.13,2,12.48,12.48,0,0,1-5-.12,43.77,43.77,0,0,0-5.44-.71Z" transform="translate(-34.84 -286.32)"/><path class="cls-6" d="M273.65,488.82s1.42,2.72,2.49,3.19,4,.6,5.56,1.07,4.62,2.25,5.45,4-9.47.71-9.47.71-3.2-1.66-3.2-3.91A22,22,0,0,0,273.65,488.82Z" transform="translate(-34.84 -286.32)"/><path class="cls-6" d="M203.43,497.34a12.3,12.3,0,0,1,.83,2.73s3.67-2.25,4.86-4.15,1.53-3.79,3.07-4.5,9.95-2.37,11.25-3a3,3,0,0,0,1.54-2.13s-1.89.59-7,1.66-8.65,2.72-9.95,4.73A26,26,0,0,1,203.43,497.34Z" transform="translate(-34.84 -286.32)"/><path class="cls-6" d="M164.47,424.28c.68,1,2.61.36,2.61.36s-1.78,7.22-3.2,8.76-5.21,7.22-5.21,7.22.59-1.89.12-2.37-2.25.95-2.13.6.23-3.2,1.66-5.1,3.07-3.31,3.78-5,1-7.7,1-8.41A14.4,14.4,0,0,0,164.47,424.28Z" transform="translate(-34.84 -286.32)"/><path class="cls-6" d="M205.8,345.89c.8,1-6.63,11.84-15.16,14.92a31.56,31.56,0,0,1,6.75-9.35C200.71,348.38,205.33,345.3,205.8,345.89Z" transform="translate(-34.84 -286.32)"/></g></svg>