<svg id="Layer_1" data-name="Layer 1" xmlns="http://www.w3.org/2000/svg" viewBox="0 0 74.32 100.51"><defs><style>.cls-1{fill:#fff;}.cls-1,.cls-2,.cls-3,.cls-4,.cls-5{fill-rule:evenodd;}.cls-2{fill:#00a651;}.cls-3{fill:#ed1b2f;}.cls-4{fill:#fff200;}.cls-5{fill:#231f20;}</style></defs><polygon class="cls-1" points="74.32 8.52 74.32 10.42 37.18 3.91 0 10.42 0 8.52 37.18 1.98 74.32 8.52 74.32 8.52"/><polygon class="cls-2" points="74.32 6.55 74.32 8.52 37.18 1.98 0 8.52 0 6.55 37.18 0 74.32 6.55 74.32 6.55"/><path class="cls-3" d="M486.81,260.54,449.67,254l-37.18,6.51,0,6.63.29-.21c.17,0,13.34-7.37,36.94-7.37s36.6,7.33,36.72,7.37l.33.21v-6.63Z" transform="translate(-412.49 -250.12)"/><path class="cls-4" d="M449.76,260.87c21.28,0,33.76,6,35.78,7v19a70.41,70.41,0,0,1-7.25,30.72c-10.54,21.86-26.39,30.47-28.62,31.58-2.22-1.11-18.07-9.72-28.61-31.58a70.46,70.46,0,0,1-7.29-30.72v-19c2.06-1,14.66-7,36-7Z" transform="translate(-412.49 -250.12)"/><path class="cls-5" d="M412.82,267l-.29.21v19.76a71.55,71.55,0,0,0,7.37,31.25c11.49,23.89,29.32,32.24,29.49,32.33l.28.12.25-.12c.21-.09,18-8.44,29.52-32.33a71.55,71.55,0,0,0,7.37-31.25V267.17l-.33-.21c-.12,0-13.17-7.37-36.72-7.37S413,266.92,412.82,267m36.94-6.09c21.28,0,33.76,6,35.78,7v19a70.41,70.41,0,0,1-7.25,30.72c-10.54,21.86-26.39,30.47-28.62,31.58-2.22-1.11-18.07-9.72-28.61-31.58a70.46,70.46,0,0,1-7.29-30.72v-19c2.06-1,14.66-7,36-7" transform="translate(-412.49 -250.12)"/><path class="cls-5" d="M455.32,330.78c.61.42.16,1.15-.29,1.28s-.87-.37-1.12.2a2.55,2.55,0,0,0,2.64,2.68c2.26,0,3.34-2.92,3.54-3.33s.37-1,.12-1a1.35,1.35,0,0,0-1.27.58,1.27,1.27,0,0,1,.45-1,1.42,1.42,0,0,1,1.11-.29c.41,0,.33-.29.58-.87a8.22,8.22,0,0,1,1.32-2.1c.28-.53-.29-.74-1.4-.82a8,8,0,0,0-2.23,0,1.58,1.58,0,0,0-1.31,1c-.17.41.16.82.74.74a3.4,3.4,0,0,0,1.15-.57,1.78,1.78,0,0,1-1.15,1.27c-.79.21-1.77-.29-1.61-1.11a2.47,2.47,0,0,1,2.22-2.1,8.76,8.76,0,0,1,3.87.2,9.24,9.24,0,0,0,3.18.09,14,14,0,0,0,3.87-.7,7.84,7.84,0,0,1-2.56,1.27,30.31,30.31,0,0,1-3.25.42,3.39,3.39,0,0,0-1.24,1.6c-.37.74-.78,1.57-.61,1.57a3.9,3.9,0,0,0,1.89-.25,1.83,1.83,0,0,1-.95.86,3.66,3.66,0,0,1-1.23.21s-.33.87-.74,1.69a5.59,5.59,0,0,1-2.18,2.63c-1.2.62-3.42,1.4-4.86-.61s-.13-4.58,1.32-3.59Z" transform="translate(-412.49 -250.12)"/><path class="cls-5" d="M438,331.07a.75.75,0,0,1-.66,1.07c-.33,0-.78-.24-.86.17a3.24,3.24,0,0,0,3.21,2.59c2.3,0,3.37-1.32,3.21-2.51s-2.31-1.85-4-2.76c-.83-.41-2.68-.7-2.68-2.43,0-3.75,5.68-1.36,5.68-1.36s0-.45.25-.49a.41.41,0,0,1,.49.37c.09.41.46,2.63.46,2.63a5.43,5.43,0,0,0-3.13-2.43c-.42-.12-2.19-.49-2.14.91,0,.87,1,1.23,2.75,1.89,2.31.91,3.5,1.77,3,4.21s-2.8,2.67-3.91,2.67-3.63-.74-3.63-3.29c0-1.82,1.77-1.77,2-1.24Z" transform="translate(-412.49 -250.12)"/><path class="cls-5" d="M450.09,317.07l.9.45a1.43,1.43,0,0,0,1,.05,2.26,2.26,0,0,0,.74-1,.6.6,0,0,0-.08-.46,12.44,12.44,0,0,1-1.24-3.46,9.68,9.68,0,0,1,.09-2.38,6.21,6.21,0,0,0,.08-1.32c-.08-.21-.33-.37-.66-.58l-.49-.33a1.11,1.11,0,0,1-.33-.86l0-.5a11,11,0,0,0-2.89-2.92c-.53,0-.66.54-.7.91,0,.2.25,1.11.46,1.93l.2,1c.25,1.56,1.9,4.28,2.6,5.44l.37.57c.12.33.08.58-.21.74a12.25,12.25,0,0,1-3.38-.33,10.3,10.3,0,0,1-1.52-.53,5.68,5.68,0,0,0-1.52-.5,1.3,1.3,0,0,0-.7.13l-.25.08-.21-.08a6.23,6.23,0,0,0-2.26-.5c-2.1-.2-2.26.25-2.35.46s1.16,1.68,1.4,1.85a2.73,2.73,0,0,0,1.81.49,17.21,17.21,0,0,1,1.9-.2l.2.12.21.16a14.44,14.44,0,0,0,1.73.17,19,19,0,0,1,2.26.41l.87.17a10,10,0,0,1,2,.86Z" transform="translate(-412.49 -250.12)"/><path class="cls-5" d="M471.91,289.69a.16.16,0,0,0-.13,0,.14.14,0,0,0,0,.08,2.09,2.09,0,0,1-.7,1.2c-.61.2-.9.9-1.15,1.39-.08.29-.21.54-.29.54s-.08,0-.12-.12a3.62,3.62,0,0,1,0-2.39l0-.17a6.31,6.31,0,0,1,1.36-2.14l.21-.24a4,4,0,0,0,.32-1.82s0,0,0,0h0s0,0,0,.12a7.16,7.16,0,0,1-2.1,2.35,4.23,4.23,0,0,0-.82.94c-.17.25-.33.5-.41.5a4.38,4.38,0,0,1,.53-3.13l.12-.25a7.19,7.19,0,0,1,2-2.59v-.13c-.08,0-.16,0-.33,0l-.08.05a6,6,0,0,0-2.88,2.67,8.65,8.65,0,0,0-.87,3.71,3.35,3.35,0,0,0,.17,1.27,33.27,33.27,0,0,1,1,3.75,26.72,26.72,0,0,1,.12,3.38v.94l-.29.87a3.88,3.88,0,0,1-1.28,1.89,6.7,6.7,0,0,1-2.42,1.57c-.5,0-1,0-1-.08,0-1.32-2.31-4.45-3.46-5.48a29.36,29.36,0,0,0-3.79-2.8c-1.69-1-3.5-5.23-3.54-5.27l-.17-.58s-.08-1.11-.12-1.44l.17.08.57.33.62.25.86.16.46.25.45.29.7.49.7.37.82.05v-.05l-.94-.45s-.33-.62-.33-.62l-.41-.57-.5-.29-.62-.08-.16-.17.12-.12a3.72,3.72,0,0,0,.66.08,5.52,5.52,0,0,0,.62.41l.62.5.61.24.09,0-.25-.7a5.45,5.45,0,0,1-.49-.45c-.05,0-.74-.62-.74-.62l-.58-.28-.62-.21-.62-.41v-.08l.91.37.74.2a4.44,4.44,0,0,1,.66.25,9,9,0,0,1,.9.41l.79.21.94-.21.91-.62.16-.37.05-.08-.29.12-.83.42-.53.12-.66-.12h0l-.49-.5-.7-.7c-.05,0-.66-.33-.66-.33l-.79-.12s-.45-.25-.49-.25,0,0,0,0,0-.16,0-.2l.95.08,1.07-.08.57.12.62.24.62.09H458l-.66-.66-.7-.5-.57-.2-1-.08v0a.25.25,0,0,0,0-.17,2.69,2.69,0,0,1,.45-.08l.74.16.66.41.74.25,1-.16h.08l-.32-.46-.54-.16-.41-.33-.66-.45-.5-.17-.78-.12a3.23,3.23,0,0,1-.37-.37.85.85,0,0,0,0-.17,3,3,0,0,0,.42.13l.49.24s.74.21.74.21l-.16-.29a2.44,2.44,0,0,0-.29-.33l-.25-.28a.27.27,0,0,1,.12-.05l.79.42.61.2.46.45.9.5.09,0-.17-.41s-.49-.66-.49-.66l-.42-.66s-.7-.78-.7-.78l-.94-.5-.33-.37s-.66-.66-.66-.66-.08-.24-.12-.37l.65.21.7.2.54.33.41.54s.7.29.7.29l1.77.2.08,0-.49-.49a9.59,9.59,0,0,0-.91-.45l-.57-.37s-.29-.58-.29-.58l-.33-.58-.53-.49-.66-.37-.62-.53s-.17-.34-.25-.54c.17.16.41.41.41.41l.87.74.66.29.53.45.66.66,1,.17h.12l-1-.87s-.24-.74-.24-.74l-.54-.49-.25-.33-.28-.87-.58-.57-.91-.87h0a2,2,0,0,0-.08-.25l.17.09.86.49,1,.29,1.07.25,1.19.2-.28-.57-.62-.25-.54-.33-.7-.29-.61-.25s-.37-.53-.58-.78l.53.33a2.52,2.52,0,0,0,.54.08h1.65l.66.33s.57.62.57.62l.08.08-.08-.66a5.21,5.21,0,0,0-.37-.49l-1-.53-.74-.29-1.19-.21h0l-.21-.29-.86-.78-.41-.21-.21-.2h.45l.66.41.91.29,1.11.16h0l.41.46.62.37a4.41,4.41,0,0,0,.7.16h.08l-1.4-1.77s-.7-.37-.7-.37l-.82-.25-.7-.82-.91-.54-.62-.16a1.62,1.62,0,0,0,.17-.29,5.18,5.18,0,0,0,.7-.29l1-.2a1.5,1.5,0,0,0,.12-.29s-.45-.33-.45-.33l-.54-.17a2.5,2.5,0,0,0-.33.17l-.86,0-1-.25-1.07-.9-.49-.25-1.78-.2-.41-.62-.57-.62-.7-.66,0,0-.25.54-.25.37h0c0,.08,0,.41,0,.41a1.87,1.87,0,0,0,.25.29l-.08.37a7.53,7.53,0,0,0-1,0l-.82-.37-.58-.21-1.44,0s-.25.42-.25.42l0,0,.62.08s.08.08.12.08a1.59,1.59,0,0,1-.16.12l-.83,0s-.61.25-.61.25l-.09,0,.29.21,1.32,0,.95.25h0l.2.28a2.44,2.44,0,0,1,.17.25l-.41.21-1.16.49L443,269.72l-1.56.25s-.66.33-.66.33l-.49.7-.29.86c0,1.4,0,1.44.08,1.44a.85.85,0,0,0,.78.13,6.23,6.23,0,0,1,1.53-.5.26.26,0,0,1,.33.13c0,.08-.05.16-.21.2l-.08,0c-.7.17-1.4.41-1.4.7l.12.21a2.62,2.62,0,0,0,1.57,0l.45-.13a3.23,3.23,0,0,1,1.19-.2,2,2,0,0,1,.66.25,3.59,3.59,0,0,0,1.2.32,7.09,7.09,0,0,1,1.52.29,1.63,1.63,0,0,1,0,.87l0,.29c-.25,2.18-2.72,4.69-3.92,5.93a6.09,6.09,0,0,0-.57.61l-.17.33a.94.94,0,0,1-.57.7,8.55,8.55,0,0,0-1.32.91c-.87.61-1.89,1.44-2.22,1.4a19.42,19.42,0,0,1-2.84-1.73c-2.23-2.14-3.18-1.73-3.71-1.44l-.12,0c-.66.29-1.36,2.18-1.4,2.59l-.29,1.15-.21.83a15.66,15.66,0,0,1-.58,1.69l-.53,1.48a13,13,0,0,1-.49,1.23l-.25.58c-.17.66-.17,4.41.12,4.74h0l0,0c.29,0,.91-.7,1.2-1l.08-.08a2.4,2.4,0,0,0,.54-1.2,6,6,0,0,0-.21-1,6.38,6.38,0,0,1-.17-3l.05-.25a1.48,1.48,0,0,1,.53-.82l.29-.37a.91.91,0,0,1,.58-.37l.28-.17.05-.08a2.24,2.24,0,0,0,.61-.91l.29-1.19,0-.33a.23.23,0,0,1,.13-.08.36.36,0,0,1,.33.12l2,2.31a5.09,5.09,0,0,1,1,1v0h0c-.25,0-1.65-.29-1.85-.33-1.9-.58-2.76-.45-3.42.37s-.54,3.87-.37,4.16.82,3.87.86,4.32a3.38,3.38,0,0,0,.42,1.48l0,.05a3.78,3.78,0,0,1,.94,1.48,5.62,5.62,0,0,0,2.06,2.55c.09,0,.17,0,.21,0,.41-.29.62-1.69.62-2.31a2,2,0,0,0-.5-1.48l-.12-.12a1.66,1.66,0,0,0-.83-.5c-.08,0-.24,0-.24-.08s0-1.11-.37-1.32a3.45,3.45,0,0,1-.58-1.6,5.41,5.41,0,0,0-.41-1.77,3.57,3.57,0,0,1-.29-1.81.51.51,0,0,1,.37-.38.75.75,0,0,1,.62.17,14.06,14.06,0,0,0,2.76,1.65,7.12,7.12,0,0,1,1.48,1.07,6.89,6.89,0,0,0,.86.66,71,71,0,0,0,2.23.16c-.25.12-.25.54-.21.66.25,1.73,6.47,6.42,7,6.71a19.14,19.14,0,0,1,2.76,2.68,1.91,1.91,0,0,1,.33.82,1.51,1.51,0,0,0,1.28,1.57c.28,0,.49-.29.61-.46l0,0a4.06,4.06,0,0,0,1-2.35c.09-1.15.62-1.6.79-1.64s.12,0,.16.08a.42.42,0,0,1-.12.21c-.25.12-.37.65-.54,1.19l0,.58a2,2,0,0,1-.45,1.31,8,8,0,0,0-1.53,4.2c-.12,1.16.42,2.89,1.57,5l.08.16.33.5a7,7,0,0,1,.82,1.56,2.08,2.08,0,0,1-.53,1.11,30.84,30.84,0,0,1-2.68,3,1,1,0,0,0-.74.25l-.33.24a1.35,1.35,0,0,0-.49.62.63.63,0,0,1-.25.37l-.12.08s-.09.13-.87.91a3.35,3.35,0,0,0-1.15,2.88c0,.29.33.41,1.11.45A4.73,4.73,0,0,0,451.2,327v-.17c.08-.37.2-1,.41-1.11s.66-.58,1-.95l0,0a1.53,1.53,0,0,0,.25-.57,1.81,1.81,0,0,1,.16-.42.48.48,0,0,1,.29-.2,1.41,1.41,0,0,0,.78-.83,9.83,9.83,0,0,1,2.47-2.14,11.77,11.77,0,0,0,1-.74,1.37,1.37,0,0,0,.2-.78,1.53,1.53,0,0,0-.37-1.07,4.41,4.41,0,0,1-.78-1.61h0c0-.16,0-.37,0-.82v0c0-1.2,1.73-2.31,2.47-2.8l.33-.25c2.72-2.39,3.21-4.2,3.33-4.69l.05-.58c0-.41,0-.82.28-.87a.92.92,0,0,1,.37.17.47.47,0,0,1,.09.37c-.13.33-.17,3.71-.17,3.83a3,3,0,0,0,.29.37l0,0v-.08s.17-.95.17-1.28a5.16,5.16,0,0,1,.74-1.93h0a5.05,5.05,0,0,1,.16,1.32,2.48,2.48,0,0,1-.37,1.48,6.51,6.51,0,0,0-.9,1.81l-.21.41s0,.13,0,.21a3.49,3.49,0,0,0,.37,1.48.12.12,0,0,0,.08,0s.08-.08.08-.41a3.48,3.48,0,0,1,1.16-2.35,4.31,4.31,0,0,0,1.23-3.42,9.43,9.43,0,0,0-.12-1.52,7.43,7.43,0,0,0-.49-.7.53.53,0,0,0,.2-.12s.49.66.49.66a1.55,1.55,0,0,1,.29.53,6.39,6.39,0,0,0,.17,1.53l0,.08c.08.37.58,1.56.58,1.6l.08.13v-.13a4.85,4.85,0,0,0,0-1.15,3.46,3.46,0,0,1,.08-1.07l.08-.91a2.55,2.55,0,0,0-.37-1.6l-.12-.21c0-.08-.13-.16-.08-.16l.08-.08a6,6,0,0,0,3.5-3.13,6.78,6.78,0,0,0,.45-2.6,12.14,12.14,0,0,0-.33-3.13,4.56,4.56,0,0,1,0-1.81l0-1.11a3.26,3.26,0,0,1,.78-1.85l.46-.71a1.25,1.25,0,0,0,0-1.27Z" transform="translate(-412.49 -250.12)"/><path class="cls-5" d="M448.15,266.06s.49-.21.49-.21-.12-.45-.12-.45-.95-1.16-.95-1.16l-.08-.08v.08l-.12.46-.29.74v0l.66.33a3.68,3.68,0,0,0,.41.25Z" transform="translate(-412.49 -250.12)"/><path class="cls-1" d="M448.32,269a.5.5,0,0,0,.41,0c.24-.13.37-.29.33-.41l-.13-.13a.58.58,0,0,0-.41.08c-.16.09-.29.21-.29.33v.09l.09.08Z" transform="translate(-412.49 -250.12)"/><path class="cls-1" d="M452.27,267.41l.16.09a.23.23,0,0,0,.17.12.26.26,0,0,0,.24,0c.05,0,.05-.13.05-.21s-.25-.33-.42-.33-.41,0-.41.21.08.12.21.16Z" transform="translate(-412.49 -250.12)"/><path class="cls-1" d="M452.47,268.07a.19.19,0,0,0-.08.25v0c0,.08,0,.13.12.13l.13,0a.53.53,0,0,0,.53-.2c.05-.08.05-.17-.08-.25a.58.58,0,0,0-.62,0Z" transform="translate(-412.49 -250.12)"/><path class="cls-1" d="M453.09,270.63c-.08-.05,0-.13,0-.25a.27.27,0,0,0,0-.25s-.12,0-.25,0a1.14,1.14,0,0,0-.61,1l0,.12a.28.28,0,0,0,.12.25.63.63,0,0,0,.53-.2,1.94,1.94,0,0,1,.83-.33l.08-.05c.16,0,.25-.08.25-.16s-.09-.16-.21-.25a.51.51,0,0,0-.33,0c-.16.05-.29.09-.37.05Z" transform="translate(-412.49 -250.12)"/><path class="cls-1" d="M447.94,270.79a.35.35,0,0,0,.25-.12.9.9,0,0,0,0-.87.78.78,0,0,0-.66-.45H447c-.25.08-.5.24-.54.45s0,.17,0,.21a2.23,2.23,0,0,0,1.4.78Z" transform="translate(-412.49 -250.12)"/><path class="cls-1" d="M443.33,270.42c0,.12.29.16.7,0l.08,0,.66-.25,1-.66s.29-.2.21-.33-.17,0-.25,0a2.71,2.71,0,0,0-.82.33l-.37.17-.21.08c-.58.25-1.07.45-1,.7Z" transform="translate(-412.49 -250.12)"/><path class="cls-1" d="M441.27,271.12a.48.48,0,0,0-.37.21l-.08.12a1,1,0,0,0-.21.7.46.46,0,0,0,.17.37c.16.08.29,0,.45-.17,0,0,.17-.12.17-.12a1.07,1.07,0,0,0,.45-.66.37.37,0,0,0-.08-.29.75.75,0,0,0-.5-.16Z" transform="translate(-412.49 -250.12)"/><path class="cls-1" d="M442.39,271.24a.07.07,0,0,0-.09,0c-.08.09,0,.21,0,.29v.12c0,.05,0,.09,0,.13a.82.82,0,0,0,.21,0c.12,0,.12,0,.16-.12l0-.09a.21.21,0,0,0,0-.24.3.3,0,0,0-.28-.13Z" transform="translate(-412.49 -250.12)"/><path class="cls-1" d="M443.5,273a.26.26,0,0,0,.24-.25.27.27,0,0,0-.24-.28.28.28,0,0,0-.29.28.27.27,0,0,0,.29.25Z" transform="translate(-412.49 -250.12)"/><path class="cls-1" d="M448.4,272.35a.18.18,0,0,0-.21,0,7.64,7.64,0,0,1-.86.61l-.42.29,0,0s0,.09,0,.21l.08,0H447l.16-.08.25,0a.9.9,0,0,0,.62-.17l.12-.24.25-.38c.12-.12.12-.2.08-.24a.1.1,0,0,0-.08-.09Z" transform="translate(-412.49 -250.12)"/><path class="cls-1" d="M448.85,273.84a.25.25,0,0,0,.12.2.28.28,0,0,0,.33-.12l.33-.25a2.26,2.26,0,0,0,.5-.45c.16-.21.08-.33,0-.37a.37.37,0,0,0-.41-.08l-.09.08c-.16.12-.66.41-.78.78a2,2,0,0,1,0,.21Z" transform="translate(-412.49 -250.12)"/><path class="cls-1" d="M450.83,273.67c-.09-.08-.17-.12-.25-.08l-.21.17a1.71,1.71,0,0,1-.49.32c-.41.09-.91.29-.95.54v0a.18.18,0,0,0,0,.12.86.86,0,0,0,.79,0,2.13,2.13,0,0,0,.94-.61c.21-.17.21-.33.13-.46Z" transform="translate(-412.49 -250.12)"/><path class="cls-1" d="M449.3,276.76h-.12c-.33.08-.91,1-1.28,1.77l-.08.12-1.19,2.23-.33.7a.18.18,0,0,0,0,.2.22.22,0,0,0,.29,0,5.49,5.49,0,0,0,1.23-1.4l.45-.61a5.88,5.88,0,0,0,.83-1.28l0-.16c.45-1.16.53-1.36.16-1.57Z" transform="translate(-412.49 -250.12)"/><path class="cls-1" d="M453.75,272.52c-.16,0-.29.08-.29.25a.28.28,0,0,0,.29.24.27.27,0,0,0,.25-.24.24.24,0,0,0-.25-.25Z" transform="translate(-412.49 -250.12)"/><path class="cls-1" d="M453.63,273.55a.27.27,0,0,0,.24.25.25.25,0,0,0,0-.5.27.27,0,0,0-.24.25Z" transform="translate(-412.49 -250.12)"/><path class="cls-1" d="M453.87,274.13c-.16,0-.33.08-.33.2s.17.25.33.25a.28.28,0,0,0,.29-.25c0-.12-.12-.2-.29-.2Z" transform="translate(-412.49 -250.12)"/><path class="cls-1" d="M453.83,274.78a.33.33,0,0,0-.33.29c0,.13.17.25.33.25s.33-.12.33-.25a.3.3,0,0,0-.33-.29Z" transform="translate(-412.49 -250.12)"/><path class="cls-1" d="M453.87,275.69c-.2,0-.41.12-.41.25s.21.28.41.28.37-.12.37-.28-.16-.25-.37-.25Z" transform="translate(-412.49 -250.12)"/><path class="cls-1" d="M453.75,277.17c.21,0,.37-.16.37-.33l-.08-.12c-.08-.08-.21-.08-.37-.08s-.37.12-.37.28h0l.08.13a.51.51,0,0,0,.37.12Z" transform="translate(-412.49 -250.12)"/><polygon class="cls-1" points="40.72 27.75 40.72 27.75 40.72 27.75 40.72 27.75"/><path class="cls-1" d="M453.71,278.08c.29,0,.45-.17.45-.33l-.08-.13a.83.83,0,0,0-.45-.08c-.25,0-.46.21-.41.33l.08.13a.45.45,0,0,0,.41.08Z" transform="translate(-412.49 -250.12)"/><path class="cls-1" d="M453.26,278.53c0,.17.2.29.45.29s.45-.12.45-.29-.16-.29-.45-.29-.45.13-.45.29Z" transform="translate(-412.49 -250.12)"/><path class="cls-1" d="M454.08,279.48c0-.17-.25-.29-.54-.29s-.53.12-.53.29.25.29.53.29.54-.13.54-.29Z" transform="translate(-412.49 -250.12)"/><path class="cls-1" d="M453.75,280.26c0-.16-.21-.29-.41-.29a.33.33,0,0,0-.37.29.36.36,0,0,0,.37.33.41.41,0,0,0,.41-.33Z" transform="translate(-412.49 -250.12)"/><path class="cls-1" d="M453.54,281.29a.37.37,0,0,0-.41-.37.41.41,0,0,0-.41.37c0,.17.21.33.41.33a.37.37,0,0,0,.41-.33Z" transform="translate(-412.49 -250.12)"/><path class="cls-1" d="M453.22,282.24a.32.32,0,0,0-.33-.29.29.29,0,0,0-.33.29.3.3,0,0,0,.33.29.33.33,0,0,0,.33-.29Z" transform="translate(-412.49 -250.12)"/><path class="cls-1" d="M452.64,282.81a.31.31,0,1,0,0,.62.31.31,0,1,0,0-.62Z" transform="translate(-412.49 -250.12)"/><path class="cls-1" d="M452.35,284.3a.3.3,0,0,0,.33-.29c0-.13-.12-.25-.33-.25s-.33.12-.33.25a.33.33,0,0,0,.33.29Z" transform="translate(-412.49 -250.12)"/><path class="cls-1" d="M452.06,284.91c.17,0,.29-.08.29-.2a.27.27,0,0,0-.29-.25c-.2,0-.33.12-.33.25s.13.2.33.2Z" transform="translate(-412.49 -250.12)"/><path class="cls-1" d="M451.73,285.53c.17,0,.33-.08.33-.2s-.16-.25-.33-.25a.28.28,0,0,0-.29.25c0,.12.13.2.29.2Z" transform="translate(-412.49 -250.12)"/><path class="cls-1" d="M442.92,285h0l.41-.08a7.17,7.17,0,0,1,1.61-.2,5.12,5.12,0,0,1,1.4.28c.33.13.53.17.58.09a.14.14,0,0,0,0-.17,2.15,2.15,0,0,0-2.06-1,2.53,2.53,0,0,0-2,.9s0,.08,0,.12v0Z" transform="translate(-412.49 -250.12)"/><path class="cls-1" d="M448.52,287.8a.34.34,0,0,0,.12-.29c0-.62-.2-.7-.53-.7a.62.62,0,0,0-.58.53c0,.17.13.29.37.41a.65.65,0,0,0,.62.05Z" transform="translate(-412.49 -250.12)"/><path class="cls-1" d="M453.13,295.25a3.07,3.07,0,0,0,.74.33h0a0,0,0,0,0,0,0h0l0,0a17.35,17.35,0,0,1-2.67-4.95.93.93,0,0,0-.33-.69.58.58,0,0,0-.41,0h0a.08.08,0,0,0-.09.08s0,.08,0,.16a8.87,8.87,0,0,0,.95,2.8c1.23,2,1.81,2.35,1.85,2.35Z" transform="translate(-412.49 -250.12)"/><path class="cls-1" d="M468.94,296h-.08v1.28a15.86,15.86,0,0,1-.2,3,10.83,10.83,0,0,1-1.32,2.18l-.62.91v.08a.29.29,0,0,0,.12.25s.29.12.58-.21l.41-.41a6.19,6.19,0,0,0,1.61-2.59c.49-1.57-.5-4.41-.5-4.45Z" transform="translate(-412.49 -250.12)"/><path class="cls-1" d="M452.64,301.14a.36.36,0,0,0,.2,0,.42.42,0,0,0,.25-.33,1.46,1.46,0,0,1,.33-.66.59.59,0,0,0,0-.86l-.25-.09a.47.47,0,0,0-.29.13s-.24,1.23-.24,1.23h0a.86.86,0,0,0,0,.54Z" transform="translate(-412.49 -250.12)"/><path class="cls-1" d="M461.08,305.75v0l0,0a.55.55,0,0,0-.29.29.39.39,0,0,0,.12.37l.09.16v.25l0,.41a.22.22,0,0,0,.2.12.23.23,0,0,0,.25-.24,2.67,2.67,0,0,0,.08-.87c0-.37-.41-.49-.45-.49Z" transform="translate(-412.49 -250.12)"/><path class="cls-1" d="M448,302.49s-3.09-3.41-3.75-4.28-1-.94-1.36-.78a.2.2,0,0,0-.08.13c0,.36.74,1.27,1.4,1.89.94.95,3.74,3,3.74,3.09l.05-.05Z" transform="translate(-412.49 -250.12)"/><path class="cls-1" d="M435.92,292.57a7,7,0,0,0-1.73-.57l0,0,1.19.9c.21.17,1.07.7,1.36.5,0-.05.09-.08.09-.13s-.33-.37-.87-.74Z" transform="translate(-412.49 -250.12)"/><path class="cls-1" d="M435.59,287.47l.08,0c.13-.13-.12-.46-.41-.75a1.66,1.66,0,0,0-.7-.41l-.08,0s0,0,0,.08.2.42.49.66a1.4,1.4,0,0,0,.66.42Z" transform="translate(-412.49 -250.12)"/><path class="cls-1" d="M438.8,287h-.12a3.53,3.53,0,0,0-.86,1.44,3.93,3.93,0,0,0-.38,1.49c0,.16.05.29.09.29h.12a3,3,0,0,0,.91-1.44,5.2,5.2,0,0,0,.37-1.45c0-.16,0-.29-.13-.33Z" transform="translate(-412.49 -250.12)"/><path class="cls-1" d="M433,283.35c-.29,0-.54.16-.54.33s.25.33.54.33.53-.13.53-.33-.24-.33-.53-.33Z" transform="translate(-412.49 -250.12)"/><path class="cls-1" d="M431.1,287.34h.13a2,2,0,0,0,.57-1.07c.21-.58.29-1.19.13-1.28h-.09a2.62,2.62,0,0,0-.61,1.08c-.21.61-.29,1.23-.13,1.27Z" transform="translate(-412.49 -250.12)"/><path class="cls-1" d="M431.64,290.39c.12-.21.16-.45,0-.53l-.12-.05a.8.8,0,0,0-.37.29c-.17.21-.17.45-.05.54l.13,0a.84.84,0,0,0,.37-.29Z" transform="translate(-412.49 -250.12)"/><path class="cls-1" d="M431.43,293.72h-.08c-.21,0,0,1,0,1.49a3.5,3.5,0,0,0,.54,1.36H432c.21-.05,0-1,0-1.49a3.19,3.19,0,0,0-.54-1.36Z" transform="translate(-412.49 -250.12)"/><path class="cls-1" d="M429.25,295a.29.29,0,1,0,0,.58.29.29,0,1,0,0-.58Z" transform="translate(-412.49 -250.12)"/><path class="cls-1" d="M434.6,301.84a.37.37,0,0,0-.37.37.34.34,0,0,0,.37.33.34.34,0,0,0,.37-.33.36.36,0,0,0-.37-.37Z" transform="translate(-412.49 -250.12)"/><path class="cls-1" d="M452.68,311.35s.08.08.12.08h0l0,0,.33-1,.29-.66.21-.53c.08-.17.08-.29,0-.33s-.33,0-.37,0-.62,1-.62,1a1.43,1.43,0,0,0-.17.71,1.94,1.94,0,0,0,.17.82Z" transform="translate(-412.49 -250.12)"/><path class="cls-1" d="M454.2,316.41l0-.12a3.73,3.73,0,0,0-.24-2,.6.6,0,0,0-.37-.2c-.17,0-.25,0-.29.08-.25.45.78,2.06.82,2.14l0,.08Z" transform="translate(-412.49 -250.12)"/><path class="cls-1" d="M456.63,319.09a.37.37,0,0,0,0,.74.37.37,0,0,0,0-.74Z" transform="translate(-412.49 -250.12)"/><path class="cls-1" d="M451,314.56a.29.29,0,0,0-.33.29.3.3,0,0,0,.33.33.3.3,0,0,0,.29-.33.28.28,0,0,0-.29-.29Z" transform="translate(-412.49 -250.12)"/><path class="cls-1" d="M455.07,320h0a7.56,7.56,0,0,0-1.57,1.27c0,.08-1.44,1.48-1.23,1.69h0a5.81,5.81,0,0,0,1.56-1.28c.08-.08,1.44-1.48,1.28-1.68Z" transform="translate(-412.49 -250.12)"/><path class="cls-1" d="M451,323.87a1,1,0,0,0-.45.24c-.21.21-.33.5-.25.58h0l.12,0a.71.71,0,0,0,.46-.25c.16-.2.33-.49.2-.57l-.08,0Z" transform="translate(-412.49 -250.12)"/><path class="cls-1" d="M449.14,326.46c-.17,0-.33.12-.54.33a.89.89,0,0,0-.28.49c0,.08,0,.13.08.13l.12.08a.92.92,0,0,0,.49-.29c.25-.29.38-.53.25-.66l-.12-.08Z" transform="translate(-412.49 -250.12)"/><path class="cls-1" d="M439.63,313.28c-.25,0-.5.17-.5.37s.25.33.5.33.49-.12.49-.33-.21-.37-.49-.37Z" transform="translate(-412.49 -250.12)"/><path class="cls-1" d="M443.66,313.57c-.2,0-.33.12-.33.25a.3.3,0,0,0,.33.25c.17,0,.33-.13.33-.25s-.16-.25-.33-.25Z" transform="translate(-412.49 -250.12)"/><path class="cls-1" d="M448.56,315.22l0,0c0-.25-1.11-.58-1.73-.74a5,5,0,0,0-1.81-.25l0,0v0c-.08.21,1.07.58,1.73.74a4,4,0,0,0,1.81.21Z" transform="translate(-412.49 -250.12)"/></svg>