<svg width="144" height="78" viewBox="0 0 144 78" fill="none" xmlns="http://www.w3.org/2000/svg">
<path d="M58.7859 0.499998L59.1359 9.285H58.4709C57.4442 6.18167 56.5342 4.07 55.7409 2.95C54.9475 1.80667 53.8042 1.235 52.3109 1.235H51.8909V24.265H54.8659V25H42.0909V24.265H45.0659V1.235H44.6109C43.1175 1.235 41.9625 1.83 41.1459 3.02C40.3292 4.18667 39.4309 6.275 38.4509 9.285H37.7859L38.1359 0.499998H58.7859ZM61.1525 0.499998H72.0725V1.165H70.0425V12.015H77.0075V1.165H74.9425V0.499998H85.8975V1.165H83.8325V24.335H85.8975V25H74.9425V24.335H77.0075V12.925H70.0425V24.335H72.0725V25H61.1525V24.335H63.2175V1.165H61.1525V0.499998ZM87.3683 0.499998H105.568L105.918 7.43H105.288C104.308 5.07333 103.282 3.46333 102.208 2.6C101.135 1.71333 99.56 1.27 97.4833 1.27H96.2583V12.085H97.4483C98.545 12.085 99.4666 11.6767 100.213 10.86C100.96 10.02 101.485 8.9 101.788 7.5H102.313V17.86H101.718C101.298 16.11 100.727 14.8617 100.003 14.115C99.3033 13.3683 98.335 12.995 97.0983 12.995H96.2583V24.23H97.5883C99.735 24.23 101.555 23.5883 103.048 22.305C104.565 21.0217 105.603 19.3767 106.163 17.37H106.863L106.583 25H87.3683V24.23H89.4333V1.27H87.3683V0.499998ZM13.0649 26.815C9.44827 26.815 7.63994 30.3033 7.63994 37.28V40.045C7.63994 43.3583 8.11828 45.96 9.07494 47.85C10.0316 49.7167 11.4433 50.65 13.3099 50.65C15.8766 50.65 18.2333 48.1533 20.3799 43.16H21.0099L20.7649 50.965H20.3799C20.2399 50.7083 20.1116 50.5333 19.9949 50.44C19.8783 50.3233 19.7033 50.265 19.4699 50.265C19.2599 50.265 18.4199 50.4517 16.9499 50.825C15.4799 51.175 13.9866 51.35 12.4699 51.35C8.66661 51.35 5.71494 50.3233 3.61494 48.27C1.53827 46.2167 0.499941 43.1367 0.499941 39.03C0.499941 34.9 1.58494 31.715 3.75494 29.475C5.94828 27.235 8.88828 26.115 12.5749 26.115C13.9983 26.115 15.3866 26.3017 16.7399 26.675C18.1166 27.025 18.9216 27.2 19.1549 27.2C19.3883 27.2 19.5633 27.1533 19.6799 27.06C19.7966 26.9433 19.9249 26.7567 20.0649 26.5H20.4499L20.7299 34.095H20.0999C19.0499 31.7383 17.9649 29.9417 16.8449 28.705C15.7483 27.445 14.4883 26.815 13.0649 26.815ZM23.965 26.5H36.565V27.27H32.855V50.23H34.115C36.0983 50.23 37.6733 49.6233 38.84 48.41C40.03 47.1967 41.2316 45.33 42.445 42.81H43.18L42.515 51H23.965V50.23H26.03V27.27H23.965V26.5ZM59.1996 50.335L56.6446 42.775H49.7146L47.0196 50.335H49.6446V51H44.2896V50.335H45.9346L54.8596 26.29H57.7296L66.5496 50.335H68.1596V51H56.7146V50.335H59.1996ZM53.3196 32.835L50.0296 42.005H56.3646L53.3196 32.835ZM79.4146 50.615C80.5812 50.615 81.6079 50.3 82.4946 49.67C83.4046 49.04 83.8596 48.095 83.8596 46.835C83.8596 45.5517 83.3696 44.5717 82.3896 43.895C81.4329 43.2183 80.0562 42.635 78.2596 42.145C76.4862 41.6317 75.1912 41.1883 74.3746 40.815C73.5812 40.4417 72.8229 39.9517 72.0996 39.345C70.6529 38.1317 69.9296 36.2533 69.9296 33.71C69.9296 31.6333 70.6646 29.8483 72.1346 28.355C73.6279 26.8617 75.6579 26.115 78.2246 26.115C79.4612 26.115 80.7446 26.3017 82.0746 26.675C83.4279 27.025 84.2679 27.2 84.5946 27.2C84.9212 27.2 85.2129 26.9667 85.4696 26.5H85.8546L86.0996 33.57H85.5396C84.4196 31.54 83.2412 29.9183 82.0046 28.705C80.7912 27.4683 79.4612 26.85 78.0146 26.85C76.5912 26.85 75.4829 27.1883 74.6896 27.865C73.8962 28.5183 73.4996 29.405 73.4996 30.525C73.4996 31.6217 73.9662 32.4733 74.8996 33.08C75.8562 33.6633 77.0229 34.1417 78.3996 34.515C79.7762 34.8883 80.6746 35.145 81.0946 35.285C81.5379 35.425 82.0746 35.6233 82.7046 35.88C83.3579 36.1133 83.8829 36.37 84.2796 36.65C84.6996 36.9067 85.1312 37.245 85.5746 37.665C86.0412 38.0617 86.4029 38.505 86.6596 38.995C87.2896 40.115 87.6046 41.445 87.6046 42.985C87.6046 45.505 86.8112 47.535 85.2246 49.075C83.6612 50.5917 81.5962 51.35 79.0296 51.35C77.6996 51.35 76.1712 51.175 74.4446 50.825C72.7412 50.475 71.7962 50.3 71.6096 50.3C71.2829 50.3 70.9679 50.65 70.6646 51.35H70.1746L69.8246 43.02H70.4196C71.4462 45.05 72.7529 46.8233 74.3396 48.34C75.9496 49.8567 77.6412 50.615 79.4146 50.615ZM99.7173 50.615C100.884 50.615 101.911 50.3 102.797 49.67C103.707 49.04 104.162 48.095 104.162 46.835C104.162 45.5517 103.672 44.5717 102.692 43.895C101.736 43.2183 100.359 42.635 98.5623 42.145C96.789 41.6317 95.494 41.1883 94.6773 40.815C93.884 40.4417 93.1256 39.9517 92.4023 39.345C90.9556 38.1317 90.2323 36.2533 90.2323 33.71C90.2323 31.6333 90.9673 29.8483 92.4373 28.355C93.9306 26.8617 95.9606 26.115 98.5273 26.115C99.764 26.115 101.047 26.3017 102.377 26.675C103.731 27.025 104.571 27.2 104.897 27.2C105.224 27.2 105.516 26.9667 105.772 26.5H106.157L106.402 33.57H105.842C104.722 31.54 103.544 29.9183 102.307 28.705C101.094 27.4683 99.764 26.85 98.3173 26.85C96.894 26.85 95.7856 27.1883 94.9923 27.865C94.199 28.5183 93.8023 29.405 93.8023 30.525C93.8023 31.6217 94.269 32.4733 95.2023 33.08C96.159 33.6633 97.3256 34.1417 98.7023 34.515C100.079 34.8883 100.977 35.145 101.397 35.285C101.841 35.425 102.377 35.6233 103.007 35.88C103.661 36.1133 104.186 36.37 104.582 36.65C105.002 36.9067 105.434 37.245 105.877 37.665C106.344 38.0617 106.706 38.505 106.962 38.995C107.592 40.115 107.907 41.445 107.907 42.985C107.907 45.505 107.114 47.535 105.527 49.075C103.964 50.5917 101.899 51.35 99.3323 51.35C98.0023 51.35 96.474 51.175 94.7473 50.825C93.044 50.475 92.099 50.3 91.9123 50.3C91.5856 50.3 91.2706 50.65 90.9673 51.35H90.4773L90.1273 43.02H90.7223C91.749 45.05 93.0556 46.8233 94.6423 48.34C96.2523 49.8567 97.944 50.615 99.7173 50.615ZM110.204 26.5H120.879V27.165H118.954V50.335H120.879V51H110.204V50.335H112.129V27.165H110.204V26.5ZM135.77 26.815C132.153 26.815 130.345 30.3033 130.345 37.28V40.045C130.345 43.3583 130.823 45.96 131.78 47.85C132.737 49.7167 134.148 50.65 136.015 50.65C138.582 50.65 140.938 48.1533 143.085 43.16H143.715L143.47 50.965H143.085C142.945 50.7083 142.817 50.5333 142.7 50.44C142.583 50.3233 142.408 50.265 142.175 50.265C141.965 50.265 141.125 50.4517 139.655 50.825C138.185 51.175 136.692 51.35 135.175 51.35C131.372 51.35 128.42 50.3233 126.32 48.27C124.243 46.2167 123.205 43.1367 123.205 39.03C123.205 34.9 124.29 31.715 126.46 29.475C128.653 27.235 131.593 26.115 135.28 26.115C136.703 26.115 138.092 26.3017 139.445 26.675C140.822 27.025 141.627 27.2 141.86 27.2C142.093 27.2 142.268 27.1533 142.385 27.06C142.502 26.9433 142.63 26.7567 142.77 26.5H143.155L143.435 34.095H142.805C141.755 31.7383 140.67 29.9417 139.55 28.705C138.453 27.445 137.193 26.815 135.77 26.815ZM50.0815 52.815C46.4649 52.815 44.6565 56.3033 44.6565 63.28V66.045C44.6565 69.3583 45.1349 71.96 46.0915 73.85C47.0482 75.7167 48.4599 76.65 50.3265 76.65C52.8932 76.65 55.2499 74.1533 57.3965 69.16H58.0265L57.7815 76.965H57.3965C57.2565 76.7083 57.1282 76.5333 57.0115 76.44C56.8949 76.3233 56.7199 76.265 56.4865 76.265C56.2765 76.265 55.4365 76.4517 53.9665 76.825C52.4965 77.175 51.0032 77.35 49.4865 77.35C45.6832 77.35 42.7315 76.3233 40.6315 74.27C38.5549 72.2167 37.5165 69.1367 37.5165 65.03C37.5165 60.9 38.6015 57.715 40.7715 55.475C42.9649 53.235 45.9049 52.115 49.5915 52.115C51.0149 52.115 52.4032 52.3017 53.7565 52.675C55.1332 53.025 55.9382 53.2 56.1715 53.2C56.4049 53.2 56.5799 53.1533 56.6965 53.06C56.8132 52.9433 56.9415 52.7567 57.0815 52.5H57.4665L57.7465 60.095H57.1165C56.0665 57.7383 54.9815 55.9417 53.8615 54.705C52.7649 53.445 51.5049 52.815 50.0815 52.815ZM74.683 76.335L72.128 68.775H65.198L62.503 76.335H65.128V77H59.773V76.335H61.418L70.343 52.29H73.213L82.033 76.335H83.643V77H72.198V76.335H74.683ZM68.803 58.835L65.513 68.005H71.848L68.803 58.835ZM95.3447 64.61H93.4897V76.335H95.7647V77H84.3897V76.335H86.6647V53.165H84.3897V52.5H94.9597C97.9931 52.5 100.14 52.6633 101.4 52.99C102.683 53.2933 103.581 53.6667 104.095 54.11C105.215 55.02 105.775 56.4667 105.775 58.45C105.775 60.4333 105.285 61.8567 104.305 62.72C103.325 63.56 101.831 64.0617 99.8247 64.225V64.33C101.715 64.5867 103.033 65.1467 103.78 66.01C104.526 66.8733 104.9 68.32 104.9 70.35V72.205C104.9 73.4183 104.958 74.235 105.075 74.655C105.215 75.075 105.495 75.285 105.915 75.285C106.335 75.285 106.661 75.0983 106.895 74.725C107.151 74.3283 107.385 73.5117 107.595 72.275L108.19 72.345C107.933 74.3283 107.478 75.6583 106.825 76.335C106.195 77.0117 104.923 77.35 103.01 77.35C101.096 77.35 99.7314 76.9067 98.9147 76.02C98.1214 75.11 97.7247 73.4183 97.7247 70.945V68.39C97.7247 67.0833 97.5497 66.1267 97.1997 65.52C96.8731 64.9133 96.2547 64.61 95.3447 64.61ZM93.4897 53.165V63.945H94.6097C95.9397 63.945 96.9197 63.5367 97.5497 62.72C98.2031 61.9033 98.5297 60.5733 98.5297 58.73V57.715C98.5297 55.8717 98.2147 54.6583 97.5847 54.075C96.9781 53.4683 95.9981 53.165 94.6447 53.165H93.4897Z" fill="#7C7C7C"/>
</svg>
