<svg width="150" height="80" viewBox="0 0 150 80" fill="none" xmlns="http://www.w3.org/2000/svg">
<g clip-path="url(#clip0_63_8813)">
<path d="M61.2353 0.512695L61.5999 9.52295H60.9072C59.8377 6.34005 58.8898 4.17424 58.0634 3.02552C57.237 1.85287 56.046 1.26654 54.4905 1.26654H54.053V24.8871H57.152V25.6409H43.8447V24.8871H46.9436V1.26654H46.4697C44.914 1.26654 43.7109 1.8768 42.8603 3.09731C42.0096 4.2939 41.0738 6.43577 40.053 9.52295H39.3603L39.7249 0.512695H61.2353ZM63.7005 0.512695H75.0755V1.19475H72.9609V12.323H80.2161V1.19475H78.0651V0.512695H89.4765V1.19475H87.3255V24.9588H89.4765V25.6409H78.0651V24.9588H80.2161V13.2563H72.9609V24.9588H75.0755V25.6409H63.7005V24.9588H65.8515V1.19475H63.7005V0.512695ZM91.0086 0.512695H109.967L110.331 7.62039H109.675C108.654 5.20329 107.585 3.55201 106.467 2.66654C105.349 1.75714 103.708 1.30244 101.545 1.30244H100.269V12.3947H101.509C102.651 12.3947 103.611 11.976 104.389 11.1383C105.167 10.2768 105.714 9.12808 106.029 7.69218H106.576V18.3178H105.956C105.519 16.523 104.924 15.2426 104.17 14.4768C103.441 13.711 102.432 13.3281 101.144 13.3281H100.269V24.8512H101.654C103.891 24.8512 105.786 24.193 107.342 22.8768C108.922 21.5606 110.003 19.8734 110.586 17.8153H111.316L111.024 25.6409H91.0086V24.8512H93.1597V1.30244H91.0086V0.512695ZM13.6093 27.5024C9.84193 27.5024 7.95825 31.0802 7.95825 38.2358V41.0717C7.95825 44.4699 8.45652 47.1383 9.45304 49.0768C10.4496 50.9914 11.9201 51.9486 13.8645 51.9486C16.5381 51.9486 18.993 49.3879 21.229 44.2665H21.8853L21.6301 52.2717H21.229C21.0832 52.0084 20.9496 51.8289 20.828 51.7332C20.7065 51.6135 20.5243 51.5537 20.2811 51.5537C20.0624 51.5537 19.1874 51.7452 17.6561 52.1281C16.1249 52.4871 14.5694 52.6665 12.9895 52.6665C9.0277 52.6665 5.95304 51.6135 3.76554 49.5076C1.60234 47.4016 0.520752 44.2426 0.520752 40.0306C0.520752 35.7947 1.65096 32.5281 3.91138 30.2306C6.19611 27.9332 9.25861 26.7845 13.0988 26.7845C14.5815 26.7845 16.0277 26.976 17.4374 27.3588C18.8714 27.7178 19.71 27.8973 19.953 27.8973C20.1961 27.8973 20.3784 27.8494 20.4999 27.7537C20.6214 27.634 20.7551 27.4426 20.9009 27.1794H21.302L21.5936 34.9691H20.9374C19.8436 32.552 18.7134 30.7093 17.5468 29.4409C16.4045 28.1486 15.092 27.5024 13.6093 27.5024ZM24.9635 27.1794H38.0885V27.9691H34.2239V51.5178H35.5364C37.6024 51.5178 39.243 50.8956 40.4583 49.6512C41.6979 48.4067 42.9496 46.4922 44.2135 43.9076H44.9791L44.2864 52.3076H24.9635V51.5178H27.1146V27.9691H24.9635V27.1794ZM61.6662 51.6255L59.0048 43.8717H51.786L48.9787 51.6255H51.7131V52.3076H46.135V51.6255H47.8485L57.1454 26.964H60.135L69.3225 51.6255H70.9996V52.3076H59.0777V51.6255H61.6662ZM55.5412 33.6768L52.1141 43.0819H58.7131L55.5412 33.6768ZM82.7235 51.9127C83.9387 51.9127 85.0082 51.5896 85.9319 50.9435C86.8798 50.2973 87.3537 49.3281 87.3537 48.0358C87.3537 46.7196 86.8433 45.7144 85.8225 45.0204C84.8259 44.3263 83.3919 43.7281 81.5204 43.2255C79.6731 42.6991 78.3242 42.2443 77.4735 41.8614C76.6471 41.4785 75.8572 40.976 75.1037 40.3537C73.5968 39.1093 72.8433 37.1827 72.8433 34.5742C72.8433 32.4443 73.6089 30.6135 75.1402 29.0819C76.6957 27.5503 78.8103 26.7845 81.4839 26.7845C82.7721 26.7845 84.1089 26.976 85.4944 27.3588C86.9041 27.7178 87.779 27.8973 88.1194 27.8973C88.4596 27.8973 88.7634 27.658 89.0308 27.1794H89.4319L89.6871 34.4306H89.1037C87.9371 32.3486 86.7096 30.6853 85.4214 29.4409C84.1575 28.1725 82.7721 27.5383 81.2652 27.5383C79.7825 27.5383 78.628 27.8853 77.8017 28.5794C76.9752 29.2494 76.5621 30.1588 76.5621 31.3076C76.5621 32.4324 77.0481 33.3058 78.0204 33.9281C79.0169 34.5263 80.2322 35.017 81.6662 35.3999C83.1002 35.7827 84.036 36.046 84.4735 36.1896C84.9353 36.3332 85.4944 36.5366 86.1506 36.7999C86.8311 37.0392 87.378 37.3024 87.7912 37.5896C88.2287 37.8529 88.6783 38.1999 89.1402 38.6306C89.6262 39.0375 90.003 39.4922 90.2704 39.9947C90.9267 41.1435 91.2548 42.5076 91.2548 44.0871C91.2548 46.6717 90.4283 48.7537 88.7756 50.3332C87.1471 51.8888 84.996 52.6665 82.3225 52.6665C80.9371 52.6665 79.345 52.4871 77.5464 52.1281C75.7721 51.7691 74.7877 51.5896 74.5933 51.5896C74.253 51.5896 73.9249 51.9486 73.6089 52.6665H73.0985L72.7339 44.123H73.3537C74.4231 46.205 75.7843 48.0238 77.4371 49.5794C79.1142 51.135 80.8762 51.9127 82.7235 51.9127ZM103.872 51.9127C105.087 51.9127 106.157 51.5896 107.08 50.9435C108.028 50.2973 108.502 49.3281 108.502 48.0358C108.502 46.7196 107.992 45.7144 106.971 45.0204C105.975 44.3263 104.541 43.7281 102.669 43.2255C100.822 42.6991 99.4729 42.2443 98.6222 41.8614C97.7958 41.4785 97.0058 40.976 96.2524 40.3537C94.7454 39.1093 93.992 37.1827 93.992 34.5742C93.992 32.4443 94.7576 30.6135 96.2888 29.0819C97.8444 27.5503 99.9589 26.7845 102.633 26.7845C103.921 26.7845 105.257 26.976 106.643 27.3588C108.053 27.7178 108.928 27.8973 109.268 27.8973C109.608 27.8973 109.912 27.658 110.179 27.1794H110.58L110.835 34.4306H110.252C109.085 32.3486 107.858 30.6853 106.57 29.4409C105.306 28.1725 103.921 27.5383 102.414 27.5383C100.931 27.5383 99.7767 27.8853 98.9503 28.5794C98.1239 29.2494 97.7107 30.1588 97.7107 31.3076C97.7107 32.4324 98.1969 33.3058 99.1691 33.9281C100.166 34.5263 101.381 35.017 102.815 35.3999C104.249 35.7827 105.184 36.046 105.622 36.1896C106.084 36.3332 106.643 36.5366 107.299 36.7999C107.98 37.0392 108.527 37.3024 108.94 37.5896C109.377 37.8529 109.827 38.1999 110.289 38.6306C110.775 39.0375 111.152 39.4922 111.419 39.9947C112.075 41.1435 112.403 42.5076 112.403 44.0871C112.403 46.6717 111.577 48.7537 109.924 50.3332C108.296 51.8888 106.145 52.6665 103.471 52.6665C102.086 52.6665 100.494 52.4871 98.6951 52.1281C96.9208 51.7691 95.9364 51.5896 95.742 51.5896C95.4017 51.5896 95.0735 51.9486 94.7576 52.6665H94.2472L93.8826 44.123H94.5024C95.5719 46.205 96.9329 48.0238 98.5857 49.5794C100.263 51.135 102.025 51.9127 103.872 51.9127ZM114.796 27.1794H125.916V27.8614H123.91V51.6255H125.916V52.3076H114.796V51.6255H116.801V27.8614H114.796V27.1794ZM141.427 27.5024C137.659 27.5024 135.776 31.0802 135.776 38.2358V41.0717C135.776 44.4699 136.274 47.1383 137.271 49.0768C138.268 50.9914 139.737 51.9486 141.682 51.9486C144.356 51.9486 146.81 49.3879 149.047 44.2665H149.703L149.448 52.2717H149.047C148.901 52.0084 148.768 51.8289 148.646 51.7332C148.524 51.6135 148.342 51.5537 148.099 51.5537C147.88 51.5537 147.005 51.7452 145.474 52.1281C143.943 52.4871 142.387 52.6665 140.807 52.6665C136.846 52.6665 133.771 51.6135 131.583 49.5076C129.42 47.4016 128.339 44.2426 128.339 40.0306C128.339 35.7947 129.469 32.5281 131.729 30.2306C134.014 27.9332 137.076 26.7845 140.917 26.7845C142.399 26.7845 143.846 26.976 145.255 27.3588C146.69 27.7178 147.528 27.8973 147.771 27.8973C148.014 27.8973 148.196 27.8494 148.318 27.7537C148.44 27.634 148.573 27.4426 148.719 27.1794H149.12L149.411 34.9691H148.755C147.661 32.552 146.531 30.7093 145.365 29.4409C144.222 28.1486 142.909 27.5024 141.427 27.5024ZM52.1682 54.1691C48.4009 54.1691 46.5172 57.7468 46.5172 64.9024V67.7383C46.5172 71.1366 47.0155 73.805 48.012 75.7435C49.0085 77.658 50.479 78.6153 52.4234 78.6153C55.0971 78.6153 57.552 76.0545 59.788 70.9332H60.4443L60.189 78.9383H59.788C59.6422 78.675 59.5085 78.4956 59.387 78.3999C59.2655 78.2802 59.0832 78.2204 58.8401 78.2204C58.6213 78.2204 57.7463 78.4119 56.2151 78.7947C54.6838 79.1537 53.1283 79.3332 51.5484 79.3332C47.5866 79.3332 44.512 78.2802 42.3245 76.1742C40.1613 74.0683 39.0797 70.9093 39.0797 66.6973C39.0797 62.4614 40.2099 59.1947 42.4703 56.8973C44.7551 54.5999 47.8176 53.4512 51.6578 53.4512C53.1405 53.4512 54.5867 53.6426 55.9963 54.0255C57.4304 54.3845 58.2689 54.564 58.512 54.564C58.7551 54.564 58.9374 54.5161 59.0588 54.4204C59.1804 54.3007 59.314 54.1093 59.4599 53.846H59.8609L60.1526 61.6358H59.4963C58.4026 59.2186 57.2724 57.376 56.1057 56.1076C54.9634 54.8153 53.6509 54.1691 52.1682 54.1691ZM77.7948 78.2922L75.1333 70.5383H67.9146L65.1073 78.2922H67.8417V78.9742H62.2635V78.2922H63.9771L73.2739 53.6306H76.2635L85.451 78.2922H87.1281V78.9742H75.2062V78.2922H77.7948ZM71.6698 60.3435L68.2427 69.7486H74.8417L71.6698 60.3435ZM99.3174 66.2665H97.3851V78.2922H99.7549V78.9742H87.9059V78.2922H90.2757V54.5281H87.9059V53.846H98.9163C102.076 53.846 104.312 54.0135 105.625 54.3486C106.961 54.6597 107.897 55.0426 108.432 55.4973C109.599 56.4306 110.182 57.9144 110.182 59.9486C110.182 61.9827 109.672 63.4426 108.651 64.3281C107.63 65.1896 106.074 65.7042 103.984 65.8717V65.9794C105.953 66.2426 107.326 66.817 108.104 67.7024C108.881 68.5879 109.271 70.0717 109.271 72.1537V74.0563C109.271 75.3007 109.331 76.1383 109.453 76.5691C109.599 76.9999 109.891 77.2153 110.328 77.2153C110.766 77.2153 111.105 77.0238 111.349 76.6409C111.616 76.234 111.859 75.3965 112.078 74.1281L112.698 74.1999C112.43 76.234 111.956 77.5981 111.276 78.2922C110.62 78.9862 109.295 79.3332 107.302 79.3332C105.308 79.3332 103.887 78.8785 103.036 77.9691C102.21 77.0358 101.797 75.3007 101.797 72.764V70.1435C101.797 68.8033 101.614 67.8221 101.25 67.1999C100.909 66.5776 100.265 66.2665 99.3174 66.2665ZM97.3851 54.5281V65.5845H98.5518C99.9372 65.5845 100.958 65.1657 101.614 64.3281C102.295 63.4904 102.635 62.1263 102.635 60.2358V59.1947C102.635 57.3042 102.307 56.0597 101.651 55.4614C101.019 54.8392 99.998 54.5281 98.5882 54.5281H97.3851Z" fill="white"/>
</g>
<defs>
<clipPath id="clip0_63_8813">
<rect width="150" height="80" fill="white"/>
</clipPath>
</defs>
</svg>
